NotoSerifMalayalam-Bold.ufo
<glyph name="exclam.mlym" format="2">
  <advance width="347"/>
  <unicode hex="0021"/>
  <outline>
    <contour>
      <point x="142" y="238" type="line"/>
      <point x="205" y="238" type="line"/>
      <point x="282" y="714" type="line"/>
      <point x="65" y="714" type="line"/>
    </contour>
    <contour>
      <point x="175" y="-9" type="curve" smooth="yes"/>
      <point x="224" y="-9"/>
      <point x="269" y="15"/>
      <point x="269" y="82" type="curve" smooth="yes"/>
      <point x="269" y="150"/>
      <point x="224" y="173"/>
      <point x="175" y="173" type="curve" smooth="yes"/>
      <point x="123" y="173"/>
      <point x="81" y="150"/>
      <point x="81" y="82" type="curve" smooth="yes"/>
      <point x="81" y="15"/>
      <point x="123" y="-9"/>
    </contour>
  </outline>
</glyph>
<glyph name="numbersign.mlym" format="2">
  <advance width="578"/>
  <unicode hex="0023"/>
  <outline>
    <contour>
      <point x="78" y="0" type="line"/>
      <point x="157" y="0" type="line"/>
      <point x="195" y="198" type="line"/>
      <point x="317" y="198" type="line"/>
      <point x="281" y="0" type="line"/>
      <point x="360" y="0" type="line"/>
      <point x="396" y="198" type="line"/>
      <point x="521" y="198" type="line"/>
      <point x="521" y="274" type="line"/>
      <point x="412" y="274" type="line"/>
      <point x="444" y="444" type="line"/>
      <point x="553" y="444" type="line"/>
      <point x="553" y="522" type="line"/>
      <point x="458" y="522" type="line"/>
      <point x="495" y="714" type="line"/>
      <point x="416" y="714" type="line"/>
      <point x="379" y="522" type="line"/>
      <point x="257" y="522" type="line"/>
      <point x="292" y="714" type="line"/>
      <point x="212" y="714" type="line"/>
      <point x="178" y="522" type="line"/>
      <point x="57" y="522" type="line"/>
      <point x="57" y="444" type="line"/>
      <point x="163" y="444" type="line"/>
      <point x="130" y="274" type="line"/>
      <point x="25" y="274" type="line"/>
      <point x="25" y="198" type="line"/>
      <point x="116" y="198" type="line"/>
    </contour>
    <contour>
      <point x="209" y="274" type="line"/>
      <point x="243" y="444" type="line"/>
      <point x="366" y="444" type="line"/>
      <point x="333" y="274" type="line"/>
    </contour>
  </outline>
</glyph>
<glyph name="quotesingle.mlym" format="2">
  <advance width="309"/>
  <unicode hex="0027"/>
  <outline>
    <contour>
      <point x="114" y="506" type="line"/>
      <point x="195" y="506" type="line"/>
      <point x="251" y="800" type="line"/>
      <point x="58" y="800" type="line"/>
    </contour>
  </outline>
</glyph>
<glyph name="parenleft.mlym" format="2">
  <advance width="425"/>
  <unicode hex="0028"/>
  <outline>
    <contour>
      <point x="393" y="-246" type="curve"/>
      <point x="393" y="-169" type="line"/>
      <point x="278" y="-88"/>
      <point x="245" y="61"/>
      <point x="245" y="279" type="curve" smooth="yes"/>
      <point x="245" y="497"/>
      <point x="278" y="644"/>
      <point x="393" y="726" type="curve"/>
      <point x="393" y="802" type="line"/>
      <point x="150" y="705"/>
      <point x="51" y="536"/>
      <point x="51" y="279" type="curve" smooth="yes"/>
      <point x="51" y="22"/>
      <point x="150" y="-149"/>
    </contour>
  </outline>
</glyph>
<glyph name="parenright.mlym" format="2">
  <advance width="425"/>
  <unicode hex="0029"/>
  <outline>
    <contour>
      <point x="32" y="802" type="curve"/>
      <point x="32" y="725" type="line"/>
      <point x="147" y="644"/>
      <point x="180" y="495"/>
      <point x="180" y="277" type="curve" smooth="yes"/>
      <point x="180" y="59"/>
      <point x="147" y="-88"/>
      <point x="32" y="-170" type="curve"/>
      <point x="32" y="-246" type="line"/>
      <point x="275" y="-149"/>
      <point x="374" y="20"/>
      <point x="374" y="277" type="curve" smooth="yes"/>
      <point x="374" y="534"/>
      <point x="275" y="705"/>
    </contour>
  </outline>
</glyph>
<glyph name="asterisk.mlym" format="2">
  <advance width="521"/>
  <unicode hex="002A"/>
  <outline>
    <contour>
      <point x="197" y="399" type="line"/>
      <point x="325" y="399" type="line"/>
      <point x="286" y="564" type="line"/>
      <point x="431" y="446" type="line"/>
      <point x="484" y="561" type="line"/>
      <point x="317" y="600" type="line"/>
      <point x="484" y="638" type="line"/>
      <point x="431" y="754" type="line"/>
      <point x="286" y="636" type="line"/>
      <point x="326" y="800" type="line"/>
      <point x="197" y="800" type="line"/>
      <point x="235" y="636" type="line"/>
      <point x="89" y="755" type="line"/>
      <point x="37" y="639" type="line"/>
      <point x="204" y="600" type="line"/>
      <point x="37" y="560" type="line"/>
      <point x="89" y="445" type="line"/>
      <point x="235" y="564" type="line"/>
    </contour>
  </outline>
</glyph>
<glyph name="comma.mlym" format="2">
  <advance width="294"/>
  <unicode hex="002C"/>
  <outline>
    <contour>
      <point x="41" y="-154" type="line"/>
      <point x="189" y="-119"/>
      <point x="241" y="-43"/>
      <point x="241" y="47" type="curve" smooth="yes"/>
      <point x="241" y="119"/>
      <point x="207" y="169"/>
      <point x="143" y="169" type="curve" smooth="yes"/>
      <point x="96" y="169"/>
      <point x="61" y="138"/>
      <point x="61" y="87" type="curve" smooth="yes"/>
      <point x="61" y="-1"/>
      <point x="134" y="11"/>
      <point x="134" y="-25" type="curve"/>
      <point x="134" y="-60"/>
      <point x="104" y="-74"/>
      <point x="41" y="-95" type="curve"/>
    </contour>
  </outline>
</glyph>
<glyph name="hyphen.mlym" format="2">
  <advance width="332"/>
  <unicode hex="002D"/>
  <outline>
    <contour>
      <point x="36" y="206" type="line"/>
      <point x="296" y="206" type="line"/>
      <point x="296" y="333" type="line"/>
      <point x="36" y="333" type="line"/>
    </contour>
  </outline>
</glyph>
<glyph name="slash.mlym" format="2">
  <advance width="377"/>
  <unicode hex="002F"/>
  <outline>
    <contour>
      <point x="25" y="-244" type="line"/>
      <point x="106" y="-244" type="line"/>
      <point x="352" y="800" type="line"/>
      <point x="271" y="800" type="line"/>
    </contour>
  </outline>
</glyph>
<glyph name="zero.mlym" format="2">
  <advance width="559"/>
  <unicode hex="0030"/>
  <outline>
    <contour>
      <point x="280" y="-10" type="curve" smooth="yes"/>
      <point x="465" y="-10"/>
      <point x="531" y="137"/>
      <point x="531" y="358" type="curve" smooth="yes"/>
      <point x="531" y="580"/>
      <point x="465" y="724"/>
      <point x="281" y="724" type="curve" smooth="yes"/>
      <point x="86" y="724"/>
      <point x="28" y="580"/>
      <point x="28" y="359" type="curve" smooth="yes"/>
      <point x="28" y="137"/>
      <point x="86" y="-10"/>
    </contour>
    <contour>
      <point x="280" y="63" type="curve" smooth="yes"/>
      <point x="222" y="63"/>
      <point x="218" y="160"/>
      <point x="218" y="358" type="curve" smooth="yes"/>
      <point x="218" y="556"/>
      <point x="222" y="651"/>
      <point x="281" y="651" type="curve" smooth="yes"/>
      <point x="337" y="651"/>
      <point x="340" y="556"/>
      <point x="340" y="358" type="curve" smooth="yes"/>
      <point x="340" y="160"/>
      <point x="337" y="63"/>
    </contour>
  </outline>
</glyph>
<glyph name="two.mlym" format="2">
  <advance width="559"/>
  <unicode hex="0032"/>
  <outline>
    <contour>
      <point x="23" y="0" type="line"/>
      <point x="524" y="0" type="line"/>
      <point x="529" y="237" type="line"/>
      <point x="457" y="237" type="line"/>
      <point x="446" y="197" type="line" smooth="yes"/>
      <point x="433" y="149"/>
      <point x="391" y="132"/>
      <point x="364" y="132" type="curve" smooth="yes"/>
      <point x="150" y="132" type="line"/>
      <point x="184" y="159" type="line" smooth="yes"/>
      <point x="469" y="386"/>
      <point x="504" y="456"/>
      <point x="504" y="549" type="curve" smooth="yes"/>
      <point x="504" y="653"/>
      <point x="422" y="724"/>
      <point x="256" y="724" type="curve" smooth="yes"/>
      <point x="97" y="724"/>
      <point x="23" y="646"/>
      <point x="23" y="577" type="curve" smooth="yes"/>
      <point x="23" y="494"/>
      <point x="95" y="473"/>
      <point x="174" y="473" type="curve"/>
      <point x="174" y="613"/>
      <point x="205" y="655"/>
      <point x="256" y="655" type="curve" smooth="yes"/>
      <point x="287" y="655"/>
      <point x="316" y="633"/>
      <point x="316" y="550" type="curve" smooth="yes"/>
      <point x="316" y="446"/>
      <point x="285" y="377"/>
      <point x="153" y="245" type="curve" smooth="yes"/>
      <point x="23" y="115" type="line"/>
    </contour>
  </outline>
</glyph>
<glyph name="three.mlym" format="2">
  <advance width="559"/>
  <unicode hex="0033"/>
  <outline>
    <contour>
      <point x="242" y="-10" type="curve" smooth="yes"/>
      <point x="397" y="-10"/>
      <point x="531" y="43"/>
      <point x="531" y="207" type="curve" smooth="yes"/>
      <point x="531" y="310"/>
      <point x="443" y="361"/>
      <point x="358" y="381" type="curve"/>
      <point x="441" y="415"/>
      <point x="506" y="468"/>
      <point x="506" y="558" type="curve" smooth="yes"/>
      <point x="506" y="664"/>
      <point x="413" y="724"/>
      <point x="259" y="724" type="curve" smooth="yes"/>
      <point x="101" y="724"/>
      <point x="28" y="655"/>
      <point x="28" y="588" type="curve" smooth="yes"/>
      <point x="28" y="520"/>
      <point x="85" y="495"/>
      <point x="171" y="495" type="curve"/>
      <point x="171" y="573"/>
      <point x="193" y="655"/>
      <point x="251" y="655" type="curve" smooth="yes"/>
      <point x="288" y="655"/>
      <point x="316" y="612"/>
      <point x="316" y="545" type="curve" smooth="yes"/>
      <point x="316" y="462"/>
      <point x="296" y="404"/>
      <point x="211" y="404" type="curve"/>
      <point x="130" y="404" type="line"/>
      <point x="130" y="334" type="line"/>
      <point x="204" y="334" type="line" smooth="yes"/>
      <point x="295" y="334"/>
      <point x="340" y="279"/>
      <point x="340" y="208" type="curve" smooth="yes"/>
      <point x="340" y="97"/>
      <point x="291" y="72"/>
      <point x="236" y="72" type="curve" smooth="yes"/>
      <point x="169" y="72"/>
      <point x="116" y="119"/>
      <point x="116" y="215" type="curve"/>
      <point x="64" y="215"/>
      <point x="15" y="186"/>
      <point x="15" y="127" type="curve" smooth="yes"/>
      <point x="15" y="48"/>
      <point x="77" y="-10"/>
    </contour>
  </outline>
</glyph>
<glyph name="four.mlym" format="2">
  <advance width="559"/>
  <unicode hex="0034"/>
  <outline>
    <contour>
      <point x="156" y="0" type="line"/>
      <point x="544" y="0" type="line"/>
      <point x="544" y="61" type="line"/>
      <point x="531" y="61" type="line" smooth="yes"/>
      <point x="486" y="61"/>
      <point x="449" y="70"/>
      <point x="449" y="133" type="curve" smooth="yes"/>
      <point x="449" y="179" type="line"/>
      <point x="538" y="179" type="line"/>
      <point x="538" y="252" type="line"/>
      <point x="449" y="252" type="line"/>
      <point x="449" y="714" type="line"/>
      <point x="278" y="714" type="line"/>
      <point x="12" y="254" type="line"/>
      <point x="12" y="179" type="line"/>
      <point x="266" y="179" type="line"/>
      <point x="266" y="133" type="line" smooth="yes"/>
      <point x="266" y="70"/>
      <point x="229" y="61"/>
      <point x="184" y="61" type="curve" smooth="yes"/>
      <point x="156" y="61" type="line"/>
    </contour>
    <contour>
      <point x="95" y="252" type="line"/>
      <point x="207" y="460" type="line" smooth="yes"/>
      <point x="216" y="477"/>
      <point x="261" y="567"/>
      <point x="274" y="601" type="curve"/>
      <point x="269" y="539"/>
      <point x="267" y="478"/>
      <point x="267" y="420" type="curve" smooth="yes"/>
      <point x="267" y="252" type="line"/>
    </contour>
  </outline>
</glyph>
<glyph name="seven.mlym" format="2">
  <advance width="559"/>
  <unicode hex="0037"/>
  <outline>
    <contour>
      <point x="138" y="0" type="line"/>
      <point x="250" y="0" type="line"/>
      <point x="518" y="651" type="line"/>
      <point x="518" y="715" type="line"/>
      <point x="43" y="715" type="line"/>
      <point x="38" y="483" type="line"/>
      <point x="111" y="483" type="line"/>
      <point x="119" y="533" type="line" smooth="yes"/>
      <point x="124" y="566"/>
      <point x="141" y="584"/>
      <point x="177" y="584" type="curve"/>
      <point x="416" y="584" type="line"/>
    </contour>
  </outline>
</glyph>
<glyph name="colon.mlym" format="2">
  <advance width="314"/>
  <unicode hex="003A"/>
  <outline>
    <contour>
      <point x="157" y="-9" type="curve" smooth="yes"/>
      <point x="206" y="-9"/>
      <point x="251" y="15"/>
      <point x="251" y="82" type="curve" smooth="yes"/>
      <point x="251" y="150"/>
      <point x="206" y="173"/>
      <point x="157" y="173" type="curve" smooth="yes"/>
      <point x="105" y="173"/>
      <point x="63" y="150"/>
      <point x="63" y="82" type="curve" smooth="yes"/>
      <point x="63" y="15"/>
      <point x="105" y="-9"/>
    </contour>
    <contour>
      <point x="157" y="379" type="curve" smooth="yes"/>
      <point x="206" y="379"/>
      <point x="251" y="403"/>
      <point x="251" y="470" type="curve" smooth="yes"/>
      <point x="251" y="538"/>
      <point x="206" y="561"/>
      <point x="157" y="561" type="curve" smooth="yes"/>
      <point x="105" y="561"/>
      <point x="63" y="538"/>
      <point x="63" y="470" type="curve" smooth="yes"/>
      <point x="63" y="403"/>
      <point x="105" y="379"/>
    </contour>
  </outline>
</glyph>
<glyph name="semicolon.mlym" format="2">
  <advance width="314"/>
  <unicode hex="003B"/>
  <outline>
    <contour>
      <point x="51" y="-154" type="line"/>
      <point x="199" y="-119"/>
      <point x="251" y="-43"/>
      <point x="251" y="47" type="curve" smooth="yes"/>
      <point x="251" y="119"/>
      <point x="217" y="169"/>
      <point x="153" y="169" type="curve" smooth="yes"/>
      <point x="106" y="169"/>
      <point x="71" y="138"/>
      <point x="71" y="87" type="curve" smooth="yes"/>
      <point x="71" y="-1"/>
      <point x="144" y="11"/>
      <point x="144" y="-25" type="curve"/>
      <point x="144" y="-60"/>
      <point x="114" y="-74"/>
      <point x="51" y="-95" type="curve"/>
    </contour>
    <contour>
      <point x="157" y="379" type="curve" smooth="yes"/>
      <point x="206" y="379"/>
      <point x="251" y="403"/>
      <point x="251" y="470" type="curve" smooth="yes"/>
      <point x="251" y="538"/>
      <point x="206" y="561"/>
      <point x="157" y="561" type="curve" smooth="yes"/>
      <point x="105" y="561"/>
      <point x="63" y="538"/>
      <point x="63" y="470" type="curve" smooth="yes"/>
      <point x="63" y="403"/>
      <point x="105" y="379"/>
    </contour>
  </outline>
</glyph>
<glyph name="equal.mlym" format="2">
  <advance width="559"/>
  <unicode hex="003D"/>
  <outline>
    <contour>
      <point x="62" y="414" type="line"/>
      <point x="498" y="414" type="line"/>
      <point x="498" y="492" type="line"/>
      <point x="62" y="492" type="line"/>
    </contour>
    <contour>
      <point x="62" y="222" type="line"/>
      <point x="498" y="222" type="line"/>
      <point x="498" y="300" type="line"/>
      <point x="62" y="300" type="line"/>
    </contour>
  </outline>
</glyph>
<glyph name="question.mlym" format="2">
  <advance width="554"/>
  <unicode hex="003F"/>
  <outline>
    <contour>
      <point x="226" y="238" type="line"/>
      <point x="287" y="238" type="line"/>
      <point x="322" y="323" type="line"/>
      <point x="461" y="381"/>
      <point x="524" y="433"/>
      <point x="524" y="538" type="curve" smooth="yes"/>
      <point x="524" y="655"/>
      <point x="422" y="724"/>
      <point x="260" y="724" type="curve" smooth="yes"/>
      <point x="100" y="724"/>
      <point x="28" y="660"/>
      <point x="28" y="600" type="curve" smooth="yes"/>
      <point x="28" y="534"/>
      <point x="88" y="516"/>
      <point x="195" y="516" type="curve"/>
      <point x="195" y="607"/>
      <point x="218" y="656"/>
      <point x="261" y="656" type="curve" smooth="yes"/>
      <point x="300" y="656"/>
      <point x="323" y="613"/>
      <point x="323" y="553" type="curve" smooth="yes"/>
      <point x="323" y="475"/>
      <point x="304" y="395"/>
      <point x="191" y="350" type="curve"/>
    </contour>
    <contour>
      <point x="254" y="-9" type="curve" smooth="yes"/>
      <point x="303" y="-9"/>
      <point x="348" y="15"/>
      <point x="348" y="82" type="curve" smooth="yes"/>
      <point x="348" y="150"/>
      <point x="303" y="173"/>
      <point x="254" y="173" type="curve" smooth="yes"/>
      <point x="202" y="173"/>
      <point x="160" y="150"/>
      <point x="160" y="82" type="curve" smooth="yes"/>
      <point x="160" y="15"/>
      <point x="202" y="-9"/>
    </contour>
  </outline>
</glyph>
<glyph name="bracketleft.mlym" format="2">
  <advance width="437"/>
  <unicode hex="005B"/>
  <outline>
    <contour>
      <point x="92" y="-244" type="line"/>
      <point x="400" y="-244" type="line"/>
      <point x="400" y="-183" type="line"/>
      <point x="357" y="-183" type="line" smooth="yes"/>
      <point x="312" y="-183"/>
      <point x="275" y="-174"/>
      <point x="275" y="-111" type="curve" smooth="yes"/>
      <point x="275" y="667" type="line" smooth="yes"/>
      <point x="275" y="730"/>
      <point x="312" y="739"/>
      <point x="357" y="739" type="curve" smooth="yes"/>
      <point x="400" y="739" type="line"/>
      <point x="400" y="800" type="line"/>
      <point x="92" y="800" type="line"/>
    </contour>
  </outline>
</glyph>
<glyph name="backslash.mlym" format="2">
  <advance width="377"/>
  <unicode hex="005C"/>
  <outline>
    <contour>
      <point x="271" y="-244" type="line"/>
      <point x="352" y="-244" type="line"/>
      <point x="106" y="800" type="line"/>
      <point x="25" y="800" type="line"/>
    </contour>
  </outline>
</glyph>
<glyph name="bracketright.mlym" format="2">
  <advance width="437"/>
  <unicode hex="005D"/>
  <outline>
    <contour>
      <point x="37" y="-244" type="line"/>
      <point x="345" y="-244" type="line"/>
      <point x="345" y="799" type="line"/>
      <point x="37" y="799" type="line"/>
      <point x="37" y="738" type="line"/>
      <point x="80" y="738" type="line" smooth="yes"/>
      <point x="125" y="738"/>
      <point x="162" y="729"/>
      <point x="162" y="666" type="curve" smooth="yes"/>
      <point x="162" y="-111" type="line" smooth="yes"/>
      <point x="162" y="-174"/>
      <point x="125" y="-183"/>
      <point x="80" y="-183" type="curve" smooth="yes"/>
      <point x="37" y="-183" type="line"/>
    </contour>
  </outline>
</glyph>
<glyph name="underscore.mlym" format="2">
  <advance width="459"/>
  <unicode hex="005F"/>
  <outline>
    <contour>
      <point x="-5" y="-142" type="line"/>
      <point x="464" y="-142" type="line"/>
      <point x="464" y="-83" type="line"/>
      <point x="-5" y="-83" type="line"/>
    </contour>
  </outline>
</glyph>
<glyph name="braceleft.mlym" format="2">
  <advance width="493"/>
  <unicode hex="007B"/>
  <outline>
    <contour>
      <point x="345" y="-244" type="curve" smooth="yes"/>
      <point x="456" y="-244" type="line"/>
      <point x="456" y="-172" type="line"/>
      <point x="407" y="-172" type="line" smooth="yes"/>
      <point x="352" y="-172"/>
      <point x="344" y="-139"/>
      <point x="344" y="-80" type="curve" smooth="yes"/>
      <point x="344" y="159" type="line" smooth="yes"/>
      <point x="344" y="215"/>
      <point x="311" y="249"/>
      <point x="235" y="273" type="curve"/>
      <point x="235" y="286" type="line"/>
      <point x="314" y="308"/>
      <point x="344" y="342"/>
      <point x="344" y="398" type="curve" smooth="yes"/>
      <point x="344" y="637" type="line" smooth="yes"/>
      <point x="344" y="695"/>
      <point x="352" y="728"/>
      <point x="407" y="728" type="curve" smooth="yes"/>
      <point x="456" y="728" type="line"/>
      <point x="456" y="800" type="line"/>
      <point x="345" y="800" type="line" smooth="yes"/>
      <point x="220" y="800"/>
      <point x="155" y="746"/>
      <point x="155" y="652" type="curve" smooth="yes"/>
      <point x="155" y="400" type="line" smooth="yes"/>
      <point x="155" y="330"/>
      <point x="104" y="318"/>
      <point x="40" y="316" type="curve"/>
      <point x="40" y="241" type="line"/>
      <point x="104" y="238"/>
      <point x="155" y="228"/>
      <point x="155" y="156" type="curve" smooth="yes"/>
      <point x="155" y="-93" type="line" smooth="yes"/>
      <point x="155" y="-186"/>
      <point x="220" y="-244"/>
    </contour>
  </outline>
</glyph>
<glyph name="bar.mlym" format="2">
  <advance width="559"/>
  <unicode hex="007C"/>
  <outline>
    <contour>
      <point x="239" y="-244" type="line"/>
      <point x="320" y="-244" type="line"/>
      <point x="320" y="800" type="line"/>
      <point x="239" y="800" type="line"/>
    </contour>
  </outline>
</glyph>
<glyph name="braceright.mlym" format="2">
  <advance width="493"/>
  <unicode hex="007D"/>
  <outline>
    <contour>
      <point x="37" y="-244" type="line"/>
      <point x="148" y="-244" type="line" smooth="yes"/>
      <point x="273" y="-244"/>
      <point x="338" y="-190"/>
      <point x="338" y="-96" type="curve" smooth="yes"/>
      <point x="338" y="156" type="line" smooth="yes"/>
      <point x="338" y="226"/>
      <point x="389" y="238"/>
      <point x="453" y="240" type="curve"/>
      <point x="453" y="315" type="line"/>
      <point x="389" y="318"/>
      <point x="338" y="328"/>
      <point x="338" y="400" type="curve" smooth="yes"/>
      <point x="338" y="649" type="line" smooth="yes"/>
      <point x="338" y="742"/>
      <point x="273" y="800"/>
      <point x="148" y="800" type="curve" smooth="yes"/>
      <point x="37" y="800" type="line"/>
      <point x="37" y="728" type="line"/>
      <point x="86" y="728" type="line" smooth="yes"/>
      <point x="141" y="728"/>
      <point x="149" y="695"/>
      <point x="149" y="636" type="curve" smooth="yes"/>
      <point x="149" y="397" type="line" smooth="yes"/>
      <point x="149" y="341"/>
      <point x="182" y="307"/>
      <point x="258" y="283" type="curve"/>
      <point x="258" y="270" type="line"/>
      <point x="179" y="248"/>
      <point x="149" y="214"/>
      <point x="149" y="158" type="curve" smooth="yes"/>
      <point x="149" y="-81" type="line" smooth="yes"/>
      <point x="149" y="-139"/>
      <point x="141" y="-172"/>
      <point x="86" y="-172" type="curve" smooth="yes"/>
      <point x="37" y="-172" type="line"/>
    </contour>
  </outline>
</glyph>
<glyph name="asciitilde.mlym" format="2">
  <advance width="559"/>
  <unicode hex="007E"/>
  <outline>
    <contour>
      <point x="40" y="257" type="curve"/>
      <point x="123" y="257" type="line"/>
      <point x="123" y="343"/>
      <point x="144" y="373"/>
      <point x="177" y="373" type="curve" smooth="yes"/>
      <point x="196" y="373"/>
      <point x="208" y="364"/>
      <point x="251" y="323" type="curve" smooth="yes"/>
      <point x="304" y="272"/>
      <point x="332" y="257"/>
      <point x="390" y="257" type="curve" smooth="yes"/>
      <point x="488" y="257"/>
      <point x="515" y="323"/>
      <point x="518" y="456" type="curve"/>
      <point x="433" y="456" type="line"/>
      <point x="433" y="371"/>
      <point x="419" y="340"/>
      <point x="387" y="340" type="curve" smooth="yes"/>
      <point x="365" y="340"/>
      <point x="347" y="355"/>
      <point x="309" y="388" type="curve" smooth="yes"/>
      <point x="251" y="438"/>
      <point x="228" y="456"/>
      <point x="177" y="456" type="curve" smooth="yes"/>
      <point x="81" y="456"/>
      <point x="40" y="379"/>
    </contour>
  </outline>
</glyph>
<glyph name="multiply.mlym" format="2">
  <advance width="559"/>
  <unicode hex="00D7"/>
  <outline>
    <contour>
      <point x="146" y="167" type="line"/>
      <point x="279" y="302" type="line"/>
      <point x="414" y="167" type="line"/>
      <point x="470" y="223" type="line"/>
      <point x="335" y="358" type="line"/>
      <point x="470" y="493" type="line"/>
      <point x="412" y="550" type="line"/>
      <point x="279" y="416" type="line"/>
      <point x="146" y="549" type="line"/>
      <point x="88" y="493" type="line"/>
      <point x="222" y="359" type="line"/>
      <point x="88" y="224" type="line"/>
    </contour>
  </outline>
</glyph>
<glyph name="divide.mlym" format="2">
  <advance width="559"/>
  <unicode hex="00F7"/>
  <outline>
    <contour>
      <point x="65" y="317" type="line"/>
      <point x="494" y="317" type="line"/>
      <point x="494" y="397" type="line"/>
      <point x="65" y="397" type="line"/>
    </contour>
    <contour>
      <point x="280" y="103" type="curve" smooth="yes"/>
      <point x="313" y="103"/>
      <point x="339" y="120"/>
      <point x="339" y="168" type="curve" smooth="yes"/>
      <point x="339" y="217"/>
      <point x="313" y="233"/>
      <point x="280" y="233" type="curve" smooth="yes"/>
      <point x="246" y="233"/>
      <point x="221" y="217"/>
      <point x="221" y="168" type="curve" smooth="yes"/>
      <point x="221" y="120"/>
      <point x="246" y="103"/>
    </contour>
    <contour>
      <point x="280" y="481" type="curve" smooth="yes"/>
      <point x="313" y="481"/>
      <point x="339" y="499"/>
      <point x="339" y="547" type="curve" smooth="yes"/>
      <point x="339" y="596"/>
      <point x="313" y="612"/>
      <point x="280" y="612" type="curve" smooth="yes"/>
      <point x="246" y="612"/>
      <point x="221" y="596"/>
      <point x="221" y="547" type="curve" smooth="yes"/>
      <point x="221" y="499"/>
      <point x="246" y="481"/>
    </contour>
  </outline>
</glyph>
<glyph name="uni0307" format="2">
  <unicode hex="0307"/>
  <outline>
    <contour>
      <point x="-280" y="639" type="curve" smooth="yes"/>
      <point x="-220" y="639"/>
      <point x="-179" y="673"/>
      <point x="-179" y="724" type="curve" smooth="yes"/>
      <point x="-179" y="778"/>
      <point x="-220" y="809"/>
      <point x="-280" y="809" type="curve" smooth="yes"/>
      <point x="-343" y="809"/>
      <point x="-380" y="778"/>
      <point x="-380" y="724" type="curve" smooth="yes"/>
      <point x="-380" y="673"/>
      <point x="-343" y="639"/>
    </contour>
  </outline>
</glyph>
<glyph name="uni0323" format="2">
  <unicode hex="0323"/>
  <outline>
    <contour>
      <point x="-280" y="-232" type="curve" smooth="yes"/>
      <point x="-220" y="-232"/>
      <point x="-179" y="-198"/>
      <point x="-179" y="-147" type="curve" smooth="yes"/>
      <point x="-179" y="-93"/>
      <point x="-220" y="-62"/>
      <point x="-280" y="-62" type="curve" smooth="yes"/>
      <point x="-343" y="-62"/>
      <point x="-380" y="-93"/>
      <point x="-380" y="-147" type="curve" smooth="yes"/>
      <point x="-380" y="-198"/>
      <point x="-343" y="-232"/>
    </contour>
  </outline>
</glyph>
<glyph name="uni0951" format="2">
  <unicode hex="0951"/>
  <outline>
    <contour>
      <point x="-320" y="653" type="line"/>
      <point x="-240" y="653" type="line"/>
      <point x="-240" y="864" type="line"/>
      <point x="-320" y="864" type="line"/>
    </contour>
  </outline>
</glyph>
<glyph name="uni0952" format="2">
  <unicode hex="0952"/>
  <outline>
    <contour>
      <point x="-29" y="-183" type="line"/>
      <point x="-29" y="-109" type="line"/>
      <point x="-532" y="-109" type="line"/>
      <point x="-532" y="-183" type="line"/>
    </contour>
  </outline>
</glyph>
<glyph name="danda.mlym" format="2">
  <advance width="355"/>
  <unicode hex="0964"/>
  <outline>
    <contour>
      <point x="176" y="-59" type="line"/>
      <point x="273" y="-59" type="line"/>
      <point x="273" y="630" type="line"/>
      <point x="176" y="630" type="line"/>
    </contour>
  </outline>
</glyph>
<glyph name="dbldanda.mlym" format="2">
  <advance width="555"/>
  <unicode hex="0965"/>
  <outline>
    <contour>
      <point x="176" y="-59" type="line"/>
      <point x="273" y="-59" type="line"/>
      <point x="273" y="630" type="line"/>
      <point x="176" y="630" type="line"/>
    </contour>
    <contour>
      <point x="376" y="-59" type="line"/>
      <point x="473" y="-59" type="line"/>
      <point x="473" y="630" type="line"/>
      <point x="376" y="630" type="line"/>
    </contour>
  </outline>
</glyph>
<glyph name="candrabindumlym" format="2">
  <unicode hex="0D01"/>
  <outline>
    <contour>
      <point x="-267" y="648" type="curve" smooth="yes"/>
      <point x="-130" y="648"/>
      <point x="-68" y="702"/>
      <point x="-68" y="778" type="curve" smooth="yes"/>
      <point x="-68" y="810"/>
      <point x="-82" y="856"/>
      <point x="-131" y="856" type="curve" smooth="yes"/>
      <point x="-137" y="856"/>
      <point x="-153" y="854"/>
      <point x="-159" y="851" type="curve"/>
      <point x="-152" y="837"/>
      <point x="-149" y="813"/>
      <point x="-149" y="797" type="curve" smooth="yes"/>
      <point x="-149" y="741"/>
      <point x="-192" y="721"/>
      <point x="-256" y="721" type="curve" smooth="yes"/>
      <point x="-331" y="721"/>
      <point x="-373" y="741"/>
      <point x="-373" y="801" type="curve" smooth="yes"/>
      <point x="-373" y="818"/>
      <point x="-369" y="838"/>
      <point x="-364" y="852" type="curve"/>
      <point x="-372" y="855"/>
      <point x="-388" y="858"/>
      <point x="-403" y="858" type="curve" smooth="yes"/>
      <point x="-460" y="858"/>
      <point x="-492" y="818"/>
      <point x="-492" y="771" type="curve" smooth="yes"/>
      <point x="-492" y="712"/>
      <point x="-444" y="648"/>
    </contour>
    <contour>
      <point x="-262" y="749" type="curve" smooth="yes"/>
      <point x="-212" y="749"/>
      <point x="-195" y="772"/>
      <point x="-195" y="805" type="curve" smooth="yes"/>
      <point x="-195" y="839"/>
      <point x="-211" y="864"/>
      <point x="-262" y="864" type="curve" smooth="yes"/>
      <point x="-311" y="864"/>
      <point x="-328" y="839"/>
      <point x="-328" y="808" type="curve" smooth="yes"/>
      <point x="-328" y="772"/>
      <point x="-309" y="749"/>
    </contour>
  </outline>
</glyph>
<glyph name="anusvaramlym" format="2">
  <advance width="521"/>
  <unicode hex="0D02"/>
  <outline>
    <contour>
      <point x="249" y="8" type="curve" smooth="yes"/>
      <point x="416" y="8"/>
      <point x="486" y="97"/>
      <point x="486" y="211" type="curve" smooth="yes"/>
      <point x="486" y="313"/>
      <point x="414" y="413"/>
      <point x="257" y="413" type="curve" smooth="yes"/>
      <point x="114" y="413"/>
      <point x="35" y="321"/>
      <point x="35" y="211" type="curve" smooth="yes"/>
      <point x="35" y="100"/>
      <point x="97" y="8"/>
    </contour>
    <contour>
      <point x="213" y="85" type="curve" smooth="yes"/>
      <point x="137" y="85"/>
      <point x="112" y="138"/>
      <point x="112" y="210" type="curve" smooth="yes"/>
      <point x="112" y="280"/>
      <point x="146" y="336"/>
      <point x="213" y="336" type="curve" smooth="yes"/>
      <point x="270" y="336"/>
      <point x="308" y="302"/>
      <point x="308" y="209" type="curve" smooth="yes"/>
      <point x="308" y="139"/>
      <point x="289" y="85"/>
    </contour>
  </outline>
</glyph>
<glyph name="visargamlym" format="2">
  <advance width="306"/>
  <unicode hex="0D03"/>
  <outline>
    <contour>
      <point x="153" y="-4" type="curve" smooth="yes"/>
      <point x="231" y="-4"/>
      <point x="282" y="42"/>
      <point x="282" y="117" type="curve" smooth="yes"/>
      <point x="282" y="191"/>
      <point x="229" y="237"/>
      <point x="153" y="237" type="curve" smooth="yes"/>
      <point x="74" y="237"/>
      <point x="24" y="191"/>
      <point x="24" y="117" type="curve" smooth="yes"/>
      <point x="24" y="42"/>
      <point x="73" y="-4"/>
    </contour>
    <contour>
      <point x="126" y="61" type="curve" smooth="yes"/>
      <point x="102" y="61"/>
      <point x="80" y="79"/>
      <point x="80" y="117" type="curve" smooth="yes"/>
      <point x="80" y="154"/>
      <point x="102" y="172"/>
      <point x="126" y="172" type="curve" smooth="yes"/>
      <point x="152" y="172"/>
      <point x="167" y="153"/>
      <point x="167" y="117" type="curve" smooth="yes"/>
      <point x="167" y="81"/>
      <point x="152" y="61"/>
    </contour>
    <contour>
      <point x="153" y="298" type="curve" smooth="yes"/>
      <point x="231" y="298"/>
      <point x="282" y="344"/>
      <point x="282" y="419" type="curve" smooth="yes"/>
      <point x="282" y="493"/>
      <point x="229" y="539"/>
      <point x="153" y="539" type="curve" smooth="yes"/>
      <point x="74" y="539"/>
      <point x="24" y="493"/>
      <point x="24" y="419" type="curve" smooth="yes"/>
      <point x="24" y="344"/>
      <point x="73" y="298"/>
    </contour>
    <contour>
      <point x="126" y="363" type="curve" smooth="yes"/>
      <point x="102" y="363"/>
      <point x="80" y="381"/>
      <point x="80" y="419" type="curve" smooth="yes"/>
      <point x="80" y="456"/>
      <point x="102" y="474"/>
      <point x="126" y="474" type="curve" smooth="yes"/>
      <point x="152" y="474"/>
      <point x="167" y="455"/>
      <point x="167" y="419" type="curve" smooth="yes"/>
      <point x="167" y="383"/>
      <point x="152" y="363"/>
    </contour>
  </outline>
</glyph>
<glyph name="amlym" format="2">
  <advance width="1580"/>
  <unicode hex="0D05"/>
  <outline>
    <contour>
      <point x="201" y="-9" type="curve" smooth="yes"/>
      <point x="226" y="-9"/>
      <point x="239" y="0"/>
      <point x="250" y="15" type="curve"/>
      <point x="173" y="69"/>
      <point x="116" y="138"/>
      <point x="116" y="262" type="curve" smooth="yes"/>
      <point x="116" y="405"/>
      <point x="200" y="498"/>
      <point x="337" y="498" type="curve" smooth="yes"/>
      <point x="423" y="498"/>
      <point x="506" y="450"/>
      <point x="506" y="371" type="curve" smooth="yes"/>
      <point x="506" y="320"/>
      <point x="477" y="299"/>
      <point x="414" y="297" type="curve"/>
      <point x="414" y="229" type="line"/>
      <point x="462" y="226"/>
      <point x="504" y="198"/>
      <point x="504" y="141" type="curve" smooth="yes"/>
      <point x="504" y="96"/>
      <point x="480" y="73"/>
      <point x="438" y="73" type="curve" smooth="yes"/>
      <point x="380" y="73"/>
      <point x="335" y="116"/>
      <point x="335" y="237" type="curve" smooth="yes"/>
      <point x="335" y="411"/>
      <point x="472" y="503"/>
      <point x="612" y="503" type="curve" smooth="yes"/>
      <point x="741" y="503"/>
      <point x="788" y="435"/>
      <point x="788" y="324" type="curve" smooth="yes"/>
      <point x="788" y="0" type="line"/>
      <point x="1001" y="0" type="line"/>
      <point x="1001" y="304" type="line" smooth="yes"/>
      <point x="1001" y="417"/>
      <point x="1054" y="495"/>
      <point x="1150" y="495" type="curve" smooth="yes"/>
      <point x="1272" y="495"/>
      <point x="1321" y="369"/>
      <point x="1321" y="237" type="curve" smooth="yes"/>
      <point x="1321" y="130"/>
      <point x="1298" y="74"/>
      <point x="1243" y="74" type="curve" smooth="yes"/>
      <point x="1187" y="74"/>
      <point x="1164" y="129"/>
      <point x="1164" y="212" type="curve" smooth="yes"/>
      <point x="1164" y="332"/>
      <point x="1225" y="430"/>
      <point x="1305" y="489" type="curve"/>
      <point x="1245" y="532" type="line"/>
      <point x="1167" y="463"/>
      <point x="1086" y="368"/>
      <point x="1086" y="213" type="curve" smooth="yes"/>
      <point x="1086" y="78"/>
      <point x="1145" y="-8"/>
      <point x="1293" y="-8" type="curve" smooth="yes"/>
      <point x="1442" y="-8"/>
      <point x="1543" y="82"/>
      <point x="1543" y="246" type="curve" smooth="yes"/>
      <point x="1543" y="438"/>
      <point x="1398" y="575"/>
      <point x="1188" y="575" type="curve" smooth="yes"/>
      <point x="1058" y="575"/>
      <point x="964" y="507"/>
      <point x="908" y="409" type="curve"/>
      <point x="952" y="429" type="line"/>
      <point x="887" y="532"/>
      <point x="793" y="575"/>
      <point x="650" y="575" type="curve" smooth="yes"/>
      <point x="414" y="575"/>
      <point x="257" y="422"/>
      <point x="257" y="237" type="curve" smooth="yes"/>
      <point x="257" y="92"/>
      <point x="315" y="-8"/>
      <point x="480" y="-8" type="curve" smooth="yes"/>
      <point x="640" y="-8"/>
      <point x="694" y="62"/>
      <point x="694" y="132" type="curve" smooth="yes"/>
      <point x="694" y="198"/>
      <point x="650" y="244"/>
      <point x="584" y="261" type="curve"/>
      <point x="584" y="265" type="line"/>
      <point x="646" y="280"/>
      <point x="693" y="308"/>
      <point x="693" y="374" type="curve" smooth="yes"/>
      <point x="693" y="440"/>
      <point x="646" y="492"/>
      <point x="562" y="521" type="curve"/>
      <point x="533" y="547" type="line"/>
      <point x="482" y="565"/>
      <point x="422" y="575"/>
      <point x="359" y="575" type="curve" smooth="yes"/>
      <point x="170" y="575"/>
      <point x="38" y="460"/>
      <point x="38" y="258" type="curve" smooth="yes"/>
      <point x="38" y="96"/>
      <point x="131" y="-9"/>
    </contour>
  </outline>
</glyph>
<glyph name="aamlym" format="2">
  <advance width="1829"/>
  <unicode hex="0D06"/>
  <outline>
    <contour>
      <point x="991" y="304" type="line"/>
      <point x="952" y="429" type="line"/>
      <point x="887" y="532"/>
      <point x="793" y="575"/>
      <point x="650" y="575" type="curve" smooth="yes"/>
      <point x="414" y="575"/>
      <point x="257" y="422"/>
      <point x="257" y="237" type="curve" smooth="yes"/>
      <point x="257" y="92"/>
      <point x="315" y="-8"/>
      <point x="480" y="-8" type="curve" smooth="yes"/>
      <point x="640" y="-8"/>
      <point x="694" y="62"/>
      <point x="694" y="132" type="curve" smooth="yes"/>
      <point x="694" y="198"/>
      <point x="650" y="244"/>
      <point x="584" y="261" type="curve"/>
      <point x="584" y="265" type="line"/>
      <point x="646" y="280"/>
      <point x="693" y="308"/>
      <point x="693" y="374" type="curve" smooth="yes"/>
      <point x="693" y="440"/>
      <point x="646" y="492"/>
      <point x="562" y="521" type="curve"/>
      <point x="533" y="547" type="line"/>
      <point x="482" y="565"/>
      <point x="422" y="575"/>
      <point x="359" y="575" type="curve" smooth="yes"/>
      <point x="170" y="575"/>
      <point x="38" y="460"/>
      <point x="38" y="258" type="curve" smooth="yes"/>
      <point x="38" y="96"/>
      <point x="131" y="-9"/>
      <point x="201" y="-9" type="curve" smooth="yes"/>
      <point x="226" y="-9"/>
      <point x="239" y="0"/>
      <point x="250" y="15" type="curve"/>
      <point x="173" y="69"/>
      <point x="116" y="138"/>
      <point x="116" y="262" type="curve" smooth="yes"/>
      <point x="116" y="405"/>
      <point x="200" y="498"/>
      <point x="337" y="498" type="curve" smooth="yes"/>
      <point x="423" y="498"/>
      <point x="506" y="450"/>
      <point x="506" y="371" type="curve" smooth="yes"/>
      <point x="506" y="320"/>
      <point x="477" y="299"/>
      <point x="414" y="297" type="curve"/>
      <point x="414" y="229" type="line"/>
      <point x="462" y="226"/>
      <point x="504" y="198"/>
      <point x="504" y="141" type="curve" smooth="yes"/>
      <point x="504" y="96"/>
      <point x="480" y="73"/>
      <point x="438" y="73" type="curve" smooth="yes"/>
      <point x="380" y="73"/>
      <point x="335" y="116"/>
      <point x="335" y="237" type="curve" smooth="yes"/>
      <point x="335" y="411"/>
      <point x="472" y="503"/>
      <point x="612" y="503" type="curve" smooth="yes"/>
      <point x="741" y="503"/>
      <point x="788" y="435"/>
      <point x="788" y="324" type="curve" smooth="yes"/>
      <point x="788" y="0" type="line"/>
      <point x="991" y="0" type="line"/>
    </contour>
    <contour>
      <point x="1426" y="-177" type="curve" smooth="yes"/>
      <point x="1672" y="-177"/>
      <point x="1795" y="-51"/>
      <point x="1795" y="141" type="curve" smooth="yes"/>
      <point x="1795" y="362"/>
      <point x="1614" y="457"/>
      <point x="1415" y="457" type="curve" smooth="yes"/>
      <point x="1196" y="457"/>
      <point x="1074" y="345"/>
      <point x="1074" y="190" type="curve" smooth="yes"/>
      <point x="1074" y="74"/>
      <point x="1138" y="-8"/>
      <point x="1270" y="-8" type="curve" smooth="yes"/>
      <point x="1429" y="-8"/>
      <point x="1507" y="77"/>
      <point x="1507" y="238" type="curve" smooth="yes"/>
      <point x="1507" y="440"/>
      <point x="1371" y="575"/>
      <point x="1183" y="575" type="curve" smooth="yes"/>
      <point x="1059" y="575"/>
      <point x="966" y="507"/>
      <point x="908" y="409" type="curve"/>
      <point x="807" y="294" type="line"/>
      <point x="807" y="0" type="line"/>
      <point x="1001" y="0" type="line"/>
      <point x="1001" y="303" type="line" smooth="yes"/>
      <point x="1001" y="417"/>
      <point x="1054" y="495"/>
      <point x="1145" y="495" type="curve" smooth="yes"/>
      <point x="1257" y="495"/>
      <point x="1300" y="369"/>
      <point x="1300" y="237" type="curve" smooth="yes"/>
      <point x="1300" y="123"/>
      <point x="1281" y="74"/>
      <point x="1223" y="74" type="curve" smooth="yes"/>
      <point x="1181" y="74"/>
      <point x="1152" y="109"/>
      <point x="1152" y="195" type="curve" smooth="yes"/>
      <point x="1152" y="328"/>
      <point x="1257" y="389"/>
      <point x="1366" y="389" type="curve" smooth="yes"/>
      <point x="1522" y="389"/>
      <point x="1590" y="321"/>
      <point x="1590" y="149" type="curve" smooth="yes"/>
      <point x="1590" y="-8"/>
      <point x="1510" y="-97"/>
      <point x="1390" y="-97" type="curve" smooth="yes"/>
      <point x="1314" y="-97"/>
      <point x="1272" y="-82"/>
      <point x="1218" y="-54" type="curve"/>
      <point x="1212" y="-64"/>
      <point x="1208" y="-76"/>
      <point x="1208" y="-89" type="curve" smooth="yes"/>
      <point x="1208" y="-138"/>
      <point x="1286" y="-177"/>
    </contour>
  </outline>
</glyph>
<glyph name="imlym" format="2">
  <advance width="1147"/>
  <unicode hex="0D07"/>
  <outline>
    <contour>
      <point x="247" y="-201" type="curve" smooth="yes"/>
      <point x="1096" y="-201" type="line"/>
      <point x="1096" y="-93" type="line"/>
      <point x="232" y="-93" type="line" smooth="yes"/>
      <point x="177" y="-93"/>
      <point x="150" y="-79"/>
      <point x="150" y="-47" type="curve" smooth="yes"/>
      <point x="150" y="-8"/>
      <point x="185" y="0"/>
      <point x="229" y="0" type="curve" smooth="yes"/>
      <point x="717" y="0" type="line" smooth="yes"/>
      <point x="964" y="0"/>
      <point x="1107" y="62"/>
      <point x="1107" y="307" type="curve" smooth="yes"/>
      <point x="1107" y="475"/>
      <point x="995" y="575"/>
      <point x="847" y="575" type="curve" smooth="yes"/>
      <point x="710" y="575"/>
      <point x="616" y="481"/>
      <point x="581" y="382" type="curve"/>
      <point x="679" y="392" type="line"/>
      <point x="611" y="520"/>
      <point x="513" y="575"/>
      <point x="363" y="575" type="curve" smooth="yes"/>
      <point x="194" y="575"/>
      <point x="40" y="472"/>
      <point x="40" y="314" type="curve" smooth="yes"/>
      <point x="40" y="181"/>
      <point x="119" y="103"/>
      <point x="239" y="103" type="curve" smooth="yes"/>
      <point x="369" y="103"/>
      <point x="427" y="169"/>
      <point x="427" y="259" type="curve" smooth="yes"/>
      <point x="427" y="346"/>
      <point x="364" y="413"/>
      <point x="265" y="413" type="curve" smooth="yes"/>
      <point x="196" y="413"/>
      <point x="143" y="381"/>
      <point x="106" y="334" type="curve"/>
      <point x="106" y="263" type="line"/>
      <point x="137" y="309"/>
      <point x="170" y="339"/>
      <point x="212" y="339" type="curve" smooth="yes"/>
      <point x="261" y="339"/>
      <point x="273" y="293"/>
      <point x="273" y="256" type="curve" smooth="yes"/>
      <point x="273" y="202"/>
      <point x="253" y="179"/>
      <point x="209" y="179" type="curve" smooth="yes"/>
      <point x="154" y="179"/>
      <point x="113" y="226"/>
      <point x="113" y="309" type="curve" smooth="yes"/>
      <point x="113" y="406"/>
      <point x="198" y="493"/>
      <point x="329" y="493" type="curve" smooth="yes"/>
      <point x="410" y="493"/>
      <point x="487" y="453"/>
      <point x="487" y="316" type="curve" smooth="yes"/>
      <point x="487" y="115" type="line"/>
      <point x="700" y="115" type="line"/>
      <point x="700" y="380" type="line" smooth="yes"/>
      <point x="700" y="447"/>
      <point x="734" y="493"/>
      <point x="785" y="493" type="curve" smooth="yes"/>
      <point x="861" y="493"/>
      <point x="887" y="397"/>
      <point x="887" y="313" type="curve" smooth="yes"/>
      <point x="887" y="145"/>
      <point x="834" y="73"/>
      <point x="669" y="73" type="curve" smooth="yes"/>
      <point x="225" y="73" type="line" smooth="yes"/>
      <point x="118" y="73"/>
      <point x="49" y="28"/>
      <point x="49" y="-63" type="curve" smooth="yes"/>
      <point x="49" y="-165"/>
      <point x="124" y="-201"/>
    </contour>
  </outline>
</glyph>
<glyph name="umlym" format="2">
  <advance width="769"/>
  <unicode hex="0D09"/>
  <outline>
    <contour>
      <point x="247" y="-201" type="curve" smooth="yes"/>
      <point x="720" y="-201" type="line"/>
      <point x="720" y="-93" type="line"/>
      <point x="232" y="-93" type="line" smooth="yes"/>
      <point x="177" y="-93"/>
      <point x="150" y="-79"/>
      <point x="150" y="-47" type="curve" smooth="yes"/>
      <point x="150" y="-8"/>
      <point x="185" y="0"/>
      <point x="229" y="0" type="curve" smooth="yes"/>
      <point x="340" y="0" type="line" smooth="yes"/>
      <point x="586" y="0"/>
      <point x="731" y="81"/>
      <point x="731" y="294" type="curve" smooth="yes"/>
      <point x="731" y="468"/>
      <point x="595" y="575"/>
      <point x="382" y="575" type="curve" smooth="yes"/>
      <point x="186" y="575"/>
      <point x="40" y="472"/>
      <point x="40" y="314" type="curve" smooth="yes"/>
      <point x="40" y="181"/>
      <point x="119" y="103"/>
      <point x="239" y="103" type="curve" smooth="yes"/>
      <point x="369" y="103"/>
      <point x="427" y="169"/>
      <point x="427" y="259" type="curve" smooth="yes"/>
      <point x="427" y="346"/>
      <point x="364" y="413"/>
      <point x="265" y="413" type="curve" smooth="yes"/>
      <point x="196" y="413"/>
      <point x="143" y="381"/>
      <point x="106" y="334" type="curve"/>
      <point x="106" y="263" type="line"/>
      <point x="137" y="309"/>
      <point x="170" y="339"/>
      <point x="212" y="339" type="curve" smooth="yes"/>
      <point x="261" y="339"/>
      <point x="273" y="293"/>
      <point x="273" y="256" type="curve" smooth="yes"/>
      <point x="273" y="202"/>
      <point x="253" y="179"/>
      <point x="209" y="179" type="curve" smooth="yes"/>
      <point x="154" y="179"/>
      <point x="113" y="226"/>
      <point x="113" y="309" type="curve" smooth="yes"/>
      <point x="113" y="406"/>
      <point x="195" y="493"/>
      <point x="331" y="493" type="curve" smooth="yes"/>
      <point x="434" y="493"/>
      <point x="509" y="427"/>
      <point x="509" y="289" type="curve" smooth="yes"/>
      <point x="509" y="138"/>
      <point x="432" y="73"/>
      <point x="292" y="73" type="curve" smooth="yes"/>
      <point x="225" y="73" type="line" smooth="yes"/>
      <point x="118" y="73"/>
      <point x="49" y="28"/>
      <point x="49" y="-63" type="curve" smooth="yes"/>
      <point x="49" y="-165"/>
      <point x="124" y="-201"/>
    </contour>
  </outline>
</glyph>
<glyph name="rvocalicmlym" format="2">
  <advance width="870"/>
  <unicode hex="0D0B"/>
  <outline>
    <contour>
      <point x="417" y="84" type="curve" smooth="yes"/>
      <point x="633" y="84"/>
      <point x="840" y="134"/>
      <point x="840" y="368" type="curve" smooth="yes"/>
      <point x="840" y="504"/>
      <point x="747" y="575"/>
      <point x="636" y="575" type="curve" smooth="yes"/>
      <point x="534" y="575"/>
      <point x="457" y="518"/>
      <point x="457" y="412" type="curve" smooth="yes"/>
      <point x="457" y="329"/>
      <point x="503" y="262"/>
      <point x="628" y="262" type="curve" smooth="yes"/>
      <point x="727" y="262"/>
      <point x="764" y="305"/>
      <point x="800" y="348" type="curve"/>
      <point x="785" y="425" type="line"/>
      <point x="757" y="371"/>
      <point x="722" y="339"/>
      <point x="674" y="339" type="curve" smooth="yes"/>
      <point x="635" y="339"/>
      <point x="611" y="364"/>
      <point x="611" y="418" type="curve" smooth="yes"/>
      <point x="611" y="465"/>
      <point x="632" y="499"/>
      <point x="672" y="499" type="curve" smooth="yes"/>
      <point x="712" y="499"/>
      <point x="764" y="466"/>
      <point x="764" y="358" type="curve" smooth="yes"/>
      <point x="764" y="212"/>
      <point x="614" y="146"/>
      <point x="438" y="146" type="curve" smooth="yes"/>
      <point x="223" y="146"/>
      <point x="106" y="212"/>
      <point x="106" y="360" type="curve" smooth="yes"/>
      <point x="106" y="466"/>
      <point x="158" y="499"/>
      <point x="198" y="499" type="curve" smooth="yes"/>
      <point x="238" y="499"/>
      <point x="259" y="465"/>
      <point x="259" y="418" type="curve" smooth="yes"/>
      <point x="259" y="364"/>
      <point x="235" y="339"/>
      <point x="196" y="339" type="curve" smooth="yes"/>
      <point x="148" y="339"/>
      <point x="113" y="371"/>
      <point x="85" y="425" type="curve"/>
      <point x="70" y="348" type="line"/>
      <point x="106" y="305"/>
      <point x="143" y="262"/>
      <point x="242" y="262" type="curve" smooth="yes"/>
      <point x="367" y="262"/>
      <point x="413" y="335"/>
      <point x="413" y="412" type="curve" smooth="yes"/>
      <point x="413" y="518"/>
      <point x="336" y="575"/>
      <point x="234" y="575" type="curve" smooth="yes"/>
      <point x="123" y="575"/>
      <point x="30" y="504"/>
      <point x="30" y="362" type="curve" smooth="yes"/>
      <point x="30" y="134"/>
      <point x="227" y="84"/>
    </contour>
    <contour>
      <point x="433" y="-214" type="curve" smooth="yes"/>
      <point x="710" y="-214"/>
      <point x="804" y="-141"/>
      <point x="804" y="-31" type="curve" smooth="yes"/>
      <point x="804" y="69"/>
      <point x="716" y="137"/>
      <point x="426" y="137" type="curve" smooth="yes"/>
      <point x="148" y="137"/>
      <point x="60" y="68"/>
      <point x="60" y="-31" type="curve" smooth="yes"/>
      <point x="60" y="-141"/>
      <point x="154" y="-214"/>
    </contour>
    <contour>
      <point x="433" y="-142" type="curve" smooth="yes"/>
      <point x="276" y="-142"/>
      <point x="219" y="-101"/>
      <point x="219" y="-31" type="curve" smooth="yes"/>
      <point x="219" y="38"/>
      <point x="284" y="76"/>
      <point x="433" y="76" type="curve" smooth="yes"/>
      <point x="581" y="76"/>
      <point x="646" y="38"/>
      <point x="646" y="-31" type="curve" smooth="yes"/>
      <point x="646" y="-101"/>
      <point x="589" y="-142"/>
    </contour>
  </outline>
</glyph>
<glyph name="lvocalicmlym" format="2">
  <advance width="1299"/>
  <unicode hex="0D0C"/>
  <outline>
    <contour>
      <point x="250" y="-8" type="curve" smooth="yes"/>
      <point x="389" y="-8"/>
      <point x="447" y="62"/>
      <point x="447" y="163" type="curve" smooth="yes"/>
      <point x="447" y="250"/>
      <point x="395" y="330"/>
      <point x="270" y="330" type="curve" smooth="yes"/>
      <point x="175" y="330"/>
      <point x="116" y="273"/>
      <point x="79" y="215" type="curve"/>
      <point x="94" y="148" type="line"/>
      <point x="123" y="205"/>
      <point x="165" y="253"/>
      <point x="220" y="253" type="curve" smooth="yes"/>
      <point x="268" y="253"/>
      <point x="288" y="216"/>
      <point x="288" y="160" type="curve" smooth="yes"/>
      <point x="288" y="97"/>
      <point x="266" y="69"/>
      <point x="218" y="69" type="curve" smooth="yes"/>
      <point x="176" y="69"/>
      <point x="112" y="115"/>
      <point x="112" y="248" type="curve" smooth="yes"/>
      <point x="112" y="410"/>
      <point x="228" y="494"/>
      <point x="349" y="494" type="curve" smooth="yes"/>
      <point x="452" y="494"/>
      <point x="507" y="432"/>
      <point x="507" y="307" type="curve" smooth="yes"/>
      <point x="507" y="0" type="line"/>
      <point x="710" y="0" type="line"/>
      <point x="710" y="373" type="line"/>
      <point x="677" y="434" type="line"/>
      <point x="605" y="535"/>
      <point x="518" y="575"/>
      <point x="382" y="575" type="curve" smooth="yes"/>
      <point x="194" y="575"/>
      <point x="38" y="459"/>
      <point x="38" y="254" type="curve" smooth="yes"/>
      <point x="38" y="104"/>
      <point x="110" y="-8"/>
    </contour>
    <contour>
      <point x="517" y="324" type="line"/>
      <point x="517" y="0" type="line"/>
      <point x="720" y="0" type="line"/>
      <point x="720" y="304" type="line" smooth="yes"/>
      <point x="720" y="417"/>
      <point x="773" y="498"/>
      <point x="869" y="498" type="curve" smooth="yes"/>
      <point x="991" y="498"/>
      <point x="1040" y="369"/>
      <point x="1040" y="237" type="curve" smooth="yes"/>
      <point x="1040" y="130"/>
      <point x="1017" y="74"/>
      <point x="962" y="74" type="curve" smooth="yes"/>
      <point x="906" y="74"/>
      <point x="883" y="129"/>
      <point x="883" y="212" type="curve" smooth="yes"/>
      <point x="883" y="332"/>
      <point x="944" y="430"/>
      <point x="1024" y="489" type="curve"/>
      <point x="964" y="532" type="line"/>
      <point x="886" y="463"/>
      <point x="805" y="368"/>
      <point x="805" y="213" type="curve" smooth="yes"/>
      <point x="805" y="79"/>
      <point x="864" y="-8"/>
      <point x="1012" y="-8" type="curve" smooth="yes"/>
      <point x="1161" y="-8"/>
      <point x="1262" y="82"/>
      <point x="1262" y="246" type="curve" smooth="yes"/>
      <point x="1262" y="438"/>
      <point x="1117" y="575"/>
      <point x="907" y="575" type="curve" smooth="yes"/>
      <point x="777" y="575"/>
      <point x="684" y="510"/>
      <point x="622" y="408" type="curve"/>
    </contour>
  </outline>
</glyph>
<glyph name="emlym" format="2">
  <advance width="1455"/>
  <unicode hex="0D0E"/>
  <outline>
    <contour>
      <point x="144" y="-6" type="curve" smooth="yes"/>
      <point x="169" y="-6"/>
      <point x="175" y="0"/>
      <point x="183" y="16" type="curve"/>
      <point x="140" y="44"/>
      <point x="105" y="91"/>
      <point x="105" y="167" type="curve" smooth="yes"/>
      <point x="105" y="239"/>
      <point x="146" y="288"/>
      <point x="206" y="288" type="curve" smooth="yes"/>
      <point x="264" y="288"/>
      <point x="298" y="247"/>
      <point x="298" y="173" type="curve" smooth="yes"/>
      <point x="298" y="99"/>
      <point x="276" y="57"/>
      <point x="243" y="17" type="curve"/>
      <point x="253" y="0" type="line"/>
      <point x="890" y="0" type="line"/>
      <point x="890" y="73" type="line"/>
      <point x="452" y="73" type="line"/>
      <point x="480" y="101"/>
      <point x="492" y="143"/>
      <point x="492" y="185" type="curve" smooth="yes"/>
      <point x="492" y="285"/>
      <point x="400" y="364"/>
      <point x="255" y="364" type="curve" smooth="yes"/>
      <point x="106" y="364"/>
      <point x="28" y="280"/>
      <point x="28" y="167" type="curve" smooth="yes"/>
      <point x="28" y="68"/>
      <point x="90" y="-6"/>
    </contour>
    <contour>
      <point x="1137" y="-230" type="curve" smooth="yes"/>
      <point x="1298" y="-230"/>
      <point x="1419" y="-99"/>
      <point x="1419" y="150" type="curve" smooth="yes"/>
      <point x="1419" y="348"/>
      <point x="1315" y="575"/>
      <point x="998" y="575" type="curve" smooth="yes"/>
      <point x="755" y="575"/>
      <point x="589" y="418"/>
      <point x="589" y="122" type="curve" smooth="yes"/>
      <point x="589" y="-88"/>
      <point x="658" y="-228"/>
      <point x="840" y="-228" type="curve" smooth="yes"/>
      <point x="955" y="-228"/>
      <point x="1039" y="-177"/>
      <point x="1039" y="-54" type="curve" smooth="yes"/>
      <point x="1039" y="404" type="line"/>
      <point x="824" y="404" type="line"/>
      <point x="824" y="-84" type="line" smooth="yes"/>
      <point x="824" y="-124"/>
      <point x="820" y="-143"/>
      <point x="785" y="-143" type="curve" smooth="yes"/>
      <point x="714" y="-143"/>
      <point x="667" y="-53"/>
      <point x="667" y="119" type="curve" smooth="yes"/>
      <point x="667" y="347"/>
      <point x="772" y="494"/>
      <point x="952" y="494" type="curve" smooth="yes"/>
      <point x="1137" y="494"/>
      <point x="1204" y="325"/>
      <point x="1204" y="141" type="curve" smooth="yes"/>
      <point x="1204" y="-15"/>
      <point x="1174" y="-136"/>
      <point x="1076" y="-214" type="curve"/>
      <point x="1087" y="-222"/>
      <point x="1103" y="-230"/>
    </contour>
  </outline>
</glyph>
<glyph name="eemlym" format="2">
  <advance width="1447"/>
  <unicode hex="0D0F"/>
  <outline>
    <contour>
      <point x="840" y="-228" type="curve" smooth="yes"/>
      <point x="955" y="-228"/>
      <point x="1039" y="-177"/>
      <point x="1039" y="-54" type="curve" smooth="yes"/>
      <point x="1039" y="404" type="line"/>
      <point x="824" y="404" type="line"/>
      <point x="824" y="-84" type="line" smooth="yes"/>
      <point x="824" y="-124"/>
      <point x="820" y="-143"/>
      <point x="785" y="-143" type="curve" smooth="yes"/>
      <point x="714" y="-143"/>
      <point x="667" y="-53"/>
      <point x="667" y="119" type="curve" smooth="yes"/>
      <point x="667" y="336"/>
      <point x="780" y="491"/>
      <point x="993" y="491" type="curve" smooth="yes"/>
      <point x="1126" y="491"/>
      <point x="1191" y="421"/>
      <point x="1191" y="328" type="curve" smooth="yes"/>
      <point x="1191" y="254"/>
      <point x="1155" y="201"/>
      <point x="1085" y="193" type="curve"/>
      <point x="1085" y="121" type="line"/>
      <point x="1170" y="115"/>
      <point x="1220" y="62"/>
      <point x="1220" y="-20" type="curve" smooth="yes"/>
      <point x="1220" y="-107"/>
      <point x="1180" y="-142"/>
      <point x="1120" y="-142" type="curve" smooth="yes"/>
      <point x="1099" y="-142"/>
      <point x="1078" y="-139"/>
      <point x="1065" y="-134" type="curve"/>
      <point x="1064" y="-141"/>
      <point x="1064" y="-147"/>
      <point x="1064" y="-151" type="curve" smooth="yes"/>
      <point x="1064" y="-204"/>
      <point x="1126" y="-228"/>
      <point x="1210" y="-228" type="curve" smooth="yes"/>
      <point x="1348" y="-228"/>
      <point x="1430" y="-159"/>
      <point x="1430" y="-35" type="curve" smooth="yes"/>
      <point x="1430" y="68"/>
      <point x="1365" y="132"/>
      <point x="1263" y="162" type="curve"/>
      <point x="1263" y="166" type="line"/>
      <point x="1338" y="193"/>
      <point x="1398" y="249"/>
      <point x="1398" y="348" type="curve" smooth="yes"/>
      <point x="1398" y="500"/>
      <point x="1248" y="575"/>
      <point x="1050" y="575" type="curve" smooth="yes"/>
      <point x="783" y="575"/>
      <point x="589" y="431"/>
      <point x="589" y="122" type="curve" smooth="yes"/>
      <point x="589" y="-88"/>
      <point x="658" y="-228"/>
    </contour>
    <contour>
      <point x="144" y="-6" type="curve" smooth="yes"/>
      <point x="169" y="-6"/>
      <point x="175" y="0"/>
      <point x="183" y="16" type="curve"/>
      <point x="140" y="44"/>
      <point x="105" y="91"/>
      <point x="105" y="167" type="curve" smooth="yes"/>
      <point x="105" y="239"/>
      <point x="146" y="288"/>
      <point x="206" y="288" type="curve" smooth="yes"/>
      <point x="264" y="288"/>
      <point x="298" y="247"/>
      <point x="298" y="173" type="curve" smooth="yes"/>
      <point x="298" y="99"/>
      <point x="276" y="57"/>
      <point x="243" y="17" type="curve"/>
      <point x="253" y="0" type="line"/>
      <point x="890" y="0" type="line"/>
      <point x="890" y="73" type="line"/>
      <point x="452" y="73" type="line"/>
      <point x="480" y="101"/>
      <point x="492" y="143"/>
      <point x="492" y="185" type="curve" smooth="yes"/>
      <point x="492" y="285"/>
      <point x="400" y="364"/>
      <point x="255" y="364" type="curve" smooth="yes"/>
      <point x="106" y="364"/>
      <point x="28" y="280"/>
      <point x="28" y="167" type="curve" smooth="yes"/>
      <point x="28" y="68"/>
      <point x="90" y="-6"/>
    </contour>
  </outline>
</glyph>
<glyph name="omlym" format="2">
  <advance width="828"/>
  <unicode hex="0D12"/>
  <outline>
    <contour>
      <point x="243" y="-8" type="curve" smooth="yes"/>
      <point x="390" y="-8"/>
      <point x="443" y="62"/>
      <point x="443" y="160" type="curve" smooth="yes"/>
      <point x="443" y="250"/>
      <point x="391" y="330"/>
      <point x="266" y="330" type="curve" smooth="yes"/>
      <point x="171" y="330"/>
      <point x="112" y="273"/>
      <point x="75" y="215" type="curve"/>
      <point x="90" y="148" type="line"/>
      <point x="128" y="208"/>
      <point x="164" y="253"/>
      <point x="216" y="253" type="curve" smooth="yes"/>
      <point x="264" y="253"/>
      <point x="284" y="216"/>
      <point x="284" y="160" type="curve" smooth="yes"/>
      <point x="284" y="97"/>
      <point x="262" y="69"/>
      <point x="213" y="69" type="curve" smooth="yes"/>
      <point x="168" y="69"/>
      <point x="110" y="110"/>
      <point x="110" y="234" type="curve" smooth="yes"/>
      <point x="110" y="393"/>
      <point x="227" y="492"/>
      <point x="415" y="492" type="curve" smooth="yes"/>
      <point x="515" y="492"/>
      <point x="574" y="464"/>
      <point x="574" y="401" type="curve" smooth="yes"/>
      <point x="574" y="346"/>
      <point x="531" y="319"/>
      <point x="482" y="319" type="curve" smooth="yes"/>
      <point x="473" y="319" type="line"/>
      <point x="473" y="249" type="line"/>
      <point x="480" y="249" type="line" smooth="yes"/>
      <point x="536" y="249"/>
      <point x="579" y="218"/>
      <point x="579" y="155" type="curve" smooth="yes"/>
      <point x="579" y="103"/>
      <point x="552" y="76"/>
      <point x="505" y="76" type="curve" smooth="yes"/>
      <point x="487" y="76"/>
      <point x="471" y="78"/>
      <point x="450" y="88" type="curve"/>
      <point x="447" y="83"/>
      <point x="446" y="74"/>
      <point x="446" y="68" type="curve" smooth="yes"/>
      <point x="446" y="41"/>
      <point x="469" y="-8"/>
      <point x="598" y="-8" type="curve" smooth="yes"/>
      <point x="731" y="-8"/>
      <point x="798" y="50"/>
      <point x="798" y="135" type="curve" smooth="yes"/>
      <point x="798" y="206"/>
      <point x="763" y="257"/>
      <point x="651" y="282" type="curve"/>
      <point x="651" y="286" type="line"/>
      <point x="752" y="302"/>
      <point x="791" y="350"/>
      <point x="791" y="417" type="curve" smooth="yes"/>
      <point x="791" y="533"/>
      <point x="639" y="575"/>
      <point x="476" y="575" type="curve" smooth="yes"/>
      <point x="211" y="575"/>
      <point x="36" y="465"/>
      <point x="36" y="236" type="curve" smooth="yes"/>
      <point x="36" y="102"/>
      <point x="104" y="-8"/>
    </contour>
  </outline>
</glyph>
<glyph name="kamlym" format="2">
  <advance width="1125"/>
  <unicode hex="0D15"/>
  <outline>
    <contour>
      <point x="222" y="-8" type="curve" smooth="yes"/>
      <point x="314" y="-8"/>
      <point x="377" y="31"/>
      <point x="412" y="107" type="curve"/>
      <point x="366" y="172" type="line"/>
      <point x="345" y="101"/>
      <point x="314" y="69"/>
      <point x="269" y="69" type="curve" smooth="yes"/>
      <point x="225" y="69"/>
      <point x="200" y="95"/>
      <point x="200" y="142" type="curve" smooth="yes"/>
      <point x="200" y="224"/>
      <point x="273" y="254"/>
      <point x="355" y="254" type="curve" smooth="yes"/>
      <point x="759" y="254" type="line" smooth="yes"/>
      <point x="858" y="254"/>
      <point x="914" y="218"/>
      <point x="914" y="150" type="curve" smooth="yes"/>
      <point x="914" y="84"/>
      <point x="880" y="63"/>
      <point x="839" y="63" type="curve" smooth="yes"/>
      <point x="833" y="63"/>
      <point x="826" y="63"/>
      <point x="819" y="64" type="curve"/>
      <point x="819" y="28"/>
      <point x="840" y="-8"/>
      <point x="921" y="-8" type="curve" smooth="yes"/>
      <point x="1036" y="-8"/>
      <point x="1095" y="51"/>
      <point x="1095" y="148" type="curve" smooth="yes"/>
      <point x="1095" y="249"/>
      <point x="999" y="324"/>
      <point x="817" y="324" type="curve" smooth="yes"/>
      <point x="340" y="324" type="line" smooth="yes"/>
      <point x="119" y="324"/>
      <point x="30" y="247"/>
      <point x="30" y="145" type="curve" smooth="yes"/>
      <point x="30" y="51"/>
      <point x="87" y="-8"/>
    </contour>
    <contour>
      <point x="560" y="-8" type="curve" smooth="yes"/>
      <point x="747" y="-8"/>
      <point x="823" y="117"/>
      <point x="823" y="284" type="curve" smooth="yes"/>
      <point x="823" y="447"/>
      <point x="742" y="575"/>
      <point x="560" y="575" type="curve" smooth="yes"/>
      <point x="370" y="575"/>
      <point x="314" y="424"/>
      <point x="314" y="279" type="curve" smooth="yes"/>
      <point x="314" y="130"/>
      <point x="366" y="-8"/>
    </contour>
    <contour>
      <point x="504" y="74" type="curve" smooth="yes"/>
      <point x="435" y="74"/>
      <point x="391" y="143"/>
      <point x="391" y="285" type="curve" smooth="yes"/>
      <point x="391" y="399"/>
      <point x="423" y="493"/>
      <point x="504" y="493" type="curve" smooth="yes"/>
      <point x="575" y="493"/>
      <point x="604" y="418"/>
      <point x="604" y="280" type="curve" smooth="yes"/>
      <point x="604" y="146"/>
      <point x="575" y="74"/>
    </contour>
  </outline>
</glyph>
<glyph name="khamlym" format="2">
  <advance width="1149"/>
  <unicode hex="0D16"/>
  <guideline x="237" y="69" angle="0"/>
  <outline>
    <contour>
      <point x="250" y="-8" type="curve" smooth="yes"/>
      <point x="389" y="-8"/>
      <point x="447" y="62"/>
      <point x="447" y="166" type="curve" smooth="yes"/>
      <point x="447" y="250"/>
      <point x="395" y="330"/>
      <point x="270" y="330" type="curve" smooth="yes"/>
      <point x="174" y="330"/>
      <point x="116" y="273"/>
      <point x="79" y="215" type="curve"/>
      <point x="94" y="148" type="line"/>
      <point x="123" y="205"/>
      <point x="165" y="253"/>
      <point x="220" y="253" type="curve" smooth="yes"/>
      <point x="268" y="253"/>
      <point x="288" y="216"/>
      <point x="288" y="160" type="curve" smooth="yes"/>
      <point x="288" y="97"/>
      <point x="266" y="69"/>
      <point x="217" y="69" type="curve" smooth="yes"/>
      <point x="176" y="69"/>
      <point x="112" y="115"/>
      <point x="112" y="248" type="curve" smooth="yes"/>
      <point x="112" y="410"/>
      <point x="227" y="494"/>
      <point x="346" y="494" type="curve" smooth="yes"/>
      <point x="476" y="494"/>
      <point x="527" y="394"/>
      <point x="527" y="276" type="curve" smooth="yes"/>
      <point x="527" y="182"/>
      <point x="504" y="100"/>
      <point x="440" y="26" type="curve"/>
      <point x="453" y="0" type="line"/>
      <point x="1087" y="0" type="line"/>
      <point x="1087" y="567" type="line"/>
      <point x="872" y="567" type="line"/>
      <point x="872" y="73" type="line"/>
      <point x="588" y="73" type="line"/>
      <point x="644" y="52" type="line"/>
      <point x="698" y="93"/>
      <point x="746" y="166"/>
      <point x="746" y="289" type="curve" smooth="yes"/>
      <point x="746" y="444"/>
      <point x="628" y="575"/>
      <point x="395" y="575" type="curve" smooth="yes"/>
      <point x="197" y="575"/>
      <point x="38" y="459"/>
      <point x="38" y="255" type="curve" smooth="yes"/>
      <point x="38" y="104"/>
      <point x="110" y="-8"/>
    </contour>
  </outline>
</glyph>
<glyph name="gamlym" format="2">
  <advance width="877"/>
  <unicode hex="0D17"/>
  <outline>
    <contour>
      <point x="289" y="-8" type="curve" smooth="yes"/>
      <point x="445" y="-8"/>
      <point x="549" y="70"/>
      <point x="549" y="262" type="curve" smooth="yes"/>
      <point x="549" y="368" type="line" smooth="yes"/>
      <point x="549" y="458"/>
      <point x="584" y="493"/>
      <point x="640" y="493" type="curve" smooth="yes"/>
      <point x="710" y="493"/>
      <point x="761" y="422"/>
      <point x="761" y="287" type="curve" smooth="yes"/>
      <point x="761" y="159"/>
      <point x="715" y="90"/>
      <point x="635" y="17" type="curve"/>
      <point x="645" y="4"/>
      <point x="655" y="-8"/>
      <point x="682" y="-8" type="curve" smooth="yes"/>
      <point x="745" y="-8"/>
      <point x="839" y="118"/>
      <point x="839" y="286" type="curve" smooth="yes"/>
      <point x="839" y="476"/>
      <point x="749" y="575"/>
      <point x="588" y="575" type="curve" smooth="yes"/>
      <point x="432" y="575"/>
      <point x="328" y="497"/>
      <point x="328" y="299" type="curve" smooth="yes"/>
      <point x="328" y="199" type="line" smooth="yes"/>
      <point x="328" y="109"/>
      <point x="293" y="74"/>
      <point x="237" y="74" type="curve" smooth="yes"/>
      <point x="167" y="74"/>
      <point x="116" y="145"/>
      <point x="116" y="279" type="curve" smooth="yes"/>
      <point x="116" y="408"/>
      <point x="162" y="477"/>
      <point x="242" y="550" type="curve"/>
      <point x="232" y="563"/>
      <point x="222" y="575"/>
      <point x="193" y="575" type="curve" smooth="yes"/>
      <point x="132" y="575"/>
      <point x="38" y="449"/>
      <point x="38" y="281" type="curve" smooth="yes"/>
      <point x="38" y="92"/>
      <point x="127" y="-8"/>
    </contour>
  </outline>
</glyph>
<glyph name="ghamlym" format="2">
  <advance width="1453"/>
  <unicode hex="0D18"/>
  <outline>
    <contour>
      <point x="567" y="0" type="line"/>
      <point x="1391" y="0" type="line"/>
      <point x="1391" y="567" type="line"/>
      <point x="1176" y="567" type="line"/>
      <point x="1176" y="73" type="line"/>
      <point x="778" y="73" type="line"/>
      <point x="778" y="343" type="line" smooth="yes"/>
      <point x="778" y="464"/>
      <point x="817" y="496"/>
      <point x="876" y="496" type="curve" smooth="yes"/>
      <point x="954" y="496"/>
      <point x="991" y="438"/>
      <point x="991" y="340" type="curve" smooth="yes"/>
      <point x="991" y="290" type="line"/>
      <point x="689" y="290" type="line"/>
      <point x="689" y="218" type="line"/>
      <point x="1069" y="218" type="line"/>
      <point x="1069" y="347" type="line" smooth="yes"/>
      <point x="1069" y="483"/>
      <point x="993" y="575"/>
      <point x="831" y="575" type="curve" smooth="yes"/>
      <point x="698" y="575"/>
      <point x="567" y="502"/>
      <point x="567" y="333" type="curve" smooth="yes"/>
    </contour>
    <contour>
      <point x="144" y="209" type="curve" smooth="yes"/>
      <point x="169" y="209"/>
      <point x="175" y="215"/>
      <point x="183" y="231" type="curve"/>
      <point x="140" y="259"/>
      <point x="105" y="306"/>
      <point x="105" y="382" type="curve" smooth="yes"/>
      <point x="105" y="450"/>
      <point x="146" y="499"/>
      <point x="206" y="499" type="curve" smooth="yes"/>
      <point x="264" y="499"/>
      <point x="298" y="458"/>
      <point x="298" y="388" type="curve" smooth="yes"/>
      <point x="298" y="310"/>
      <point x="276" y="271"/>
      <point x="243" y="234" type="curve"/>
      <point x="253" y="217" type="line"/>
      <point x="621" y="217" type="line"/>
      <point x="621" y="290" type="line"/>
      <point x="417" y="290" type="line"/>
      <point x="437" y="277" type="line"/>
      <point x="465" y="303"/>
      <point x="489" y="344"/>
      <point x="489" y="400" type="curve" smooth="yes"/>
      <point x="489" y="496"/>
      <point x="400" y="575"/>
      <point x="255" y="575" type="curve" smooth="yes"/>
      <point x="106" y="575"/>
      <point x="28" y="491"/>
      <point x="28" y="382" type="curve" smooth="yes"/>
      <point x="28" y="284"/>
      <point x="90" y="209"/>
    </contour>
  </outline>
</glyph>
<glyph name="ngamlym" format="2">
  <advance width="1221"/>
  <unicode hex="0D19"/>
  <outline>
    <contour>
      <point x="250" y="-8" type="curve" smooth="yes"/>
      <point x="389" y="-8"/>
      <point x="447" y="62"/>
      <point x="447" y="163" type="curve" smooth="yes"/>
      <point x="447" y="250"/>
      <point x="395" y="330"/>
      <point x="270" y="330" type="curve" smooth="yes"/>
      <point x="175" y="330"/>
      <point x="116" y="273"/>
      <point x="79" y="215" type="curve"/>
      <point x="94" y="148" type="line"/>
      <point x="123" y="205"/>
      <point x="165" y="253"/>
      <point x="220" y="253" type="curve" smooth="yes"/>
      <point x="268" y="253"/>
      <point x="288" y="216"/>
      <point x="288" y="160" type="curve" smooth="yes"/>
      <point x="288" y="97"/>
      <point x="266" y="69"/>
      <point x="218" y="69" type="curve" smooth="yes"/>
      <point x="176" y="69"/>
      <point x="112" y="115"/>
      <point x="112" y="248" type="curve" smooth="yes"/>
      <point x="112" y="410"/>
      <point x="228" y="494"/>
      <point x="349" y="494" type="curve" smooth="yes"/>
      <point x="452" y="494"/>
      <point x="507" y="432"/>
      <point x="507" y="307" type="curve" smooth="yes"/>
      <point x="507" y="0" type="line"/>
      <point x="710" y="0" type="line"/>
      <point x="710" y="373" type="line"/>
      <point x="677" y="434" type="line"/>
      <point x="605" y="535"/>
      <point x="518" y="575"/>
      <point x="382" y="575" type="curve" smooth="yes"/>
      <point x="194" y="575"/>
      <point x="38" y="459"/>
      <point x="38" y="254" type="curve" smooth="yes"/>
      <point x="38" y="104"/>
      <point x="110" y="-8"/>
    </contour>
    <contour>
      <point x="934" y="575" type="curve" smooth="yes"/>
      <point x="746" y="575"/>
      <point x="643" y="470"/>
      <point x="607" y="334" type="curve"/>
      <point x="517" y="324" type="line"/>
      <point x="517" y="0" type="line"/>
      <point x="720" y="0" type="line"/>
      <point x="720" y="318" type="line" smooth="yes"/>
      <point x="720" y="420"/>
      <point x="782" y="492"/>
      <point x="870" y="492" type="curve" smooth="yes"/>
      <point x="923" y="492"/>
      <point x="967" y="467"/>
      <point x="967" y="402" type="curve" smooth="yes"/>
      <point x="967" y="346"/>
      <point x="929" y="319"/>
      <point x="864" y="319" type="curve" smooth="yes"/>
      <point x="851" y="319" type="line"/>
      <point x="851" y="249" type="line"/>
      <point x="861" y="249" type="line" smooth="yes"/>
      <point x="933" y="249"/>
      <point x="972" y="218"/>
      <point x="972" y="155" type="curve" smooth="yes"/>
      <point x="972" y="102"/>
      <point x="945" y="76"/>
      <point x="898" y="76" type="curve" smooth="yes"/>
      <point x="872" y="76"/>
      <point x="847" y="83"/>
      <point x="819" y="100" type="curve"/>
      <point x="816" y="95"/>
      <point x="813" y="87"/>
      <point x="813" y="74" type="curve" smooth="yes"/>
      <point x="813" y="40"/>
      <point x="849" y="-8"/>
      <point x="989" y="-8" type="curve" smooth="yes"/>
      <point x="1124" y="-8"/>
      <point x="1191" y="52"/>
      <point x="1191" y="135" type="curve" smooth="yes"/>
      <point x="1191" y="208"/>
      <point x="1156" y="257"/>
      <point x="1044" y="282" type="curve"/>
      <point x="1044" y="286" type="line"/>
      <point x="1145" y="302"/>
      <point x="1184" y="348"/>
      <point x="1184" y="417" type="curve" smooth="yes"/>
      <point x="1184" y="510"/>
      <point x="1095" y="575"/>
    </contour>
  </outline>
</glyph>
<glyph name="camlym" format="2">
  <advance width="1039"/>
  <unicode hex="0D1A"/>
  <outline>
    <contour>
      <point x="17" y="0" type="line"/>
      <point x="977" y="0" type="line"/>
      <point x="977" y="567" type="line"/>
      <point x="762" y="567" type="line"/>
      <point x="762" y="73" type="line"/>
      <point x="17" y="73" type="line"/>
    </contour>
    <contour>
      <point x="360" y="43" type="line"/>
      <point x="488" y="41" type="line"/>
      <point x="539" y="79"/>
      <point x="574" y="119"/>
      <point x="574" y="205" type="curve" smooth="yes"/>
      <point x="574" y="305"/>
      <point x="486" y="379"/>
      <point x="344" y="379" type="curve" smooth="yes"/>
      <point x="186" y="379"/>
      <point x="121" y="295"/>
      <point x="121" y="223" type="curve" smooth="yes"/>
      <point x="121" y="175"/>
      <point x="141" y="141"/>
      <point x="191" y="141" type="curve" smooth="yes"/>
      <point x="196" y="141"/>
      <point x="204" y="142"/>
      <point x="208" y="144" type="curve"/>
      <point x="201" y="164"/>
      <point x="198" y="185"/>
      <point x="198" y="203" type="curve" smooth="yes"/>
      <point x="198" y="258"/>
      <point x="232" y="303"/>
      <point x="292" y="303" type="curve" smooth="yes"/>
      <point x="345" y="303"/>
      <point x="380" y="266"/>
      <point x="380" y="201" type="curve" smooth="yes"/>
      <point x="380" y="144"/>
      <point x="364" y="100"/>
      <point x="332" y="63" type="curve"/>
    </contour>
  </outline>
</glyph>
<glyph name="chamlym" format="2">
  <advance width="1373"/>
  <unicode hex="0D1B"/>
  <outline>
    <contour>
      <point x="1086" y="-8" type="curve" smooth="yes"/>
      <point x="1235" y="-8"/>
      <point x="1336" y="82"/>
      <point x="1336" y="246" type="curve" smooth="yes"/>
      <point x="1336" y="438"/>
      <point x="1191" y="575"/>
      <point x="981" y="575" type="curve" smooth="yes"/>
      <point x="795" y="575"/>
      <point x="661" y="455"/>
      <point x="661" y="263" type="curve" smooth="yes"/>
      <point x="661" y="167"/>
      <point x="688" y="115"/>
      <point x="713" y="73" type="curve"/>
      <point x="17" y="73" type="line"/>
      <point x="17" y="0" type="line"/>
      <point x="798" y="0" type="line"/>
      <point x="822" y="57" type="line"/>
      <point x="772" y="104"/>
      <point x="739" y="167"/>
      <point x="739" y="264" type="curve" smooth="yes"/>
      <point x="739" y="409"/>
      <point x="826" y="494"/>
      <point x="938" y="494" type="curve" smooth="yes"/>
      <point x="1060" y="494"/>
      <point x="1114" y="369"/>
      <point x="1114" y="237" type="curve" smooth="yes"/>
      <point x="1114" y="130"/>
      <point x="1091" y="74"/>
      <point x="1036" y="74" type="curve" smooth="yes"/>
      <point x="980" y="74"/>
      <point x="957" y="131"/>
      <point x="957" y="214" type="curve" smooth="yes"/>
      <point x="957" y="333"/>
      <point x="1018" y="430"/>
      <point x="1098" y="489" type="curve"/>
      <point x="1038" y="532" type="line"/>
      <point x="960" y="463"/>
      <point x="879" y="368"/>
      <point x="879" y="217" type="curve" smooth="yes"/>
      <point x="879" y="83"/>
      <point x="938" y="-8"/>
    </contour>
    <contour>
      <point x="360" y="43" type="line"/>
      <point x="488" y="41" type="line"/>
      <point x="539" y="79"/>
      <point x="574" y="119"/>
      <point x="574" y="205" type="curve" smooth="yes"/>
      <point x="574" y="305"/>
      <point x="486" y="379"/>
      <point x="344" y="379" type="curve" smooth="yes"/>
      <point x="186" y="379"/>
      <point x="121" y="295"/>
      <point x="121" y="223" type="curve" smooth="yes"/>
      <point x="121" y="175"/>
      <point x="141" y="141"/>
      <point x="191" y="141" type="curve" smooth="yes"/>
      <point x="196" y="141"/>
      <point x="204" y="142"/>
      <point x="208" y="144" type="curve"/>
      <point x="201" y="164"/>
      <point x="198" y="185"/>
      <point x="198" y="203" type="curve" smooth="yes"/>
      <point x="198" y="258"/>
      <point x="232" y="303"/>
      <point x="292" y="303" type="curve" smooth="yes"/>
      <point x="345" y="303"/>
      <point x="380" y="266"/>
      <point x="380" y="201" type="curve" smooth="yes"/>
      <point x="380" y="144"/>
      <point x="364" y="100"/>
      <point x="332" y="63" type="curve"/>
    </contour>
  </outline>
</glyph>
<glyph name="jamlym" format="2">
  <advance width="1113"/>
  <unicode hex="0D1C"/>
  <outline>
    <contour>
      <point x="268" y="-10" type="curve" smooth="yes"/>
      <point x="462" y="-10"/>
      <point x="608" y="57"/>
      <point x="731" y="119" type="curve"/>
      <point x="762" y="129" type="line"/>
      <point x="792" y="150"/>
      <point x="829" y="163"/>
      <point x="857" y="163" type="curve" smooth="yes"/>
      <point x="895" y="163"/>
      <point x="915" y="145"/>
      <point x="915" y="115" type="curve" smooth="yes"/>
      <point x="915" y="85"/>
      <point x="895" y="72"/>
      <point x="862" y="72" type="curve" smooth="yes"/>
      <point x="823" y="72"/>
      <point x="794" y="97"/>
      <point x="770" y="144" type="curve"/>
      <point x="696" y="107" type="line"/>
      <point x="735" y="51"/>
      <point x="782" y="-8"/>
      <point x="905" y="-8" type="curve" smooth="yes"/>
      <point x="1010" y="-8"/>
      <point x="1063" y="42"/>
      <point x="1063" y="108" type="curve" smooth="yes"/>
      <point x="1063" y="158"/>
      <point x="1033" y="218"/>
      <point x="914" y="218" type="curve" smooth="yes"/>
      <point x="873" y="218"/>
      <point x="837" y="205"/>
      <point x="801" y="192" type="curve"/>
      <point x="769" y="186"/>
      <point x="675" y="174"/>
      <point x="673" y="173" type="curve" smooth="yes"/>
      <point x="556" y="115"/>
      <point x="420" y="68"/>
      <point x="285" y="68" type="curve" smooth="yes"/>
      <point x="200" y="68"/>
      <point x="171" y="79"/>
      <point x="171" y="108" type="curve" smooth="yes"/>
      <point x="171" y="128"/>
      <point x="188" y="140"/>
      <point x="234" y="140" type="curve" smooth="yes"/>
      <point x="502" y="140" type="line" smooth="yes"/>
      <point x="596" y="140"/>
      <point x="682" y="146"/>
      <point x="734" y="157" type="curve"/>
      <point x="784" y="160"/>
      <point x="895" y="181"/>
      <point x="936" y="192" type="curve"/>
      <point x="1039" y="229"/>
      <point x="1075" y="291"/>
      <point x="1075" y="380" type="curve" smooth="yes"/>
      <point x="1075" y="495"/>
      <point x="996" y="575"/>
      <point x="845" y="575" type="curve" smooth="yes"/>
      <point x="714" y="575"/>
      <point x="645" y="520"/>
      <point x="596" y="426" type="curve"/>
      <point x="682" y="426" type="line"/>
      <point x="625" y="519"/>
      <point x="528" y="575"/>
      <point x="343" y="575" type="curve" smooth="yes"/>
      <point x="160" y="575"/>
      <point x="44" y="501"/>
      <point x="44" y="379" type="curve" smooth="yes"/>
      <point x="44" y="273"/>
      <point x="118" y="222"/>
      <point x="241" y="222" type="curve" smooth="yes"/>
      <point x="381" y="222"/>
      <point x="424" y="277"/>
      <point x="424" y="346" type="curve" smooth="yes"/>
      <point x="424" y="406"/>
      <point x="374" y="458"/>
      <point x="271" y="458" type="curve" smooth="yes"/>
      <point x="198" y="458"/>
      <point x="142" y="426"/>
      <point x="101" y="372" type="curve"/>
      <point x="119" y="322" type="line"/>
      <point x="152" y="363"/>
      <point x="188" y="388"/>
      <point x="231" y="388" type="curve" smooth="yes"/>
      <point x="271" y="388"/>
      <point x="289" y="368"/>
      <point x="289" y="340" type="curve" smooth="yes"/>
      <point x="289" y="305"/>
      <point x="263" y="290"/>
      <point x="216" y="290" type="curve" smooth="yes"/>
      <point x="159" y="290"/>
      <point x="118" y="313"/>
      <point x="118" y="375" type="curve" smooth="yes"/>
      <point x="118" y="453"/>
      <point x="185" y="500"/>
      <point x="303" y="500" type="curve" smooth="yes"/>
      <point x="434" y="500"/>
      <point x="484" y="437"/>
      <point x="484" y="336" type="curve" smooth="yes"/>
      <point x="484" y="244" type="line"/>
      <point x="694" y="244" type="line"/>
      <point x="694" y="380" type="line" smooth="yes"/>
      <point x="694" y="447"/>
      <point x="724" y="495"/>
      <point x="775" y="495" type="curve" smooth="yes"/>
      <point x="837" y="495"/>
      <point x="856" y="434"/>
      <point x="856" y="376" type="curve" smooth="yes"/>
      <point x="856" y="318"/>
      <point x="843" y="276"/>
      <point x="811" y="249" type="curve" smooth="yes"/>
      <point x="781" y="223"/>
      <point x="739" y="210"/>
      <point x="652" y="210" type="curve" smooth="yes"/>
      <point x="197" y="210" type="line" smooth="yes"/>
      <point x="89" y="210"/>
      <point x="38" y="170"/>
      <point x="38" y="105" type="curve" smooth="yes"/>
      <point x="38" y="32"/>
      <point x="89" y="-10"/>
    </contour>
  </outline>
</glyph>
<glyph name="jhamlym" format="2">
  <advance width="1717"/>
  <unicode hex="0D1D"/>
  <outline>
    <contour>
      <point x="201" y="-9" type="curve" smooth="yes"/>
      <point x="226" y="-9"/>
      <point x="239" y="0"/>
      <point x="250" y="15" type="curve"/>
      <point x="173" y="69"/>
      <point x="116" y="138"/>
      <point x="116" y="262" type="curve" smooth="yes"/>
      <point x="116" y="405"/>
      <point x="200" y="498"/>
      <point x="313" y="498" type="curve" smooth="yes"/>
      <point x="438" y="498"/>
      <point x="491" y="376"/>
      <point x="491" y="230" type="curve" smooth="yes"/>
      <point x="491" y="130"/>
      <point x="465" y="74"/>
      <point x="413" y="74" type="curve" smooth="yes"/>
      <point x="355" y="74"/>
      <point x="334" y="130"/>
      <point x="334" y="215" type="curve" smooth="yes"/>
      <point x="334" y="390"/>
      <point x="476" y="492"/>
      <point x="613" y="492" type="curve" smooth="yes"/>
      <point x="662" y="492"/>
      <point x="698" y="482"/>
      <point x="731" y="457" type="curve" smooth="yes"/>
      <point x="768" y="429"/>
      <point x="789" y="378"/>
      <point x="789" y="295" type="curve" smooth="yes"/>
      <point x="789" y="248" type="line" smooth="yes"/>
      <point x="789" y="66"/>
      <point x="886" y="-8"/>
      <point x="1034" y="-8" type="curve" smooth="yes"/>
      <point x="1156" y="-8"/>
      <point x="1214" y="47"/>
      <point x="1270" y="142" type="curve"/>
      <point x="1210" y="124" type="line"/>
      <point x="1244" y="38"/>
      <point x="1327" y="-8"/>
      <point x="1426" y="-8" type="curve" smooth="yes"/>
      <point x="1587" y="-8"/>
      <point x="1679" y="109"/>
      <point x="1679" y="282" type="curve" smooth="yes"/>
      <point x="1679" y="451"/>
      <point x="1585" y="575"/>
      <point x="1524" y="575" type="curve" smooth="yes"/>
      <point x="1494" y="575"/>
      <point x="1485" y="563"/>
      <point x="1475" y="550" type="curve"/>
      <point x="1555" y="478"/>
      <point x="1601" y="408"/>
      <point x="1601" y="279" type="curve" smooth="yes"/>
      <point x="1601" y="161"/>
      <point x="1547" y="74"/>
      <point x="1466" y="74" type="curve" smooth="yes"/>
      <point x="1402" y="74"/>
      <point x="1379" y="112"/>
      <point x="1379" y="196" type="curve" smooth="yes"/>
      <point x="1379" y="567" type="line"/>
      <point x="1166" y="567" type="line"/>
      <point x="1166" y="188" type="line" smooth="yes"/>
      <point x="1166" y="116"/>
      <point x="1139" y="74"/>
      <point x="1081" y="74" type="curve" smooth="yes"/>
      <point x="1038" y="74"/>
      <point x="1004" y="103"/>
      <point x="1004" y="197" type="curve" smooth="yes"/>
      <point x="1004" y="274" type="line" smooth="yes"/>
      <point x="1004" y="413"/>
      <point x="961" y="477"/>
      <point x="894" y="521" type="curve" smooth="yes"/>
      <point x="834" y="561"/>
      <point x="763" y="575"/>
      <point x="676" y="575" type="curve" smooth="yes"/>
      <point x="453" y="575"/>
      <point x="256" y="432"/>
      <point x="256" y="212" type="curve" smooth="yes"/>
      <point x="256" y="63"/>
      <point x="331" y="-8"/>
      <point x="460" y="-8" type="curve" smooth="yes"/>
      <point x="623" y="-8"/>
      <point x="702" y="77"/>
      <point x="702" y="238" type="curve" smooth="yes"/>
      <point x="702" y="437"/>
      <point x="527" y="575"/>
      <point x="336" y="575" type="curve" smooth="yes"/>
      <point x="170" y="575"/>
      <point x="38" y="460"/>
      <point x="38" y="258" type="curve" smooth="yes"/>
      <point x="38" y="96"/>
      <point x="131" y="-9"/>
    </contour>
  </outline>
</glyph>
<glyph name="nyamlym" format="2">
  <advance width="1628"/>
  <unicode hex="0D1E"/>
  <outline>
    <contour>
      <point x="247" y="-8" type="curve" smooth="yes"/>
      <point x="394" y="-8"/>
      <point x="447" y="62"/>
      <point x="447" y="160" type="curve" smooth="yes"/>
      <point x="447" y="250"/>
      <point x="395" y="330"/>
      <point x="270" y="330" type="curve" smooth="yes"/>
      <point x="175" y="330"/>
      <point x="116" y="273"/>
      <point x="79" y="215" type="curve"/>
      <point x="94" y="148" type="line"/>
      <point x="123" y="205"/>
      <point x="165" y="253"/>
      <point x="220" y="253" type="curve" smooth="yes"/>
      <point x="268" y="253"/>
      <point x="288" y="216"/>
      <point x="288" y="160" type="curve" smooth="yes"/>
      <point x="288" y="97"/>
      <point x="266" y="69"/>
      <point x="218" y="69" type="curve" smooth="yes"/>
      <point x="176" y="69"/>
      <point x="112" y="115"/>
      <point x="112" y="248" type="curve" smooth="yes"/>
      <point x="112" y="410"/>
      <point x="228" y="494"/>
      <point x="349" y="494" type="curve" smooth="yes"/>
      <point x="452" y="494"/>
      <point x="507" y="432"/>
      <point x="507" y="307" type="curve" smooth="yes"/>
      <point x="507" y="0" type="line"/>
      <point x="710" y="0" type="line"/>
      <point x="710" y="373" type="line"/>
      <point x="677" y="434" type="line"/>
      <point x="605" y="535"/>
      <point x="518" y="575"/>
      <point x="382" y="575" type="curve" smooth="yes"/>
      <point x="194" y="575"/>
      <point x="38" y="459"/>
      <point x="38" y="254" type="curve" smooth="yes"/>
      <point x="38" y="104"/>
      <point x="112" y="-8"/>
    </contour>
    <contour>
      <point x="904" y="575" type="curve" smooth="yes"/>
      <point x="778" y="575"/>
      <point x="685" y="507"/>
      <point x="627" y="409" type="curve"/>
      <point x="517" y="309" type="line"/>
      <point x="517" y="0" type="line"/>
      <point x="720" y="0" type="line"/>
      <point x="720" y="304" type="line" smooth="yes"/>
      <point x="720" y="417"/>
      <point x="773" y="498"/>
      <point x="870" y="498" type="curve" smooth="yes"/>
      <point x="987" y="498"/>
      <point x="1039" y="377"/>
      <point x="1039" y="230" type="curve" smooth="yes"/>
      <point x="1039" y="130"/>
      <point x="1013" y="74"/>
      <point x="961" y="74" type="curve" smooth="yes"/>
      <point x="903" y="74"/>
      <point x="882" y="130"/>
      <point x="882" y="215" type="curve" smooth="yes"/>
      <point x="882" y="390"/>
      <point x="1024" y="492"/>
      <point x="1165" y="492" type="curve" smooth="yes"/>
      <point x="1311" y="492"/>
      <point x="1368" y="380"/>
      <point x="1368" y="263" type="curve" smooth="yes"/>
      <point x="1368" y="165"/>
      <point x="1342" y="77"/>
      <point x="1272" y="10" type="curve"/>
      <point x="1280" y="0"/>
      <point x="1301" y="-8"/>
      <point x="1339" y="-8" type="curve" smooth="yes"/>
      <point x="1474" y="-8"/>
      <point x="1590" y="86"/>
      <point x="1590" y="279" type="curve" smooth="yes"/>
      <point x="1590" y="473"/>
      <point x="1445" y="575"/>
      <point x="1233" y="575" type="curve" smooth="yes"/>
      <point x="996" y="575"/>
      <point x="804" y="432"/>
      <point x="804" y="212" type="curve" smooth="yes"/>
      <point x="804" y="63"/>
      <point x="879" y="-8"/>
      <point x="1008" y="-8" type="curve" smooth="yes"/>
      <point x="1171" y="-8"/>
      <point x="1250" y="77"/>
      <point x="1250" y="238" type="curve" smooth="yes"/>
      <point x="1250" y="437"/>
      <point x="1087" y="575"/>
    </contour>
  </outline>
</glyph>
<glyph name="ttamlym" format="2">
  <advance width="627"/>
  <unicode hex="0D1F"/>
  <outline>
    <contour>
      <point x="303" y="-8" type="curve" smooth="yes"/>
      <point x="512" y="-8"/>
      <point x="597" y="72"/>
      <point x="597" y="180" type="curve" smooth="yes"/>
      <point x="597" y="310"/>
      <point x="506" y="365"/>
      <point x="337" y="374" type="curve" smooth="yes"/>
      <point x="250" y="379"/>
      <point x="220" y="398"/>
      <point x="220" y="438" type="curve" smooth="yes"/>
      <point x="220" y="485"/>
      <point x="266" y="498"/>
      <point x="337" y="498" type="curve" smooth="yes"/>
      <point x="422" y="498"/>
      <point x="491" y="476"/>
      <point x="564" y="439" type="curve"/>
      <point x="570" y="446"/>
      <point x="574" y="460"/>
      <point x="574" y="470" type="curve" smooth="yes"/>
      <point x="574" y="531"/>
      <point x="472" y="574"/>
      <point x="327" y="574" type="curve" smooth="yes"/>
      <point x="143" y="574"/>
      <point x="36" y="511"/>
      <point x="36" y="391" type="curve" smooth="yes"/>
      <point x="36" y="282"/>
      <point x="107" y="212"/>
      <point x="300" y="201" type="curve" smooth="yes"/>
      <point x="386" y="196"/>
      <point x="413" y="178"/>
      <point x="413" y="136" type="curve" smooth="yes"/>
      <point x="413" y="91"/>
      <point x="376" y="68"/>
      <point x="290" y="68" type="curve" smooth="yes"/>
      <point x="202" y="68"/>
      <point x="112" y="91"/>
      <point x="43" y="144" type="curve"/>
      <point x="32" y="133"/>
      <point x="29" y="120"/>
      <point x="29" y="106" type="curve" smooth="yes"/>
      <point x="29" y="46"/>
      <point x="121" y="-8"/>
    </contour>
  </outline>
</glyph>
<glyph name="tthamlym" format="2">
  <advance width="716"/>
  <unicode hex="0D20"/>
  <outline>
    <contour>
      <point x="343" y="-8" type="curve" smooth="yes"/>
      <point x="565" y="-8"/>
      <point x="680" y="106"/>
      <point x="680" y="282" type="curve" smooth="yes"/>
      <point x="680" y="461"/>
      <point x="557" y="575"/>
      <point x="347" y="575" type="curve" smooth="yes"/>
      <point x="126" y="575"/>
      <point x="36" y="428"/>
      <point x="36" y="282" type="curve" smooth="yes"/>
      <point x="36" y="138"/>
      <point x="121" y="-8"/>
    </contour>
    <contour>
      <point x="291" y="74" type="curve" smooth="yes"/>
      <point x="171" y="74"/>
      <point x="114" y="168"/>
      <point x="114" y="283" type="curve" smooth="yes"/>
      <point x="114" y="399"/>
      <point x="171" y="493"/>
      <point x="291" y="493" type="curve" smooth="yes"/>
      <point x="401" y="493"/>
      <point x="458" y="413"/>
      <point x="458" y="283" type="curve" smooth="yes"/>
      <point x="458" y="154"/>
      <point x="401" y="74"/>
    </contour>
  </outline>
</glyph>
<glyph name="ddamlym" format="2">
  <advance width="1261"/>
  <unicode hex="0D21"/>
  <outline>
    <contour>
      <point x="195" y="-8" type="curve" smooth="yes"/>
      <point x="222" y="-8"/>
      <point x="232" y="4"/>
      <point x="242" y="17" type="curve"/>
      <point x="162" y="90"/>
      <point x="116" y="159"/>
      <point x="116" y="287" type="curve" smooth="yes"/>
      <point x="116" y="422"/>
      <point x="169" y="493"/>
      <point x="237" y="493" type="curve" smooth="yes"/>
      <point x="293" y="493"/>
      <point x="328" y="458"/>
      <point x="328" y="368" type="curve" smooth="yes"/>
      <point x="328" y="248" type="line" smooth="yes"/>
      <point x="328" y="66"/>
      <point x="427" y="-8"/>
      <point x="577" y="-8" type="curve" smooth="yes"/>
      <point x="700" y="-8"/>
      <point x="758" y="47"/>
      <point x="814" y="142" type="curve"/>
      <point x="754" y="124" type="line"/>
      <point x="788" y="38"/>
      <point x="869" y="-8"/>
      <point x="968" y="-8" type="curve" smooth="yes"/>
      <point x="1129" y="-8"/>
      <point x="1223" y="109"/>
      <point x="1223" y="282" type="curve" smooth="yes"/>
      <point x="1223" y="451"/>
      <point x="1129" y="575"/>
      <point x="1068" y="575" type="curve" smooth="yes"/>
      <point x="1038" y="575"/>
      <point x="1029" y="563"/>
      <point x="1019" y="550" type="curve"/>
      <point x="1099" y="478"/>
      <point x="1145" y="408"/>
      <point x="1145" y="279" type="curve" smooth="yes"/>
      <point x="1145" y="161"/>
      <point x="1091" y="74"/>
      <point x="1010" y="74" type="curve" smooth="yes"/>
      <point x="946" y="74"/>
      <point x="923" y="112"/>
      <point x="923" y="196" type="curve" smooth="yes"/>
      <point x="923" y="567" type="line"/>
      <point x="710" y="567" type="line"/>
      <point x="710" y="188" type="line" smooth="yes"/>
      <point x="710" y="116"/>
      <point x="683" y="74"/>
      <point x="624" y="74" type="curve" smooth="yes"/>
      <point x="580" y="74"/>
      <point x="546" y="103"/>
      <point x="546" y="197" type="curve" smooth="yes"/>
      <point x="546" y="324" type="line" smooth="yes"/>
      <point x="546" y="497"/>
      <point x="442" y="575"/>
      <point x="289" y="575" type="curve" smooth="yes"/>
      <point x="128" y="575"/>
      <point x="38" y="471"/>
      <point x="38" y="286" type="curve" smooth="yes"/>
      <point x="38" y="118"/>
      <point x="132" y="-8"/>
    </contour>
  </outline>
</glyph>
<glyph name="ddhamlym" format="2">
  <advance width="1430"/>
  <unicode hex="0D22"/>
  <outline>
    <contour>
      <point x="195" y="-8" type="curve" smooth="yes"/>
      <point x="222" y="-8"/>
      <point x="232" y="4"/>
      <point x="242" y="17" type="curve"/>
      <point x="162" y="90"/>
      <point x="116" y="159"/>
      <point x="116" y="287" type="curve" smooth="yes"/>
      <point x="116" y="422"/>
      <point x="169" y="493"/>
      <point x="237" y="493" type="curve" smooth="yes"/>
      <point x="293" y="493"/>
      <point x="328" y="458"/>
      <point x="328" y="368" type="curve" smooth="yes"/>
      <point x="328" y="248" type="line" smooth="yes"/>
      <point x="328" y="66"/>
      <point x="427" y="-8"/>
      <point x="577" y="-8" type="curve" smooth="yes"/>
      <point x="700" y="-8"/>
      <point x="758" y="47"/>
      <point x="814" y="142" type="curve"/>
      <point x="913" y="196" type="line"/>
      <point x="913" y="567" type="line"/>
      <point x="710" y="567" type="line"/>
      <point x="710" y="188" type="line" smooth="yes"/>
      <point x="710" y="116"/>
      <point x="683" y="74"/>
      <point x="624" y="74" type="curve" smooth="yes"/>
      <point x="580" y="74"/>
      <point x="546" y="103"/>
      <point x="546" y="197" type="curve" smooth="yes"/>
      <point x="546" y="324" type="line" smooth="yes"/>
      <point x="546" y="497"/>
      <point x="442" y="575"/>
      <point x="289" y="575" type="curve" smooth="yes"/>
      <point x="128" y="575"/>
      <point x="38" y="471"/>
      <point x="38" y="286" type="curve" smooth="yes"/>
      <point x="38" y="118"/>
      <point x="132" y="-8"/>
    </contour>
    <contour>
      <point x="1175" y="575" type="curve" smooth="yes"/>
      <point x="1037" y="575"/>
      <point x="979" y="494"/>
      <point x="979" y="404" type="curve" smooth="yes"/>
      <point x="979" y="317"/>
      <point x="1026" y="237"/>
      <point x="1156" y="237" type="curve" smooth="yes"/>
      <point x="1251" y="237"/>
      <point x="1310" y="294"/>
      <point x="1347" y="352" type="curve"/>
      <point x="1332" y="419" type="line"/>
      <point x="1303" y="362"/>
      <point x="1261" y="314"/>
      <point x="1206" y="314" type="curve" smooth="yes"/>
      <point x="1158" y="314"/>
      <point x="1138" y="351"/>
      <point x="1138" y="403" type="curve" smooth="yes"/>
      <point x="1138" y="467"/>
      <point x="1162" y="498"/>
      <point x="1210" y="498" type="curve" smooth="yes"/>
      <point x="1256" y="498"/>
      <point x="1318" y="453"/>
      <point x="1318" y="319" type="curve" smooth="yes"/>
      <point x="1318" y="157"/>
      <point x="1218" y="73"/>
      <point x="1077" y="73" type="curve" smooth="yes"/>
      <point x="978" y="73"/>
      <point x="923" y="121"/>
      <point x="923" y="248" type="curve" smooth="yes"/>
      <point x="923" y="567" type="line"/>
      <point x="730" y="567" type="line"/>
      <point x="730" y="194" type="line"/>
      <point x="748" y="133" type="line"/>
      <point x="820" y="27"/>
      <point x="910" y="-8"/>
      <point x="1054" y="-8" type="curve" smooth="yes"/>
      <point x="1251" y="-8"/>
      <point x="1392" y="108"/>
      <point x="1392" y="313" type="curve" smooth="yes"/>
      <point x="1392" y="469"/>
      <point x="1318" y="575"/>
    </contour>
  </outline>
</glyph>
<glyph name="nnamlym" format="2">
  <advance width="1579"/>
  <unicode hex="0D23"/>
  <outline>
    <contour>
      <point x="250" y="-8" type="curve" smooth="yes"/>
      <point x="389" y="-8"/>
      <point x="447" y="62"/>
      <point x="447" y="163" type="curve" smooth="yes"/>
      <point x="447" y="250"/>
      <point x="395" y="330"/>
      <point x="270" y="330" type="curve" smooth="yes"/>
      <point x="175" y="330"/>
      <point x="116" y="273"/>
      <point x="79" y="215" type="curve"/>
      <point x="94" y="148" type="line"/>
      <point x="123" y="205"/>
      <point x="165" y="253"/>
      <point x="220" y="253" type="curve" smooth="yes"/>
      <point x="268" y="253"/>
      <point x="288" y="216"/>
      <point x="288" y="160" type="curve" smooth="yes"/>
      <point x="288" y="97"/>
      <point x="266" y="69"/>
      <point x="218" y="69" type="curve" smooth="yes"/>
      <point x="176" y="69"/>
      <point x="112" y="115"/>
      <point x="112" y="248" type="curve" smooth="yes"/>
      <point x="112" y="410"/>
      <point x="228" y="494"/>
      <point x="349" y="494" type="curve" smooth="yes"/>
      <point x="452" y="494"/>
      <point x="507" y="432"/>
      <point x="507" y="307" type="curve" smooth="yes"/>
      <point x="507" y="0" type="line"/>
      <point x="721" y="0" type="line"/>
      <point x="721" y="373" type="line" smooth="yes"/>
      <point x="721" y="462"/>
      <point x="762" y="494"/>
      <point x="815" y="494" type="curve" smooth="yes"/>
      <point x="876" y="494"/>
      <point x="899" y="454"/>
      <point x="899" y="371" type="curve" smooth="yes"/>
      <point x="899" y="0" type="line"/>
      <point x="1112" y="0" type="line"/>
      <point x="1112" y="381" type="line" smooth="yes"/>
      <point x="1112" y="440"/>
      <point x="1139" y="493"/>
      <point x="1206" y="493" type="curve" smooth="yes"/>
      <point x="1282" y="493"/>
      <point x="1319" y="401"/>
      <point x="1319" y="272" type="curve" smooth="yes"/>
      <point x="1319" y="212"/>
      <point x="1307" y="91"/>
      <point x="1221" y="10" type="curve"/>
      <point x="1237" y="-1"/>
      <point x="1259" y="-8"/>
      <point x="1293" y="-8" type="curve" smooth="yes"/>
      <point x="1457" y="-8"/>
      <point x="1541" y="122"/>
      <point x="1541" y="280" type="curve" smooth="yes"/>
      <point x="1541" y="434"/>
      <point x="1459" y="575"/>
      <point x="1253" y="575" type="curve" smooth="yes"/>
      <point x="1126" y="575"/>
      <point x="1056" y="501"/>
      <point x="1009" y="417" type="curve"/>
      <point x="1063" y="443" type="line"/>
      <point x="1029" y="529"/>
      <point x="963" y="575"/>
      <point x="846" y="575" type="curve" smooth="yes"/>
      <point x="726" y="575"/>
      <point x="667" y="515"/>
      <point x="626" y="447" type="curve"/>
      <point x="677" y="434" type="line"/>
      <point x="605" y="535"/>
      <point x="518" y="575"/>
      <point x="382" y="575" type="curve" smooth="yes"/>
      <point x="194" y="575"/>
      <point x="38" y="459"/>
      <point x="38" y="254" type="curve" smooth="yes"/>
      <point x="38" y="104"/>
      <point x="110" y="-8"/>
    </contour>
  </outline>
</glyph>
<glyph name="tamlym" format="2">
  <advance width="1080"/>
  <unicode hex="0D24"/>
  <outline>
    <contour>
      <point x="201" y="-9" type="curve" smooth="yes"/>
      <point x="226" y="-9"/>
      <point x="239" y="0"/>
      <point x="250" y="15" type="curve"/>
      <point x="173" y="69"/>
      <point x="116" y="138"/>
      <point x="116" y="262" type="curve" smooth="yes"/>
      <point x="116" y="405"/>
      <point x="200" y="498"/>
      <point x="313" y="498" type="curve" smooth="yes"/>
      <point x="438" y="498"/>
      <point x="491" y="376"/>
      <point x="491" y="230" type="curve" smooth="yes"/>
      <point x="491" y="130"/>
      <point x="465" y="74"/>
      <point x="413" y="74" type="curve" smooth="yes"/>
      <point x="355" y="74"/>
      <point x="334" y="130"/>
      <point x="334" y="215" type="curve" smooth="yes"/>
      <point x="334" y="390"/>
      <point x="476" y="492"/>
      <point x="617" y="492" type="curve" smooth="yes"/>
      <point x="763" y="492"/>
      <point x="820" y="380"/>
      <point x="820" y="263" type="curve" smooth="yes"/>
      <point x="820" y="165"/>
      <point x="794" y="77"/>
      <point x="724" y="10" type="curve"/>
      <point x="732" y="0"/>
      <point x="753" y="-8"/>
      <point x="791" y="-8" type="curve" smooth="yes"/>
      <point x="926" y="-8"/>
      <point x="1042" y="86"/>
      <point x="1042" y="279" type="curve" smooth="yes"/>
      <point x="1042" y="473"/>
      <point x="898" y="575"/>
      <point x="684" y="575" type="curve" smooth="yes"/>
      <point x="448" y="575"/>
      <point x="256" y="432"/>
      <point x="256" y="212" type="curve" smooth="yes"/>
      <point x="256" y="63"/>
      <point x="331" y="-8"/>
      <point x="460" y="-8" type="curve" smooth="yes"/>
      <point x="623" y="-8"/>
      <point x="702" y="77"/>
      <point x="702" y="238" type="curve" smooth="yes"/>
      <point x="702" y="437"/>
      <point x="527" y="575"/>
      <point x="336" y="575" type="curve" smooth="yes"/>
      <point x="170" y="575"/>
      <point x="38" y="460"/>
      <point x="38" y="258" type="curve" smooth="yes"/>
      <point x="38" y="96"/>
      <point x="131" y="-9"/>
    </contour>
  </outline>
</glyph>
<glyph name="thamlym" format="2">
  <advance width="1029"/>
  <unicode hex="0D25"/>
  <outline>
    <contour>
      <point x="62" y="0" type="line"/>
      <point x="973" y="0" type="line"/>
      <point x="973" y="302" type="line" smooth="yes"/>
      <point x="973" y="500"/>
      <point x="858" y="575"/>
      <point x="709" y="575" type="curve" smooth="yes"/>
      <point x="558" y="575"/>
      <point x="425" y="500"/>
      <point x="425" y="318" type="curve" smooth="yes"/>
      <point x="425" y="73" type="line"/>
      <point x="277" y="73" type="line"/>
      <point x="277" y="567" type="line"/>
      <point x="62" y="567" type="line"/>
    </contour>
    <contour>
      <point x="637" y="73" type="line"/>
      <point x="637" y="329" type="line" smooth="yes"/>
      <point x="637" y="430"/>
      <point x="677" y="493"/>
      <point x="763" y="493" type="curve" smooth="yes"/>
      <point x="855" y="493"/>
      <point x="895" y="415"/>
      <point x="895" y="291" type="curve" smooth="yes"/>
      <point x="895" y="73" type="line"/>
    </contour>
  </outline>
</glyph>
<glyph name="damlym" format="2">
  <advance width="678"/>
  <unicode hex="0D26"/>
  <outline>
    <contour>
      <point x="152" y="-9" type="curve" smooth="yes"/>
      <point x="163" y="-9"/>
      <point x="175" y="-6"/>
      <point x="183" y="0" type="curve"/>
      <point x="140" y="76"/>
      <point x="120" y="144"/>
      <point x="120" y="239" type="curve" smooth="yes"/>
      <point x="120" y="368"/>
      <point x="184" y="493"/>
      <point x="318" y="493" type="curve" smooth="yes"/>
      <point x="380" y="493"/>
      <point x="424" y="467"/>
      <point x="424" y="402" type="curve" smooth="yes"/>
      <point x="424" y="346"/>
      <point x="386" y="319"/>
      <point x="321" y="319" type="curve" smooth="yes"/>
      <point x="282" y="319" type="line"/>
      <point x="282" y="249" type="line"/>
      <point x="318" y="249" type="line" smooth="yes"/>
      <point x="390" y="249"/>
      <point x="429" y="218"/>
      <point x="429" y="155" type="curve" smooth="yes"/>
      <point x="429" y="102"/>
      <point x="394" y="76"/>
      <point x="339" y="76" type="curve" smooth="yes"/>
      <point x="316" y="76"/>
      <point x="279" y="83"/>
      <point x="251" y="100" type="curve"/>
      <point x="248" y="95"/>
      <point x="245" y="87"/>
      <point x="245" y="74" type="curve" smooth="yes"/>
      <point x="245" y="40"/>
      <point x="280" y="-8"/>
      <point x="424" y="-8" type="curve" smooth="yes"/>
      <point x="581" y="-8"/>
      <point x="648" y="52"/>
      <point x="648" y="135" type="curve" smooth="yes"/>
      <point x="648" y="206"/>
      <point x="613" y="257"/>
      <point x="501" y="282" type="curve"/>
      <point x="501" y="286" type="line"/>
      <point x="602" y="302"/>
      <point x="641" y="348"/>
      <point x="641" y="417" type="curve" smooth="yes"/>
      <point x="641" y="510"/>
      <point x="552" y="575"/>
      <point x="382" y="575" type="curve" smooth="yes"/>
      <point x="146" y="575"/>
      <point x="42" y="420"/>
      <point x="42" y="239" type="curve" smooth="yes"/>
      <point x="42" y="111"/>
      <point x="79" y="-9"/>
    </contour>
  </outline>
</glyph>
<glyph name="dhamlym" format="2">
  <advance width="1018"/>
  <unicode hex="0D27"/>
  <outline>
    <contour>
      <point x="326" y="-8" type="curve" smooth="yes"/>
      <point x="452" y="-8"/>
      <point x="523" y="68"/>
      <point x="570" y="150" type="curve"/>
      <point x="511" y="124" type="line"/>
      <point x="545" y="38"/>
      <point x="626" y="-8"/>
      <point x="725" y="-8" type="curve" smooth="yes"/>
      <point x="883" y="-8"/>
      <point x="980" y="109"/>
      <point x="980" y="282" type="curve" smooth="yes"/>
      <point x="980" y="451"/>
      <point x="886" y="575"/>
      <point x="825" y="575" type="curve" smooth="yes"/>
      <point x="795" y="575"/>
      <point x="786" y="563"/>
      <point x="776" y="550" type="curve"/>
      <point x="856" y="478"/>
      <point x="902" y="408"/>
      <point x="902" y="279" type="curve" smooth="yes"/>
      <point x="902" y="161"/>
      <point x="846" y="74"/>
      <point x="767" y="74" type="curve" smooth="yes"/>
      <point x="703" y="74"/>
      <point x="680" y="112"/>
      <point x="680" y="196" type="curve" smooth="yes"/>
      <point x="680" y="567" type="line"/>
      <point x="467" y="567" type="line"/>
      <point x="467" y="186" type="line" smooth="yes"/>
      <point x="467" y="127"/>
      <point x="440" y="74"/>
      <point x="373" y="74" type="curve" smooth="yes"/>
      <point x="297" y="74"/>
      <point x="260" y="166"/>
      <point x="260" y="295" type="curve" smooth="yes"/>
      <point x="260" y="355"/>
      <point x="272" y="476"/>
      <point x="358" y="557" type="curve"/>
      <point x="342" y="568"/>
      <point x="325" y="575"/>
      <point x="291" y="575" type="curve" smooth="yes"/>
      <point x="123" y="575"/>
      <point x="38" y="445"/>
      <point x="38" y="287" type="curve" smooth="yes"/>
      <point x="38" y="133"/>
      <point x="121" y="-8"/>
    </contour>
  </outline>
</glyph>
<glyph name="namlym" format="2">
  <advance width="1018"/>
  <unicode hex="0D28"/>
  <guideline x="445" y="0" angle="180"/>
  <guideline x="445" y="0" angle="180"/>
  <outline>
    <contour>
      <point x="193" y="-10" type="curve" smooth="yes"/>
      <point x="223" y="-10"/>
      <point x="232" y="2"/>
      <point x="242" y="15" type="curve"/>
      <point x="162" y="88"/>
      <point x="116" y="159"/>
      <point x="116" y="288" type="curve" smooth="yes"/>
      <point x="116" y="405"/>
      <point x="172" y="493"/>
      <point x="251" y="493" type="curve" smooth="yes"/>
      <point x="315" y="493"/>
      <point x="338" y="455"/>
      <point x="338" y="373" type="curve" smooth="yes"/>
      <point x="338" y="0" type="line"/>
      <point x="551" y="0" type="line"/>
      <point x="551" y="383" type="line" smooth="yes"/>
      <point x="551" y="440"/>
      <point x="578" y="493"/>
      <point x="645" y="493" type="curve" smooth="yes"/>
      <point x="721" y="493"/>
      <point x="758" y="401"/>
      <point x="758" y="272" type="curve" smooth="yes"/>
      <point x="758" y="212"/>
      <point x="746" y="91"/>
      <point x="660" y="10" type="curve"/>
      <point x="676" y="-1"/>
      <point x="693" y="-8"/>
      <point x="727" y="-8" type="curve" smooth="yes"/>
      <point x="895" y="-8"/>
      <point x="980" y="122"/>
      <point x="980" y="280" type="curve" smooth="yes"/>
      <point x="980" y="435"/>
      <point x="897" y="575"/>
      <point x="699" y="575" type="curve" smooth="yes"/>
      <point x="566" y="575"/>
      <point x="495" y="499"/>
      <point x="448" y="417" type="curve"/>
      <point x="507" y="443" type="line"/>
      <point x="473" y="529"/>
      <point x="392" y="575"/>
      <point x="293" y="575" type="curve" smooth="yes"/>
      <point x="135" y="575"/>
      <point x="38" y="457"/>
      <point x="38" y="285" type="curve" smooth="yes"/>
      <point x="38" y="116"/>
      <point x="132" y="-10"/>
    </contour>
  </outline>
</glyph>
<glyph name="pamlym" format="2">
  <advance width="1008"/>
  <unicode hex="0D2A"/>
  <outline>
    <contour>
      <point x="144" y="-8" type="curve" smooth="yes"/>
      <point x="169" y="-8"/>
      <point x="175" y="-2"/>
      <point x="183" y="14" type="curve"/>
      <point x="140" y="42"/>
      <point x="105" y="90"/>
      <point x="105" y="167" type="curve" smooth="yes"/>
      <point x="105" y="239"/>
      <point x="146" y="288"/>
      <point x="206" y="288" type="curve" smooth="yes"/>
      <point x="264" y="288"/>
      <point x="298" y="247"/>
      <point x="298" y="173" type="curve" smooth="yes"/>
      <point x="298" y="99"/>
      <point x="276" y="57"/>
      <point x="243" y="17" type="curve"/>
      <point x="253" y="0" type="line"/>
      <point x="890" y="0" type="line"/>
      <point x="890" y="73" type="line"/>
      <point x="452" y="73" type="line"/>
      <point x="480" y="101"/>
      <point x="492" y="143"/>
      <point x="492" y="185" type="curve" smooth="yes"/>
      <point x="492" y="285"/>
      <point x="400" y="364"/>
      <point x="255" y="364" type="curve" smooth="yes"/>
      <point x="106" y="364"/>
      <point x="28" y="280"/>
      <point x="28" y="167" type="curve" smooth="yes"/>
      <point x="28" y="67"/>
      <point x="90" y="-8"/>
    </contour>
    <contour>
      <point x="731" y="0" type="line"/>
      <point x="946" y="0" type="line"/>
      <point x="946" y="566" type="line"/>
      <point x="731" y="566" type="line"/>
    </contour>
  </outline>
</glyph>
<glyph name="phamlym" format="2">
  <advance width="1216"/>
  <unicode hex="0D2B"/>
  <outline>
    <contour>
      <point x="144" y="-8" type="curve" smooth="yes"/>
      <point x="169" y="-8"/>
      <point x="175" y="-2"/>
      <point x="183" y="14" type="curve"/>
      <point x="140" y="42"/>
      <point x="105" y="90"/>
      <point x="105" y="167" type="curve" smooth="yes"/>
      <point x="105" y="239"/>
      <point x="146" y="288"/>
      <point x="206" y="288" type="curve" smooth="yes"/>
      <point x="264" y="288"/>
      <point x="298" y="247"/>
      <point x="298" y="173" type="curve" smooth="yes"/>
      <point x="298" y="99"/>
      <point x="276" y="57"/>
      <point x="243" y="17" type="curve"/>
      <point x="253" y="0" type="line"/>
      <point x="712" y="0" type="line"/>
      <point x="712" y="73" type="line"/>
      <point x="452" y="73" type="line"/>
      <point x="480" y="101"/>
      <point x="492" y="143"/>
      <point x="492" y="185" type="curve" smooth="yes"/>
      <point x="492" y="285"/>
      <point x="400" y="364"/>
      <point x="255" y="364" type="curve" smooth="yes"/>
      <point x="106" y="364"/>
      <point x="28" y="280"/>
      <point x="28" y="167" type="curve" smooth="yes"/>
      <point x="28" y="67"/>
      <point x="90" y="-8"/>
    </contour>
    <contour>
      <point x="612" y="0" type="line"/>
      <point x="1160" y="0" type="line"/>
      <point x="1160" y="302" type="line" smooth="yes"/>
      <point x="1160" y="500"/>
      <point x="1045" y="575"/>
      <point x="896" y="575" type="curve" smooth="yes"/>
      <point x="745" y="575"/>
      <point x="612" y="500"/>
      <point x="612" y="318" type="curve" smooth="yes"/>
    </contour>
    <contour>
      <point x="824" y="73" type="line"/>
      <point x="824" y="329" type="line" smooth="yes"/>
      <point x="824" y="430"/>
      <point x="864" y="493"/>
      <point x="950" y="493" type="curve" smooth="yes"/>
      <point x="1042" y="493"/>
      <point x="1082" y="415"/>
      <point x="1082" y="291" type="curve" smooth="yes"/>
      <point x="1082" y="73" type="line"/>
    </contour>
  </outline>
</glyph>
<glyph name="bamlym" format="2">
  <advance width="1550"/>
  <unicode hex="0D2C"/>
  <outline>
    <contour>
      <point x="250" y="-8" type="curve" smooth="yes"/>
      <point x="389" y="-8"/>
      <point x="447" y="62"/>
      <point x="447" y="163" type="curve" smooth="yes"/>
      <point x="447" y="250"/>
      <point x="395" y="330"/>
      <point x="270" y="330" type="curve" smooth="yes"/>
      <point x="175" y="330"/>
      <point x="116" y="273"/>
      <point x="79" y="215" type="curve"/>
      <point x="94" y="148" type="line"/>
      <point x="123" y="205"/>
      <point x="165" y="253"/>
      <point x="220" y="253" type="curve" smooth="yes"/>
      <point x="268" y="253"/>
      <point x="288" y="216"/>
      <point x="288" y="160" type="curve" smooth="yes"/>
      <point x="288" y="97"/>
      <point x="266" y="69"/>
      <point x="218" y="69" type="curve" smooth="yes"/>
      <point x="176" y="69"/>
      <point x="112" y="115"/>
      <point x="112" y="248" type="curve" smooth="yes"/>
      <point x="112" y="410"/>
      <point x="228" y="494"/>
      <point x="349" y="494" type="curve" smooth="yes"/>
      <point x="452" y="494"/>
      <point x="507" y="432"/>
      <point x="507" y="307" type="curve" smooth="yes"/>
      <point x="507" y="0" type="line"/>
      <point x="710" y="0" type="line"/>
      <point x="710" y="373" type="line"/>
      <point x="677" y="434" type="line"/>
      <point x="605" y="535"/>
      <point x="518" y="575"/>
      <point x="382" y="575" type="curve" smooth="yes"/>
      <point x="194" y="575"/>
      <point x="38" y="459"/>
      <point x="38" y="254" type="curve" smooth="yes"/>
      <point x="38" y="104"/>
      <point x="110" y="-8"/>
    </contour>
    <contour>
      <point x="868" y="575" type="curve" smooth="yes"/>
      <point x="735" y="575"/>
      <point x="664" y="499"/>
      <point x="617" y="417" type="curve"/>
      <point x="516" y="307" type="line"/>
      <point x="516" y="0" type="line"/>
      <point x="720" y="0" type="line"/>
      <point x="720" y="383" type="line" smooth="yes"/>
      <point x="720" y="440"/>
      <point x="747" y="493"/>
      <point x="814" y="493" type="curve" smooth="yes"/>
      <point x="890" y="493"/>
      <point x="927" y="402"/>
      <point x="927" y="280" type="curve" smooth="yes"/>
      <point x="927" y="196"/>
      <point x="909" y="97"/>
      <point x="848" y="25" type="curve"/>
      <point x="860" y="0" type="line"/>
      <point x="1488" y="0" type="line"/>
      <point x="1488" y="567" type="line"/>
      <point x="1273" y="567" type="line"/>
      <point x="1273" y="73" type="line"/>
      <point x="1050" y="73" type="line"/>
      <point x="1065" y="58" type="line"/>
      <point x="1115" y="109"/>
      <point x="1146" y="182"/>
      <point x="1146" y="287" type="curve" smooth="yes"/>
      <point x="1146" y="434"/>
      <point x="1067" y="575"/>
    </contour>
  </outline>
</glyph>
<glyph name="bhamlym" format="2">
  <advance width="709"/>
  <unicode hex="0D2D"/>
  <outline>
    <contour>
      <point x="152" y="-9" type="curve" smooth="yes"/>
      <point x="163" y="-9"/>
      <point x="175" y="-6"/>
      <point x="183" y="0" type="curve"/>
      <point x="140" y="76"/>
      <point x="120" y="144"/>
      <point x="120" y="239" type="curve" smooth="yes"/>
      <point x="120" y="383"/>
      <point x="193" y="493"/>
      <point x="347" y="493" type="curve" smooth="yes"/>
      <point x="420" y="493"/>
      <point x="459" y="464"/>
      <point x="459" y="421" type="curve" smooth="yes"/>
      <point x="459" y="391"/>
      <point x="444" y="373"/>
      <point x="403" y="373" type="curve" smooth="yes"/>
      <point x="394" y="373"/>
      <point x="382" y="374"/>
      <point x="376" y="374" type="curve" smooth="yes"/>
      <point x="279" y="374"/>
      <point x="223" y="341"/>
      <point x="223" y="266" type="curve" smooth="yes"/>
      <point x="223" y="197"/>
      <point x="274" y="149"/>
      <point x="389" y="149" type="curve" smooth="yes"/>
      <point x="399" y="149" type="line" smooth="yes"/>
      <point x="439" y="149"/>
      <point x="462" y="139"/>
      <point x="462" y="111" type="curve" smooth="yes"/>
      <point x="462" y="84"/>
      <point x="443" y="67"/>
      <point x="385" y="67" type="curve" smooth="yes"/>
      <point x="322" y="67"/>
      <point x="271" y="85"/>
      <point x="228" y="109" type="curve"/>
      <point x="225" y="103"/>
      <point x="223" y="94"/>
      <point x="223" y="84" type="curve" smooth="yes"/>
      <point x="223" y="38"/>
      <point x="269" y="-8"/>
      <point x="444" y="-8" type="curve" smooth="yes"/>
      <point x="595" y="-8"/>
      <point x="672" y="41"/>
      <point x="672" y="125" type="curve" smooth="yes"/>
      <point x="672" y="193"/>
      <point x="627" y="240"/>
      <point x="511" y="240" type="curve" smooth="yes"/>
      <point x="499" y="240" type="line" smooth="yes"/>
      <point x="450" y="240"/>
      <point x="433" y="250"/>
      <point x="433" y="279" type="curve" smooth="yes"/>
      <point x="433" y="302"/>
      <point x="452" y="315"/>
      <point x="488" y="315" type="curve" smooth="yes"/>
      <point x="507" y="315"/>
      <point x="522" y="314"/>
      <point x="542" y="314" type="curve" smooth="yes"/>
      <point x="646" y="314"/>
      <point x="678" y="362"/>
      <point x="678" y="422" type="curve" smooth="yes"/>
      <point x="678" y="513"/>
      <point x="582" y="575"/>
      <point x="399" y="575" type="curve" smooth="yes"/>
      <point x="162" y="575"/>
      <point x="42" y="435"/>
      <point x="42" y="239" type="curve" smooth="yes"/>
      <point x="42" y="111"/>
      <point x="79" y="-9"/>
    </contour>
  </outline>
</glyph>
<glyph name="mamlym" format="2">
  <advance width="755"/>
  <unicode hex="0D2E"/>
  <outline>
    <contour>
      <point x="56" y="0" type="line"/>
      <point x="699" y="0" type="line"/>
      <point x="699" y="287" type="line" smooth="yes"/>
      <point x="699" y="483"/>
      <point x="547" y="575"/>
      <point x="383" y="575" type="curve" smooth="yes"/>
      <point x="205" y="575"/>
      <point x="56" y="483"/>
      <point x="56" y="289" type="curve" smooth="yes"/>
    </contour>
    <contour>
      <point x="252" y="38" type="line"/>
      <point x="456" y="116"/>
      <point x="525" y="227"/>
      <point x="525" y="330" type="curve" smooth="yes"/>
      <point x="525" y="441"/>
      <point x="435" y="507"/>
      <point x="325" y="507" type="curve" smooth="yes"/>
      <point x="251" y="507"/>
      <point x="216" y="495"/>
      <point x="185" y="479" type="curve"/>
      <point x="196" y="461" type="line"/>
      <point x="226" y="486"/>
      <point x="275" y="508"/>
      <point x="364" y="508" type="curve" smooth="yes"/>
      <point x="485" y="508"/>
      <point x="588" y="456"/>
      <point x="588" y="280" type="curve" smooth="yes"/>
      <point x="588" y="72" type="line"/>
      <point x="130" y="72" type="line"/>
      <point x="130" y="287" type="line" smooth="yes"/>
      <point x="130" y="398"/>
      <point x="174" y="451"/>
      <point x="232" y="451" type="curve" smooth="yes"/>
      <point x="281" y="451"/>
      <point x="312" y="421"/>
      <point x="312" y="359" type="curve" smooth="yes"/>
      <point x="312" y="241"/>
      <point x="218" y="138"/>
      <point x="114" y="63" type="curve"/>
    </contour>
  </outline>
</glyph>
<glyph name="yamlym" format="2">
  <advance width="1093"/>
  <unicode hex="0D2F"/>
  <outline>
    <contour>
      <point x="348" y="-8" type="curve" smooth="yes"/>
      <point x="560" y="-8"/>
      <point x="714" y="145"/>
      <point x="714" y="327" type="curve" smooth="yes"/>
      <point x="714" y="494"/>
      <point x="615" y="575"/>
      <point x="480" y="575" type="curve" smooth="yes"/>
      <point x="347" y="575"/>
      <point x="261" y="490"/>
      <point x="261" y="352" type="curve" smooth="yes"/>
      <point x="261" y="127"/>
      <point x="454" y="-8"/>
      <point x="675" y="-8" type="curve" smooth="yes"/>
      <point x="890" y="-8"/>
      <point x="1055" y="75"/>
      <point x="1055" y="285" type="curve" smooth="yes"/>
      <point x="1055" y="480"/>
      <point x="937" y="575"/>
      <point x="804" y="575" type="curve" smooth="yes"/>
      <point x="766" y="575"/>
      <point x="745" y="566"/>
      <point x="737" y="556" type="curve"/>
      <point x="807" y="489"/>
      <point x="833" y="401"/>
      <point x="833" y="300" type="curve" smooth="yes"/>
      <point x="833" y="164"/>
      <point x="763" y="75"/>
      <point x="633" y="75" type="curve" smooth="yes"/>
      <point x="477" y="75"/>
      <point x="339" y="171"/>
      <point x="339" y="349" type="curve" smooth="yes"/>
      <point x="339" y="447"/>
      <point x="377" y="493"/>
      <point x="422" y="493" type="curve" smooth="yes"/>
      <point x="471" y="493"/>
      <point x="504" y="444"/>
      <point x="504" y="337" type="curve" smooth="yes"/>
      <point x="504" y="205"/>
      <point x="458" y="70"/>
      <point x="318" y="70" type="curve" smooth="yes"/>
      <point x="208" y="70"/>
      <point x="116" y="153"/>
      <point x="116" y="328" type="curve" smooth="yes"/>
      <point x="116" y="415"/>
      <point x="155" y="493"/>
      <point x="257" y="493" type="curve" smooth="yes"/>
      <point x="302" y="493"/>
      <point x="328" y="475"/>
      <point x="346" y="455" type="curve"/>
      <point x="403" y="525" type="line"/>
      <point x="363" y="558"/>
      <point x="323" y="575"/>
      <point x="262" y="575" type="curve" smooth="yes"/>
      <point x="118" y="575"/>
      <point x="38" y="470"/>
      <point x="38" y="329" type="curve" smooth="yes"/>
      <point x="38" y="120"/>
      <point x="149" y="-8"/>
    </contour>
  </outline>
</glyph>
<glyph name="ramlym" format="2">
  <advance width="750"/>
  <unicode hex="0D30"/>
  <outline>
    <contour>
      <point x="203" y="-9" type="curve" smooth="yes"/>
      <point x="231" y="-9"/>
      <point x="241" y="3"/>
      <point x="251" y="16" type="curve"/>
      <point x="166" y="68"/>
      <point x="116" y="150"/>
      <point x="116" y="264" type="curve" smooth="yes"/>
      <point x="116" y="409"/>
      <point x="203" y="495"/>
      <point x="315" y="495" type="curve" smooth="yes"/>
      <point x="437" y="495"/>
      <point x="491" y="370"/>
      <point x="491" y="237" type="curve" smooth="yes"/>
      <point x="491" y="130"/>
      <point x="468" y="74"/>
      <point x="413" y="74" type="curve" smooth="yes"/>
      <point x="357" y="74"/>
      <point x="334" y="129"/>
      <point x="334" y="212" type="curve" smooth="yes"/>
      <point x="334" y="332"/>
      <point x="395" y="430"/>
      <point x="475" y="489" type="curve"/>
      <point x="415" y="532" type="line"/>
      <point x="337" y="463"/>
      <point x="256" y="368"/>
      <point x="256" y="213" type="curve" smooth="yes"/>
      <point x="256" y="79"/>
      <point x="315" y="-8"/>
      <point x="463" y="-8" type="curve" smooth="yes"/>
      <point x="612" y="-8"/>
      <point x="713" y="82"/>
      <point x="713" y="246" type="curve" smooth="yes"/>
      <point x="713" y="438"/>
      <point x="568" y="575"/>
      <point x="358" y="575" type="curve" smooth="yes"/>
      <point x="172" y="575"/>
      <point x="38" y="455"/>
      <point x="38" y="263" type="curve" smooth="yes"/>
      <point x="38" y="96"/>
      <point x="129" y="-9"/>
    </contour>
  </outline>
</glyph>
<glyph name="rramlym" format="2">
  <advance width="718"/>
  <unicode hex="0D31"/>
  <outline>
    <contour>
      <point x="203" y="-8" type="curve" smooth="yes"/>
      <point x="231" y="-8"/>
      <point x="242" y="3"/>
      <point x="252" y="16" type="curve"/>
      <point x="169" y="67"/>
      <point x="116" y="157"/>
      <point x="116" y="265" type="curve" smooth="yes"/>
      <point x="116" y="426"/>
      <point x="211" y="492"/>
      <point x="293" y="492" type="curve" smooth="yes"/>
      <point x="417" y="492"/>
      <point x="458" y="381"/>
      <point x="458" y="265" type="curve" smooth="yes"/>
      <point x="458" y="171"/>
      <point x="433" y="77"/>
      <point x="363" y="10" type="curve"/>
      <point x="371" y="0"/>
      <point x="397" y="-8"/>
      <point x="429" y="-8" type="curve" smooth="yes"/>
      <point x="568" y="-8"/>
      <point x="680" y="86"/>
      <point x="680" y="260" type="curve" smooth="yes"/>
      <point x="680" y="427"/>
      <point x="572" y="575"/>
      <point x="344" y="575" type="curve" smooth="yes"/>
      <point x="169" y="575"/>
      <point x="38" y="458"/>
      <point x="38" y="265" type="curve" smooth="yes"/>
      <point x="38" y="109"/>
      <point x="129" y="-8"/>
    </contour>
  </outline>
</glyph>
<glyph name="lamlym" format="2">
  <advance width="944"/>
  <unicode hex="0D32"/>
  <outline>
    <contour>
      <point x="58" y="0" type="line"/>
      <point x="882" y="0" type="line"/>
      <point x="882" y="567" type="line"/>
      <point x="667" y="567" type="line"/>
      <point x="667" y="73" type="line"/>
      <point x="269" y="73" type="line"/>
      <point x="269" y="343" type="line" smooth="yes"/>
      <point x="269" y="464"/>
      <point x="308" y="496"/>
      <point x="367" y="496" type="curve" smooth="yes"/>
      <point x="445" y="496"/>
      <point x="482" y="438"/>
      <point x="482" y="340" type="curve" smooth="yes"/>
      <point x="482" y="290" type="line"/>
      <point x="180" y="290" type="line"/>
      <point x="180" y="218" type="line"/>
      <point x="560" y="218" type="line"/>
      <point x="560" y="347" type="line" smooth="yes"/>
      <point x="560" y="483"/>
      <point x="484" y="575"/>
      <point x="322" y="575" type="curve" smooth="yes"/>
      <point x="189" y="575"/>
      <point x="58" y="502"/>
      <point x="58" y="333" type="curve" smooth="yes"/>
    </contour>
  </outline>
</glyph>
<glyph name="llamlym" format="2">
  <advance width="778"/>
  <unicode hex="0D33"/>
  <outline>
    <contour>
      <point x="247" y="-201" type="curve" smooth="yes"/>
      <point x="737" y="-201" type="line"/>
      <point x="737" y="-93" type="line"/>
      <point x="232" y="-93" type="line" smooth="yes"/>
      <point x="177" y="-93"/>
      <point x="150" y="-79"/>
      <point x="150" y="-47" type="curve" smooth="yes"/>
      <point x="150" y="-8"/>
      <point x="185" y="0"/>
      <point x="228" y="0" type="curve" smooth="yes"/>
      <point x="521" y="0" type="line" smooth="yes"/>
      <point x="693" y="0"/>
      <point x="748" y="64"/>
      <point x="748" y="144" type="curve" smooth="yes"/>
      <point x="748" y="206"/>
      <point x="711" y="259"/>
      <point x="601" y="282" type="curve"/>
      <point x="601" y="286" type="line"/>
      <point x="702" y="302"/>
      <point x="741" y="346"/>
      <point x="741" y="415" type="curve" smooth="yes"/>
      <point x="741" y="533"/>
      <point x="589" y="575"/>
      <point x="420" y="575" type="curve" smooth="yes"/>
      <point x="186" y="575"/>
      <point x="40" y="481"/>
      <point x="40" y="307" type="curve" smooth="yes"/>
      <point x="40" y="181"/>
      <point x="119" y="103"/>
      <point x="239" y="103" type="curve" smooth="yes"/>
      <point x="369" y="103"/>
      <point x="424" y="169"/>
      <point x="424" y="261" type="curve" smooth="yes"/>
      <point x="424" y="347"/>
      <point x="364" y="413"/>
      <point x="265" y="413" type="curve" smooth="yes"/>
      <point x="196" y="413"/>
      <point x="143" y="381"/>
      <point x="106" y="334" type="curve"/>
      <point x="106" y="263" type="line"/>
      <point x="137" y="309"/>
      <point x="169" y="339"/>
      <point x="212" y="339" type="curve" smooth="yes"/>
      <point x="261" y="339"/>
      <point x="273" y="293"/>
      <point x="273" y="256" type="curve" smooth="yes"/>
      <point x="273" y="202"/>
      <point x="253" y="179"/>
      <point x="209" y="179" type="curve" smooth="yes"/>
      <point x="154" y="179"/>
      <point x="113" y="226"/>
      <point x="113" y="303" type="curve" smooth="yes"/>
      <point x="113" y="431"/>
      <point x="211" y="493"/>
      <point x="359" y="493" type="curve" smooth="yes"/>
      <point x="465" y="493"/>
      <point x="524" y="464"/>
      <point x="524" y="398" type="curve" smooth="yes"/>
      <point x="524" y="346"/>
      <point x="493" y="323"/>
      <point x="450" y="319" type="curve"/>
      <point x="450" y="249" type="line"/>
      <point x="489" y="244"/>
      <point x="529" y="225"/>
      <point x="529" y="163" type="curve" smooth="yes"/>
      <point x="529" y="106"/>
      <point x="500" y="73"/>
      <point x="399" y="73" type="curve" smooth="yes"/>
      <point x="225" y="73" type="line" smooth="yes"/>
      <point x="118" y="73"/>
      <point x="49" y="28"/>
      <point x="49" y="-63" type="curve" smooth="yes"/>
      <point x="49" y="-165"/>
      <point x="124" y="-201"/>
    </contour>
  </outline>
</glyph>
<glyph name="lllamlym" format="2">
  <advance width="770"/>
  <unicode hex="0D34"/>
  <outline>
    <contour>
      <point x="401" y="-8" type="curve" smooth="yes"/>
      <point x="543" y="-8"/>
      <point x="613" y="64"/>
      <point x="613" y="154" type="curve" smooth="yes"/>
      <point x="613" y="212"/>
      <point x="594" y="256"/>
      <point x="568" y="311" type="curve" smooth="yes"/>
      <point x="543" y="365"/>
      <point x="532" y="392"/>
      <point x="532" y="429" type="curve" smooth="yes"/>
      <point x="532" y="461"/>
      <point x="548" y="496"/>
      <point x="597" y="496" type="curve" smooth="yes"/>
      <point x="641" y="496"/>
      <point x="662" y="466"/>
      <point x="662" y="418" type="curve" smooth="yes"/>
      <point x="662" y="326"/>
      <point x="589" y="262"/>
      <point x="432" y="262" type="curve" smooth="yes"/>
      <point x="279" y="262"/>
      <point x="226" y="328"/>
      <point x="226" y="421" type="curve" smooth="yes"/>
      <point x="226" y="486"/>
      <point x="247" y="532"/>
      <point x="278" y="567" type="curve"/>
      <point x="266" y="572"/>
      <point x="253" y="575"/>
      <point x="234" y="575" type="curve" smooth="yes"/>
      <point x="120" y="575"/>
      <point x="32" y="507"/>
      <point x="32" y="406" type="curve" smooth="yes"/>
      <point x="32" y="281"/>
      <point x="138" y="193"/>
      <point x="398" y="193" type="curve" smooth="yes"/>
      <point x="612" y="193"/>
      <point x="740" y="281"/>
      <point x="740" y="417" type="curve" smooth="yes"/>
      <point x="740" y="521"/>
      <point x="656" y="575"/>
      <point x="529" y="575" type="curve" smooth="yes"/>
      <point x="396" y="575"/>
      <point x="318" y="510"/>
      <point x="318" y="408" type="curve" smooth="yes"/>
      <point x="318" y="354"/>
      <point x="336" y="313"/>
      <point x="364" y="261" type="curve"/>
      <point x="388" y="217"/>
      <point x="399" y="187"/>
      <point x="399" y="144" type="curve" smooth="yes"/>
      <point x="399" y="111"/>
      <point x="381" y="85"/>
      <point x="317" y="85" type="curve" smooth="yes"/>
      <point x="279" y="85"/>
      <point x="238" y="95"/>
      <point x="214" y="111" type="curve"/>
      <point x="210" y="104"/>
      <point x="209" y="95"/>
      <point x="209" y="88" type="curve" smooth="yes"/>
      <point x="209" y="52"/>
      <point x="233" y="-8"/>
    </contour>
  </outline>
</glyph>
<glyph name="shamlym" format="2">
  <advance width="1123"/>
  <unicode hex="0D36"/>
  <outline>
    <contour>
      <point x="288" y="-8" type="curve" smooth="yes"/>
      <point x="439" y="-8"/>
      <point x="546" y="70"/>
      <point x="546" y="251" type="curve" smooth="yes"/>
      <point x="546" y="325" type="line" smooth="yes"/>
      <point x="546" y="438"/>
      <point x="588" y="505"/>
      <point x="686" y="505" type="curve" smooth="yes"/>
      <point x="812" y="505"/>
      <point x="864" y="386"/>
      <point x="864" y="237" type="curve" smooth="yes"/>
      <point x="864" y="130"/>
      <point x="841" y="74"/>
      <point x="786" y="74" type="curve" smooth="yes"/>
      <point x="730" y="74"/>
      <point x="707" y="129"/>
      <point x="707" y="212" type="curve" smooth="yes"/>
      <point x="707" y="332"/>
      <point x="768" y="430"/>
      <point x="848" y="489" type="curve"/>
      <point x="788" y="532" type="line"/>
      <point x="710" y="463"/>
      <point x="629" y="368"/>
      <point x="629" y="213" type="curve" smooth="yes"/>
      <point x="629" y="79"/>
      <point x="690" y="-8"/>
      <point x="839" y="-8" type="curve" smooth="yes"/>
      <point x="987" y="-8"/>
      <point x="1086" y="82"/>
      <point x="1086" y="246" type="curve" smooth="yes"/>
      <point x="1086" y="417"/>
      <point x="967" y="575"/>
      <point x="685" y="575" type="curve" smooth="yes"/>
      <point x="465" y="575"/>
      <point x="326" y="480"/>
      <point x="326" y="277" type="curve" smooth="yes"/>
      <point x="326" y="199" type="line" smooth="yes"/>
      <point x="326" y="109"/>
      <point x="290" y="74"/>
      <point x="236" y="74" type="curve" smooth="yes"/>
      <point x="167" y="74"/>
      <point x="116" y="145"/>
      <point x="116" y="279" type="curve" smooth="yes"/>
      <point x="116" y="408"/>
      <point x="162" y="477"/>
      <point x="242" y="550" type="curve"/>
      <point x="232" y="563"/>
      <point x="222" y="575"/>
      <point x="193" y="575" type="curve" smooth="yes"/>
      <point x="132" y="575"/>
      <point x="38" y="449"/>
      <point x="38" y="281" type="curve" smooth="yes"/>
      <point x="38" y="92"/>
      <point x="127" y="-8"/>
    </contour>
  </outline>
</glyph>
<glyph name="ssamlym" format="2">
  <advance width="1323"/>
  <unicode hex="0D37"/>
  <outline>
    <contour>
      <point x="144" y="-8" type="curve" smooth="yes"/>
      <point x="169" y="-8"/>
      <point x="175" y="-2"/>
      <point x="183" y="14" type="curve"/>
      <point x="140" y="42"/>
      <point x="105" y="90"/>
      <point x="105" y="167" type="curve" smooth="yes"/>
      <point x="105" y="239"/>
      <point x="146" y="288"/>
      <point x="206" y="288" type="curve" smooth="yes"/>
      <point x="264" y="288"/>
      <point x="298" y="247"/>
      <point x="298" y="173" type="curve" smooth="yes"/>
      <point x="298" y="99"/>
      <point x="276" y="57"/>
      <point x="243" y="17" type="curve"/>
      <point x="253" y="0" type="line"/>
      <point x="787" y="0" type="line"/>
      <point x="787" y="73" type="line"/>
      <point x="452" y="73" type="line"/>
      <point x="477" y="101"/>
      <point x="492" y="143"/>
      <point x="492" y="185" type="curve" smooth="yes"/>
      <point x="492" y="285"/>
      <point x="400" y="364"/>
      <point x="255" y="364" type="curve" smooth="yes"/>
      <point x="106" y="364"/>
      <point x="28" y="280"/>
      <point x="28" y="167" type="curve" smooth="yes"/>
      <point x="28" y="67"/>
      <point x="90" y="-8"/>
    </contour>
    <contour>
      <point x="671" y="0" type="line"/>
      <point x="1261" y="0" type="line"/>
      <point x="1261" y="561" type="line"/>
      <point x="1133" y="572" type="line"/>
      <point x="1057" y="430"/>
      <point x="965" y="300"/>
      <point x="771" y="300" type="curve" smooth="yes"/>
      <point x="625" y="300"/>
      <point x="570" y="346"/>
      <point x="570" y="424" type="curve" smooth="yes"/>
      <point x="570" y="463"/>
      <point x="589" y="493"/>
      <point x="625" y="493" type="curve" smooth="yes"/>
      <point x="652" y="493"/>
      <point x="671" y="473"/>
      <point x="671" y="420" type="curve" smooth="yes"/>
    </contour>
    <contour>
      <point x="883" y="73" type="line"/>
      <point x="883" y="380" type="line" smooth="yes"/>
      <point x="883" y="532"/>
      <point x="787" y="575"/>
      <point x="679" y="575" type="curve" smooth="yes"/>
      <point x="554" y="575"/>
      <point x="493" y="503"/>
      <point x="493" y="418" type="curve" smooth="yes"/>
      <point x="493" y="302"/>
      <point x="594" y="228"/>
      <point x="760" y="228" type="curve" smooth="yes"/>
      <point x="981" y="228"/>
      <point x="1076" y="330"/>
      <point x="1130" y="455" type="curve"/>
      <point x="1056" y="395" type="line"/>
      <point x="1051" y="353"/>
      <point x="1050" y="285"/>
      <point x="1050" y="240" type="curve" smooth="yes"/>
      <point x="1050" y="73" type="line"/>
    </contour>
  </outline>
</glyph>
<glyph name="samlym" format="2">
  <advance width="1261"/>
  <unicode hex="0D38"/>
  <outline>
    <contour>
      <point x="1066" y="575" type="curve" smooth="yes"/>
      <point x="1039" y="575"/>
      <point x="1029" y="563"/>
      <point x="1019" y="550" type="curve"/>
      <point x="1099" y="477"/>
      <point x="1145" y="408"/>
      <point x="1145" y="280" type="curve" smooth="yes"/>
      <point x="1145" y="145"/>
      <point x="1092" y="74"/>
      <point x="1024" y="74" type="curve" smooth="yes"/>
      <point x="968" y="74"/>
      <point x="933" y="109"/>
      <point x="933" y="199" type="curve" smooth="yes"/>
      <point x="933" y="319" type="line" smooth="yes"/>
      <point x="933" y="501"/>
      <point x="834" y="575"/>
      <point x="684" y="575" type="curve" smooth="yes"/>
      <point x="561" y="575"/>
      <point x="503" y="520"/>
      <point x="447" y="425" type="curve"/>
      <point x="507" y="443" type="line"/>
      <point x="473" y="529"/>
      <point x="392" y="575"/>
      <point x="293" y="575" type="curve" smooth="yes"/>
      <point x="132" y="575"/>
      <point x="38" y="458"/>
      <point x="38" y="285" type="curve" smooth="yes"/>
      <point x="38" y="116"/>
      <point x="132" y="-8"/>
      <point x="193" y="-8" type="curve" smooth="yes"/>
      <point x="223" y="-8"/>
      <point x="232" y="4"/>
      <point x="242" y="17" type="curve"/>
      <point x="162" y="89"/>
      <point x="116" y="159"/>
      <point x="116" y="288" type="curve" smooth="yes"/>
      <point x="116" y="406"/>
      <point x="170" y="493"/>
      <point x="251" y="493" type="curve" smooth="yes"/>
      <point x="315" y="493"/>
      <point x="338" y="455"/>
      <point x="338" y="371" type="curve" smooth="yes"/>
      <point x="338" y="0" type="line"/>
      <point x="551" y="0" type="line"/>
      <point x="551" y="379" type="line" smooth="yes"/>
      <point x="551" y="451"/>
      <point x="578" y="493"/>
      <point x="637" y="493" type="curve" smooth="yes"/>
      <point x="681" y="493"/>
      <point x="715" y="464"/>
      <point x="715" y="370" type="curve" smooth="yes"/>
      <point x="715" y="243" type="line" smooth="yes"/>
      <point x="715" y="70"/>
      <point x="819" y="-8"/>
      <point x="972" y="-8" type="curve" smooth="yes"/>
      <point x="1133" y="-8"/>
      <point x="1223" y="96"/>
      <point x="1223" y="281" type="curve" smooth="yes"/>
      <point x="1223" y="449"/>
      <point x="1129" y="575"/>
    </contour>
  </outline>
</glyph>
<glyph name="hamlym" format="2">
  <advance width="1265"/>
  <unicode hex="0D39"/>
  <outline>
    <contour>
      <point x="975" y="-8" type="curve" smooth="yes"/>
      <point x="1115" y="-8"/>
      <point x="1227" y="86"/>
      <point x="1227" y="260" type="curve" smooth="yes"/>
      <point x="1227" y="427"/>
      <point x="1119" y="575"/>
      <point x="899" y="575" type="curve" smooth="yes"/>
      <point x="722" y="575"/>
      <point x="595" y="456"/>
      <point x="595" y="265" type="curve" smooth="yes"/>
      <point x="595" y="185"/>
      <point x="622" y="100"/>
      <point x="663" y="58" type="curve"/>
      <point x="676" y="73" type="line"/>
      <point x="452" y="73" type="line"/>
      <point x="480" y="101"/>
      <point x="492" y="143"/>
      <point x="492" y="185" type="curve" smooth="yes"/>
      <point x="492" y="285"/>
      <point x="400" y="364"/>
      <point x="255" y="364" type="curve" smooth="yes"/>
      <point x="106" y="364"/>
      <point x="28" y="280"/>
      <point x="28" y="167" type="curve" smooth="yes"/>
      <point x="28" y="67"/>
      <point x="90" y="-8"/>
      <point x="144" y="-8" type="curve" smooth="yes"/>
      <point x="169" y="-8"/>
      <point x="175" y="-2"/>
      <point x="183" y="14" type="curve"/>
      <point x="140" y="42"/>
      <point x="105" y="90"/>
      <point x="105" y="167" type="curve" smooth="yes"/>
      <point x="105" y="239"/>
      <point x="146" y="288"/>
      <point x="206" y="288" type="curve" smooth="yes"/>
      <point x="264" y="288"/>
      <point x="298" y="247"/>
      <point x="298" y="173" type="curve" smooth="yes"/>
      <point x="298" y="99"/>
      <point x="276" y="57"/>
      <point x="243" y="17" type="curve"/>
      <point x="253" y="0" type="line"/>
      <point x="732" y="0" type="line"/>
      <point x="756" y="57" type="line"/>
      <point x="712" y="100"/>
      <point x="673" y="171"/>
      <point x="673" y="265" type="curve" smooth="yes"/>
      <point x="673" y="424"/>
      <point x="766" y="492"/>
      <point x="845" y="492" type="curve" smooth="yes"/>
      <point x="967" y="492"/>
      <point x="1005" y="381"/>
      <point x="1005" y="265" type="curve" smooth="yes"/>
      <point x="1005" y="171"/>
      <point x="980" y="77"/>
      <point x="910" y="10" type="curve"/>
      <point x="918" y="0"/>
      <point x="944" y="-8"/>
    </contour>
  </outline>
</glyph>
<glyph name="tttamlym" format="2">
  <advance width="824"/>
  <unicode hex="0D3A"/>
  <outline>
    <contour>
      <point x="42" y="0" type="line"/>
      <point x="807" y="0" type="line"/>
      <point x="807" y="74" type="line"/>
      <point x="251" y="74" type="line"/>
      <point x="417" y="504" type="line"/>
      <point x="215" y="569" type="line"/>
      <point x="21" y="46" type="line"/>
    </contour>
    <contour>
      <point x="348" y="-179" type="line"/>
      <point x="562" y="-179" type="line"/>
      <point x="562" y="56" type="line"/>
      <point x="348" y="56" type="line"/>
    </contour>
  </outline>
</glyph>
<glyph name="avagrahamlym" format="2">
  <advance width="419"/>
  <unicode hex="0D3D"/>
  <outline>
    <contour>
      <point x="89" y="-220" type="curve" smooth="yes"/>
      <point x="197" y="-220"/>
      <point x="313" y="-169"/>
      <point x="313" y="0" type="curve" smooth="yes"/>
      <point x="313" y="615" type="line" smooth="yes"/>
      <point x="313" y="684"/>
      <point x="337" y="713"/>
      <point x="392" y="713" type="curve" smooth="yes"/>
      <point x="419" y="713"/>
      <point x="435" y="708"/>
      <point x="463" y="696" type="curve"/>
      <point x="467" y="702"/>
      <point x="471" y="710"/>
      <point x="471" y="722" type="curve" smooth="yes"/>
      <point x="471" y="752"/>
      <point x="445" y="798"/>
      <point x="330" y="798" type="curve" smooth="yes"/>
      <point x="222" y="798"/>
      <point x="106" y="747"/>
      <point x="106" y="577" type="curve" smooth="yes"/>
      <point x="106" y="-38" type="line" smooth="yes"/>
      <point x="106" y="-106"/>
      <point x="82" y="-135"/>
      <point x="27" y="-135" type="curve" smooth="yes"/>
      <point x="0" y="-135"/>
      <point x="-16" y="-130"/>
      <point x="-44" y="-118" type="curve"/>
      <point x="-49" y="-124"/>
      <point x="-52" y="-134"/>
      <point x="-52" y="-144" type="curve" smooth="yes"/>
      <point x="-52" y="-174"/>
      <point x="-26" y="-220"/>
    </contour>
  </outline>
</glyph>
<glyph name="aavowelsignmlym" format="2">
  <advance width="562"/>
  <unicode hex="0D3E"/>
  <outline>
    <contour>
      <point x="247" y="-8" type="curve" smooth="yes"/>
      <point x="427" y="-8"/>
      <point x="524" y="97"/>
      <point x="524" y="291" type="curve" smooth="yes"/>
      <point x="524" y="460"/>
      <point x="427" y="575"/>
      <point x="254" y="575" type="curve" smooth="yes"/>
      <point x="102" y="575"/>
      <point x="26" y="476"/>
      <point x="26" y="398" type="curve" smooth="yes"/>
      <point x="26" y="364"/>
      <point x="47" y="353"/>
      <point x="76" y="353" type="curve"/>
      <point x="92" y="429"/>
      <point x="132" y="494"/>
      <point x="203" y="494" type="curve" smooth="yes"/>
      <point x="280" y="494"/>
      <point x="302" y="404"/>
      <point x="302" y="283" type="curve" smooth="yes"/>
      <point x="302" y="169"/>
      <point x="286" y="73"/>
      <point x="198" y="73" type="curve" smooth="yes"/>
      <point x="132" y="73"/>
      <point x="92" y="137"/>
      <point x="76" y="213" type="curve"/>
      <point x="45" y="213"/>
      <point x="26" y="199"/>
      <point x="26" y="167" type="curve" smooth="yes"/>
      <point x="26" y="91"/>
      <point x="102" y="-8"/>
    </contour>
  </outline>
</glyph>
<glyph name="ivowelsignmlym" format="2">
  <advance width="330"/>
  <unicode hex="0D3F"/>
  <outline>
    <contour>
      <point x="62" y="0" type="line"/>
      <point x="268" y="0" type="line"/>
      <point x="268" y="580" type="line" smooth="yes"/>
      <point x="268" y="770"/>
      <point x="155" y="850"/>
      <point x="-4" y="850" type="curve" smooth="yes"/>
      <point x="-137" y="850"/>
      <point x="-211" y="785"/>
      <point x="-211" y="697" type="curve" smooth="yes"/>
      <point x="-211" y="658"/>
      <point x="-194" y="624"/>
      <point x="-155" y="624" type="curve" smooth="yes"/>
      <point x="-141" y="624"/>
      <point x="-127" y="627"/>
      <point x="-120" y="631" type="curve"/>
      <point x="-125" y="644"/>
      <point x="-128" y="666"/>
      <point x="-128" y="690" type="curve" smooth="yes"/>
      <point x="-128" y="739"/>
      <point x="-96" y="772"/>
      <point x="-44" y="772" type="curve" smooth="yes"/>
      <point x="42" y="772"/>
      <point x="62" y="697"/>
      <point x="62" y="607" type="curve" smooth="yes"/>
    </contour>
  </outline>
</glyph>
<glyph name="iivowelsignmlym" format="2">
  <advance width="330"/>
  <unicode hex="0D40"/>
  <outline>
    <contour>
      <point x="62" y="0" type="line"/>
      <point x="268" y="0" type="line"/>
      <point x="268" y="565" type="line" smooth="yes"/>
      <point x="268" y="775"/>
      <point x="145" y="851"/>
      <point x="-32" y="851" type="curve" smooth="yes"/>
      <point x="-184" y="851"/>
      <point x="-266" y="790"/>
      <point x="-266" y="699" type="curve" smooth="yes"/>
      <point x="-266" y="622"/>
      <point x="-219" y="583"/>
      <point x="-126" y="583" type="curve" smooth="yes"/>
      <point x="-32" y="583"/>
      <point x="9" y="629"/>
      <point x="9" y="690" type="curve" smooth="yes"/>
      <point x="9" y="754"/>
      <point x="-40" y="794"/>
      <point x="-107" y="812" type="curve"/>
      <point x="-157" y="790" type="line"/>
      <point x="-104" y="768"/>
      <point x="-85" y="726"/>
      <point x="-85" y="701" type="curve" smooth="yes"/>
      <point x="-85" y="681"/>
      <point x="-93" y="654"/>
      <point x="-139" y="654" type="curve" smooth="yes"/>
      <point x="-178" y="654"/>
      <point x="-195" y="675"/>
      <point x="-195" y="706" type="curve" smooth="yes"/>
      <point x="-195" y="741"/>
      <point x="-154" y="780"/>
      <point x="-74" y="780" type="curve" smooth="yes"/>
      <point x="8" y="780"/>
      <point x="62" y="744"/>
      <point x="62" y="605" type="curve" smooth="yes"/>
    </contour>
  </outline>
</glyph>
<glyph name="uvowelsignmlym" format="2">
  <advance width="322"/>
  <unicode hex="0D41"/>
  <outline>
    <contour>
      <point x="151" y="-237" type="curve" smooth="yes"/>
      <point x="287" y="-237"/>
      <point x="340" y="-162"/>
      <point x="340" y="-76" type="curve" smooth="yes"/>
      <point x="340" y="15"/>
      <point x="281" y="87"/>
      <point x="170" y="135" type="curve"/>
      <point x="138" y="137" type="line"/>
      <point x="32" y="89"/>
      <point x="-35" y="17"/>
      <point x="-35" y="-73" type="curve" smooth="yes"/>
      <point x="-35" y="-164"/>
      <point x="24" y="-237"/>
    </contour>
    <contour>
      <point x="142" y="-162" type="curve" smooth="yes"/>
      <point x="72" y="-162"/>
      <point x="40" y="-118"/>
      <point x="40" y="-73" type="curve" smooth="yes"/>
      <point x="40" y="-4"/>
      <point x="94" y="38"/>
      <point x="160" y="74" type="curve"/>
      <point x="127" y="74" type="line"/>
      <point x="191" y="39"/>
      <point x="239" y="-8"/>
      <point x="239" y="-69" type="curve" smooth="yes"/>
      <point x="239" y="-132"/>
      <point x="206" y="-162"/>
    </contour>
    <contour>
      <point x="171" y="95" type="line"/>
      <point x="223" y="190"/>
      <point x="282" y="312"/>
      <point x="282" y="427" type="curve" smooth="yes"/>
      <point x="282" y="498"/>
      <point x="243" y="575"/>
      <point x="133" y="575" type="curve" smooth="yes"/>
      <point x="75" y="575"/>
      <point x="25" y="547"/>
      <point x="25" y="498" type="curve" smooth="yes"/>
      <point x="25" y="491"/>
      <point x="27" y="479"/>
      <point x="29" y="471" type="curve"/>
      <point x="43" y="476"/>
      <point x="60" y="478"/>
      <point x="75" y="478" type="curve" smooth="yes"/>
      <point x="123" y="478"/>
      <point x="155" y="458"/>
      <point x="155" y="384" type="curve" smooth="yes"/>
      <point x="155" y="305"/>
      <point x="145" y="217"/>
      <point x="106" y="103" type="curve"/>
    </contour>
  </outline>
</glyph>
<glyph name="uuvowelsignmlym" format="2">
  <advance width="322"/>
  <unicode hex="0D42"/>
  <outline>
    <contour>
      <point x="151" y="-237" type="curve" smooth="yes"/>
      <point x="286" y="-237"/>
      <point x="340" y="-162"/>
      <point x="340" y="-76" type="curve" smooth="yes"/>
      <point x="340" y="15"/>
      <point x="280" y="87"/>
      <point x="170" y="135" type="curve"/>
      <point x="138" y="137" type="line"/>
      <point x="33" y="89"/>
      <point x="-35" y="17"/>
      <point x="-35" y="-73" type="curve" smooth="yes"/>
      <point x="-35" y="-164"/>
      <point x="25" y="-237"/>
    </contour>
    <contour>
      <point x="149" y="-164" type="curve" smooth="yes"/>
      <point x="60" y="-164"/>
      <point x="30" y="-112"/>
      <point x="30" y="-65" type="curve" smooth="yes"/>
      <point x="30" y="-14"/>
      <point x="49" y="20"/>
      <point x="80" y="45" type="curve"/>
      <point x="68" y="48" type="line"/>
      <point x="53" y="29"/>
      <point x="39" y="6"/>
      <point x="39" y="-19" type="curve" smooth="yes"/>
      <point x="39" y="-89"/>
      <point x="97" y="-110"/>
      <point x="147" y="-110" type="curve" smooth="yes"/>
      <point x="203" y="-110"/>
      <point x="259" y="-84"/>
      <point x="259" y="-19" type="curve" smooth="yes"/>
      <point x="259" y="9"/>
      <point x="244" y="31"/>
      <point x="228" y="51" type="curve"/>
      <point x="215" y="49" type="line"/>
      <point x="248" y="21"/>
      <point x="268" y="-11"/>
      <point x="268" y="-63" type="curve" smooth="yes"/>
      <point x="268" y="-130"/>
      <point x="218" y="-164"/>
    </contour>
    <contour>
      <point x="149" y="-47" type="curve" smooth="yes"/>
      <point x="105" y="-47"/>
      <point x="91" y="-27"/>
      <point x="91" y="0" type="curve" smooth="yes"/>
      <point x="91" y="29"/>
      <point x="113" y="62"/>
      <point x="170" y="93" type="curve"/>
      <point x="128" y="93" type="line"/>
      <point x="182" y="66"/>
      <point x="207" y="29"/>
      <point x="207" y="0" type="curve" smooth="yes"/>
      <point x="207" y="-28"/>
      <point x="191" y="-47"/>
    </contour>
    <contour>
      <point x="171" y="95" type="line"/>
      <point x="223" y="190"/>
      <point x="282" y="312"/>
      <point x="282" y="427" type="curve" smooth="yes"/>
      <point x="282" y="498"/>
      <point x="243" y="575"/>
      <point x="133" y="575" type="curve" smooth="yes"/>
      <point x="75" y="575"/>
      <point x="25" y="547"/>
      <point x="25" y="498" type="curve" smooth="yes"/>
      <point x="25" y="491"/>
      <point x="27" y="479"/>
      <point x="29" y="471" type="curve"/>
      <point x="43" y="476"/>
      <point x="60" y="478"/>
      <point x="75" y="478" type="curve" smooth="yes"/>
      <point x="123" y="478"/>
      <point x="155" y="458"/>
      <point x="155" y="384" type="curve" smooth="yes"/>
      <point x="155" y="305"/>
      <point x="145" y="217"/>
      <point x="106" y="103" type="curve"/>
    </contour>
  </outline>
</glyph>
<glyph name="rvocalicvowelsignmlym" format="2">
  <advance width="316"/>
  <unicode hex="0D43"/>
  <outline>
    <contour>
      <point x="97" y="-317" type="curve" smooth="yes"/>
      <point x="231" y="-317"/>
      <point x="318" y="-243"/>
      <point x="318" y="-106" type="curve" smooth="yes"/>
      <point x="318" y="-21"/>
      <point x="305" y="42"/>
      <point x="274" y="148" type="curve" smooth="yes"/>
      <point x="251" y="228"/>
      <point x="232" y="299"/>
      <point x="232" y="385" type="curve" smooth="yes"/>
      <point x="232" y="477"/>
      <point x="252" y="531"/>
      <point x="272" y="563" type="curve"/>
      <point x="254" y="568"/>
      <point x="227" y="572"/>
      <point x="199" y="572" type="curve" smooth="yes"/>
      <point x="89" y="572"/>
      <point x="24" y="501"/>
      <point x="24" y="398" type="curve" smooth="yes"/>
      <point x="24" y="322"/>
      <point x="51" y="244"/>
      <point x="123" y="126" type="curve" smooth="yes"/>
      <point x="201" y="-1"/>
      <point x="227" y="-57"/>
      <point x="227" y="-124" type="curve" smooth="yes"/>
      <point x="227" y="-180"/>
      <point x="204" y="-245"/>
      <point x="96" y="-245" type="curve" smooth="yes"/>
      <point x="4" y="-245"/>
      <point x="-33" y="-214"/>
      <point x="-33" y="-160" type="curve" smooth="yes"/>
      <point x="-33" y="-118"/>
      <point x="-2" y="-98"/>
      <point x="38" y="-98" type="curve" smooth="yes"/>
      <point x="85" y="-98"/>
      <point x="110" y="-129"/>
      <point x="110" y="-173" type="curve" smooth="yes"/>
      <point x="110" y="-215"/>
      <point x="95" y="-238"/>
      <point x="70" y="-271" type="curve"/>
      <point x="130" y="-286" type="line"/>
      <point x="161" y="-252"/>
      <point x="186" y="-210"/>
      <point x="186" y="-148" type="curve" smooth="yes"/>
      <point x="186" y="-74"/>
      <point x="137" y="-16"/>
      <point x="38" y="-16" type="curve" smooth="yes"/>
      <point x="-52" y="-16"/>
      <point x="-112" y="-71"/>
      <point x="-112" y="-158" type="curve" smooth="yes"/>
      <point x="-112" y="-262"/>
      <point x="-32" y="-317"/>
    </contour>
  </outline>
</glyph>
<glyph name="rrvocalicvowelsignmlym" format="2">
  <advance width="316"/>
  <unicode hex="0D44"/>
  <outline>
    <contour>
      <point x="46" y="-317" type="curve" smooth="yes"/>
      <point x="232" y="-317"/>
      <point x="318" y="-243"/>
      <point x="318" y="-106" type="curve" smooth="yes"/>
      <point x="318" y="-20"/>
      <point x="305" y="42"/>
      <point x="274" y="148" type="curve" smooth="yes"/>
      <point x="251" y="228"/>
      <point x="232" y="299"/>
      <point x="232" y="385" type="curve" smooth="yes"/>
      <point x="232" y="477"/>
      <point x="252" y="531"/>
      <point x="272" y="563" type="curve"/>
      <point x="254" y="568"/>
      <point x="227" y="572"/>
      <point x="199" y="572" type="curve" smooth="yes"/>
      <point x="89" y="572"/>
      <point x="25" y="501"/>
      <point x="25" y="398" type="curve" smooth="yes"/>
      <point x="25" y="322"/>
      <point x="51" y="243"/>
      <point x="123" y="126" type="curve" smooth="yes"/>
      <point x="201" y="-1"/>
      <point x="227" y="-57"/>
      <point x="227" y="-124" type="curve" smooth="yes"/>
      <point x="227" y="-180"/>
      <point x="211" y="-245"/>
      <point x="53" y="-245" type="curve" smooth="yes"/>
      <point x="-59" y="-245"/>
      <point x="-110" y="-211"/>
      <point x="-110" y="-143" type="curve" smooth="yes"/>
      <point x="-110" y="-106"/>
      <point x="-93" y="-85"/>
      <point x="-66" y="-85" type="curve" smooth="yes"/>
      <point x="-40" y="-85"/>
      <point x="-30" y="-100"/>
      <point x="-30" y="-136" type="curve" smooth="yes"/>
      <point x="-30" y="-213" type="line"/>
      <point x="45" y="-213" type="line"/>
      <point x="45" y="-134" type="line" smooth="yes"/>
      <point x="45" y="-102"/>
      <point x="58" y="-86"/>
      <point x="83" y="-86" type="curve" smooth="yes"/>
      <point x="107" y="-86"/>
      <point x="121" y="-106"/>
      <point x="121" y="-137" type="curve" smooth="yes"/>
      <point x="121" y="-171"/>
      <point x="111" y="-193"/>
      <point x="101" y="-208" type="curve"/>
      <point x="108" y="-216"/>
      <point x="119" y="-218"/>
      <point x="128" y="-218" type="curve" smooth="yes"/>
      <point x="186" y="-218"/>
      <point x="201" y="-161"/>
      <point x="201" y="-123" type="curve" smooth="yes"/>
      <point x="201" y="-59"/>
      <point x="162" y="-21"/>
      <point x="101" y="-21" type="curve" smooth="yes"/>
      <point x="55" y="-21"/>
      <point x="20" y="-40"/>
      <point x="-3" y="-94" type="curve"/>
      <point x="22" y="-86" type="line"/>
      <point x="7" y="-43"/>
      <point x="-25" y="-21"/>
      <point x="-71" y="-21" type="curve" smooth="yes"/>
      <point x="-150" y="-21"/>
      <point x="-188" y="-78"/>
      <point x="-188" y="-137" type="curve" smooth="yes"/>
      <point x="-188" y="-283"/>
      <point x="-55" y="-317"/>
    </contour>
  </outline>
</glyph>
<glyph name="evowelsignmlym" format="2">
  <advance width="781"/>
  <unicode hex="0D46"/>
  <outline>
    <contour>
      <point x="250" y="-8" type="curve" smooth="yes"/>
      <point x="389" y="-8"/>
      <point x="447" y="62"/>
      <point x="447" y="163" type="curve" smooth="yes"/>
      <point x="447" y="250"/>
      <point x="395" y="330"/>
      <point x="270" y="330" type="curve" smooth="yes"/>
      <point x="175" y="330"/>
      <point x="116" y="273"/>
      <point x="79" y="215" type="curve"/>
      <point x="94" y="148" type="line"/>
      <point x="123" y="205"/>
      <point x="165" y="253"/>
      <point x="220" y="253" type="curve" smooth="yes"/>
      <point x="268" y="253"/>
      <point x="288" y="216"/>
      <point x="288" y="160" type="curve" smooth="yes"/>
      <point x="288" y="97"/>
      <point x="266" y="69"/>
      <point x="218" y="69" type="curve" smooth="yes"/>
      <point x="176" y="69"/>
      <point x="112" y="115"/>
      <point x="112" y="243" type="curve" smooth="yes"/>
      <point x="112" y="412"/>
      <point x="223" y="492"/>
      <point x="334" y="492" type="curve" smooth="yes"/>
      <point x="466" y="492"/>
      <point x="521" y="398"/>
      <point x="521" y="265" type="curve" smooth="yes"/>
      <point x="521" y="156"/>
      <point x="491" y="74"/>
      <point x="441" y="7" type="curve"/>
      <point x="449" y="-1"/>
      <point x="464" y="-8"/>
      <point x="496" y="-8" type="curve" smooth="yes"/>
      <point x="626" y="-8"/>
      <point x="743" y="86"/>
      <point x="743" y="260" type="curve" smooth="yes"/>
      <point x="743" y="428"/>
      <point x="624" y="575"/>
      <point x="384" y="575" type="curve" smooth="yes"/>
      <point x="193" y="575"/>
      <point x="38" y="461"/>
      <point x="38" y="250" type="curve" smooth="yes"/>
      <point x="38" y="104"/>
      <point x="110" y="-8"/>
    </contour>
  </outline>
</glyph>
<glyph name="eevowelsignmlym" format="2">
  <advance width="657"/>
  <unicode hex="0D47"/>
  <outline>
    <contour>
      <point x="398" y="-8" type="curve" smooth="yes"/>
      <point x="572" y="-8"/>
      <point x="626" y="72"/>
      <point x="626" y="151" type="curve" smooth="yes"/>
      <point x="626" y="215"/>
      <point x="583" y="267"/>
      <point x="486" y="267" type="curve" smooth="yes"/>
      <point x="391" y="267"/>
      <point x="352" y="215"/>
      <point x="352" y="158" type="curve" smooth="yes"/>
      <point x="352" y="115"/>
      <point x="380" y="66"/>
      <point x="434" y="46" type="curve"/>
      <point x="495" y="55" type="line"/>
      <point x="451" y="76"/>
      <point x="427" y="106"/>
      <point x="427" y="144" type="curve" smooth="yes"/>
      <point x="427" y="171"/>
      <point x="444" y="195"/>
      <point x="486" y="195" type="curve" smooth="yes"/>
      <point x="531" y="195"/>
      <point x="545" y="171"/>
      <point x="545" y="144" type="curve" smooth="yes"/>
      <point x="545" y="106"/>
      <point x="512" y="66"/>
      <point x="437" y="66" type="curve" smooth="yes"/>
      <point x="296" y="66"/>
      <point x="247" y="165"/>
      <point x="247" y="283" type="curve" smooth="yes"/>
      <point x="247" y="392"/>
      <point x="295" y="501"/>
      <point x="436" y="501" type="curve" smooth="yes"/>
      <point x="505" y="501"/>
      <point x="545" y="460"/>
      <point x="545" y="412" type="curve" smooth="yes"/>
      <point x="545" y="379"/>
      <point x="531" y="361"/>
      <point x="486" y="361" type="curve" smooth="yes"/>
      <point x="444" y="361"/>
      <point x="427" y="378"/>
      <point x="427" y="412" type="curve" smooth="yes"/>
      <point x="427" y="440"/>
      <point x="443" y="476"/>
      <point x="495" y="500" type="curve"/>
      <point x="428" y="511" type="line"/>
      <point x="373" y="490"/>
      <point x="352" y="441"/>
      <point x="352" y="402" type="curve" smooth="yes"/>
      <point x="352" y="346"/>
      <point x="391" y="289"/>
      <point x="486" y="289" type="curve" smooth="yes"/>
      <point x="584" y="289"/>
      <point x="626" y="346"/>
      <point x="626" y="409" type="curve" smooth="yes"/>
      <point x="626" y="490"/>
      <point x="563" y="575"/>
      <point x="386" y="575" type="curve" smooth="yes"/>
      <point x="160" y="575"/>
      <point x="37" y="460"/>
      <point x="37" y="280" type="curve" smooth="yes"/>
      <point x="37" y="99"/>
      <point x="149" y="-8"/>
    </contour>
  </outline>
</glyph>
<glyph name="viramamlym" format="2">
  <unicode hex="0D4D"/>
  <outline>
    <contour>
      <point x="-143" y="607" type="curve" smooth="yes"/>
      <point x="-13" y="607"/>
      <point x="43" y="661"/>
      <point x="43" y="734" type="curve" smooth="yes"/>
      <point x="43" y="769"/>
      <point x="29" y="815"/>
      <point x="-23" y="815" type="curve" smooth="yes"/>
      <point x="-29" y="815"/>
      <point x="-45" y="813"/>
      <point x="-51" y="810" type="curve"/>
      <point x="-44" y="796"/>
      <point x="-41" y="771"/>
      <point x="-41" y="755" type="curve" smooth="yes"/>
      <point x="-41" y="700"/>
      <point x="-80" y="680"/>
      <point x="-125" y="680" type="curve" smooth="yes"/>
      <point x="-177" y="680"/>
      <point x="-213" y="700"/>
      <point x="-213" y="759" type="curve" smooth="yes"/>
      <point x="-213" y="776"/>
      <point x="-209" y="797"/>
      <point x="-204" y="811" type="curve"/>
      <point x="-212" y="814"/>
      <point x="-238" y="817"/>
      <point x="-253" y="817" type="curve" smooth="yes"/>
      <point x="-320" y="817"/>
      <point x="-362" y="777"/>
      <point x="-362" y="728" type="curve" smooth="yes"/>
      <point x="-362" y="671"/>
      <point x="-321" y="607"/>
    </contour>
  </outline>
</glyph>
<glyph name="rephmlym" format="2">
  <unicode hex="0D4E"/>
  <outline>
    <contour>
      <point x="-280" y="614" type="curve" smooth="yes"/>
      <point x="-246" y="614"/>
      <point x="-187" y="664"/>
      <point x="-187" y="735" type="curve" smooth="yes"/>
      <point x="-187" y="794"/>
      <point x="-219" y="828"/>
      <point x="-280" y="828" type="curve" smooth="yes"/>
      <point x="-337" y="828"/>
      <point x="-374" y="792"/>
      <point x="-374" y="735" type="curve" smooth="yes"/>
      <point x="-374" y="670"/>
      <point x="-320" y="614"/>
    </contour>
  </outline>
</glyph>
<glyph name="uni0D4F" format="2">
  <advance width="1356"/>
  <unicode hex="0D4F"/>
  <outline>
    <contour>
      <point x="680" y="307" type="line"/>
      <point x="680" y="0" type="line"/>
      <point x="884" y="0" type="line"/>
      <point x="884" y="383" type="line" smooth="yes"/>
      <point x="884" y="440"/>
      <point x="911" y="493"/>
      <point x="980" y="493" type="curve" smooth="yes"/>
      <point x="1054" y="493"/>
      <point x="1096" y="401"/>
      <point x="1096" y="268" type="curve" smooth="yes"/>
      <point x="1096" y="-11"/>
      <point x="908" y="-121"/>
      <point x="606" y="-121" type="curve" smooth="yes"/>
      <point x="349" y="-121"/>
      <point x="121" y="-19"/>
      <point x="121" y="243" type="curve" smooth="yes"/>
      <point x="121" y="394"/>
      <point x="181" y="487"/>
      <point x="249" y="557" type="curve"/>
      <point x="241" y="565"/>
      <point x="228" y="569"/>
      <point x="208" y="569" type="curve" smooth="yes"/>
      <point x="126" y="569"/>
      <point x="42" y="417"/>
      <point x="42" y="247" type="curve" smooth="yes"/>
      <point x="42" y="-64"/>
      <point x="290" y="-205"/>
      <point x="617" y="-205" type="curve" smooth="yes"/>
      <point x="1078" y="-205"/>
      <point x="1318" y="-44"/>
      <point x="1318" y="266" type="curve" smooth="yes"/>
      <point x="1318" y="436"/>
      <point x="1230" y="575"/>
      <point x="1034" y="575" type="curve" smooth="yes"/>
      <point x="899" y="575"/>
      <point x="828" y="499"/>
      <point x="781" y="417" type="curve"/>
    </contour>
    <contour>
      <point x="414" y="-8" type="curve" smooth="yes"/>
      <point x="553" y="-8"/>
      <point x="611" y="62"/>
      <point x="611" y="163" type="curve" smooth="yes"/>
      <point x="611" y="250"/>
      <point x="559" y="330"/>
      <point x="434" y="330" type="curve" smooth="yes"/>
      <point x="339" y="330"/>
      <point x="280" y="273"/>
      <point x="243" y="215" type="curve"/>
      <point x="258" y="148" type="line"/>
      <point x="287" y="205"/>
      <point x="329" y="253"/>
      <point x="384" y="253" type="curve" smooth="yes"/>
      <point x="432" y="253"/>
      <point x="452" y="216"/>
      <point x="452" y="160" type="curve" smooth="yes"/>
      <point x="452" y="97"/>
      <point x="430" y="69"/>
      <point x="382" y="69" type="curve" smooth="yes"/>
      <point x="340" y="69"/>
      <point x="276" y="115"/>
      <point x="276" y="248" type="curve" smooth="yes"/>
      <point x="276" y="410"/>
      <point x="392" y="494"/>
      <point x="513" y="494" type="curve" smooth="yes"/>
      <point x="616" y="494"/>
      <point x="671" y="432"/>
      <point x="671" y="307" type="curve" smooth="yes"/>
      <point x="671" y="0" type="line"/>
      <point x="874" y="0" type="line"/>
      <point x="874" y="373" type="line"/>
      <point x="841" y="434" type="line"/>
      <point x="769" y="535"/>
      <point x="682" y="575"/>
      <point x="546" y="575" type="curve" smooth="yes"/>
      <point x="358" y="575"/>
      <point x="202" y="459"/>
      <point x="202" y="254" type="curve" smooth="yes"/>
      <point x="202" y="104"/>
      <point x="274" y="-8"/>
    </contour>
  </outline>
</glyph>
<glyph name="machillumlym" format="2">
  <advance width="665"/>
  <unicode hex="0D54"/>
  <outline>
    <contour>
      <point x="56" y="0" type="line"/>
      <point x="648" y="0" type="line"/>
      <point x="648" y="74" type="line"/>
      <point x="331" y="259"/>
      <point x="267" y="308"/>
      <point x="267" y="393" type="curve" smooth="yes"/>
      <point x="267" y="436"/>
      <point x="280" y="472"/>
      <point x="306" y="532" type="curve" smooth="yes"/>
      <point x="327" y="580"/>
      <point x="348" y="630"/>
      <point x="348" y="697" type="curve" smooth="yes"/>
      <point x="348" y="778"/>
      <point x="282" y="827"/>
      <point x="203" y="827" type="curve" smooth="yes"/>
      <point x="111" y="827"/>
      <point x="79" y="779"/>
      <point x="79" y="747" type="curve" smooth="yes"/>
      <point x="79" y="739"/>
      <point x="81" y="728"/>
      <point x="83" y="722" type="curve"/>
      <point x="101" y="728"/>
      <point x="119" y="731"/>
      <point x="140" y="731" type="curve" smooth="yes"/>
      <point x="190" y="731"/>
      <point x="222" y="701"/>
      <point x="222" y="648" type="curve" smooth="yes"/>
      <point x="222" y="598"/>
      <point x="214" y="558"/>
      <point x="204" y="520" type="curve" smooth="yes"/>
      <point x="193" y="478"/>
      <point x="186" y="431"/>
      <point x="186" y="394" type="curve" smooth="yes"/>
      <point x="186" y="282"/>
      <point x="269" y="201"/>
      <point x="512" y="72" type="curve"/>
      <point x="130" y="72" type="line"/>
      <point x="130" y="292" type="line" smooth="yes"/>
      <point x="130" y="437"/>
      <point x="199" y="484"/>
      <point x="256" y="484" type="curve" smooth="yes"/>
      <point x="309" y="484"/>
      <point x="356" y="446"/>
      <point x="356" y="354" type="curve" smooth="yes"/>
      <point x="356" y="261"/>
      <point x="281" y="154"/>
      <point x="107" y="62" type="curve"/>
      <point x="230" y="48" type="line"/>
      <point x="463" y="120"/>
      <point x="569" y="218"/>
      <point x="569" y="361" type="curve" smooth="yes"/>
      <point x="569" y="459"/>
      <point x="486" y="557"/>
      <point x="314" y="557" type="curve" smooth="yes"/>
      <point x="177" y="557"/>
      <point x="56" y="493"/>
      <point x="56" y="287" type="curve" smooth="yes"/>
    </contour>
  </outline>
</glyph>
<glyph name="yachillumlym" format="2">
  <advance width="977"/>
  <unicode hex="0D55"/>
  <outline>
    <contour>
      <point x="631" y="-8" type="curve" smooth="yes"/>
      <point x="831" y="-8"/>
      <point x="936" y="105"/>
      <point x="936" y="278" type="curve" smooth="yes"/>
      <point x="936" y="349"/>
      <point x="918" y="416"/>
      <point x="892" y="484" type="curve" smooth="yes"/>
      <point x="872" y="537"/>
      <point x="854" y="588"/>
      <point x="854" y="647" type="curve" smooth="yes"/>
      <point x="854" y="701"/>
      <point x="886" y="731"/>
      <point x="935" y="731" type="curve" smooth="yes"/>
      <point x="957" y="731"/>
      <point x="975" y="728"/>
      <point x="993" y="722" type="curve"/>
      <point x="995" y="728"/>
      <point x="997" y="739"/>
      <point x="997" y="747" type="curve" smooth="yes"/>
      <point x="997" y="779"/>
      <point x="965" y="827"/>
      <point x="872" y="827" type="curve" smooth="yes"/>
      <point x="794" y="827"/>
      <point x="728" y="781"/>
      <point x="728" y="688" type="curve" smooth="yes"/>
      <point x="728" y="616"/>
      <point x="758" y="551"/>
      <point x="796" y="474" type="curve" smooth="yes"/>
      <point x="826" y="413"/>
      <point x="851" y="341"/>
      <point x="851" y="277" type="curve" smooth="yes"/>
      <point x="851" y="146"/>
      <point x="779" y="68"/>
      <point x="625" y="68" type="curve" smooth="yes"/>
      <point x="471" y="68"/>
      <point x="339" y="171"/>
      <point x="339" y="349" type="curve" smooth="yes"/>
      <point x="339" y="447"/>
      <point x="377" y="493"/>
      <point x="422" y="493" type="curve" smooth="yes"/>
      <point x="471" y="493"/>
      <point x="504" y="444"/>
      <point x="504" y="337" type="curve" smooth="yes"/>
      <point x="504" y="205"/>
      <point x="458" y="70"/>
      <point x="318" y="70" type="curve" smooth="yes"/>
      <point x="208" y="70"/>
      <point x="116" y="153"/>
      <point x="116" y="328" type="curve" smooth="yes"/>
      <point x="116" y="415"/>
      <point x="155" y="493"/>
      <point x="257" y="493" type="curve" smooth="yes"/>
      <point x="302" y="493"/>
      <point x="328" y="475"/>
      <point x="346" y="455" type="curve"/>
      <point x="403" y="525" type="line"/>
      <point x="363" y="558"/>
      <point x="323" y="575"/>
      <point x="262" y="575" type="curve" smooth="yes"/>
      <point x="118" y="575"/>
      <point x="38" y="470"/>
      <point x="38" y="329" type="curve" smooth="yes"/>
      <point x="38" y="120"/>
      <point x="149" y="-8"/>
      <point x="348" y="-8" type="curve" smooth="yes"/>
      <point x="564" y="-8"/>
      <point x="726" y="145"/>
      <point x="726" y="327" type="curve" smooth="yes"/>
      <point x="726" y="494"/>
      <point x="625" y="575"/>
      <point x="480" y="575" type="curve" smooth="yes"/>
      <point x="347" y="575"/>
      <point x="261" y="490"/>
      <point x="261" y="352" type="curve" smooth="yes"/>
      <point x="261" y="127"/>
      <point x="460" y="-8"/>
    </contour>
  </outline>
</glyph>
<glyph name="lllachillumlym" format="2">
  <advance width="800"/>
  <unicode hex="0D56"/>
  <outline>
    <contour>
      <point x="416" y="-8" type="curve" smooth="yes"/>
      <point x="548" y="-8"/>
      <point x="644" y="39"/>
      <point x="644" y="156" type="curve" smooth="yes"/>
      <point x="644" y="207"/>
      <point x="627" y="258"/>
      <point x="610" y="303" type="curve" smooth="yes"/>
      <point x="592" y="351"/>
      <point x="581" y="383"/>
      <point x="581" y="426" type="curve" smooth="yes"/>
      <point x="581" y="462"/>
      <point x="597" y="496"/>
      <point x="637" y="496" type="curve" smooth="yes"/>
      <point x="668" y="496"/>
      <point x="692" y="466"/>
      <point x="692" y="418" type="curve" smooth="yes"/>
      <point x="692" y="327"/>
      <point x="627" y="262"/>
      <point x="441" y="262" type="curve" smooth="yes"/>
      <point x="275" y="262"/>
      <point x="226" y="328"/>
      <point x="226" y="421" type="curve" smooth="yes"/>
      <point x="226" y="486"/>
      <point x="247" y="532"/>
      <point x="278" y="567" type="curve"/>
      <point x="270" y="572"/>
      <point x="253" y="575"/>
      <point x="234" y="575" type="curve" smooth="yes"/>
      <point x="120" y="575"/>
      <point x="32" y="507"/>
      <point x="32" y="406" type="curve" smooth="yes"/>
      <point x="32" y="281"/>
      <point x="133" y="192"/>
      <point x="409" y="192" type="curve" smooth="yes"/>
      <point x="648" y="192"/>
      <point x="770" y="281"/>
      <point x="770" y="417" type="curve" smooth="yes"/>
      <point x="770" y="521"/>
      <point x="686" y="575"/>
      <point x="571" y="575" type="curve" smooth="yes"/>
      <point x="471" y="575"/>
      <point x="385" y="514"/>
      <point x="385" y="421" type="curve" smooth="yes"/>
      <point x="385" y="369"/>
      <point x="393" y="327"/>
      <point x="407" y="278" type="curve" smooth="yes"/>
      <point x="419" y="237"/>
      <point x="430" y="190"/>
      <point x="430" y="146" type="curve" smooth="yes"/>
      <point x="430" y="96"/>
      <point x="403" y="74"/>
      <point x="361" y="74" type="curve" smooth="yes"/>
      <point x="327" y="74"/>
      <point x="282" y="91"/>
      <point x="282" y="167" type="curve" smooth="yes"/>
      <point x="282" y="215"/>
      <point x="303" y="267"/>
      <point x="377" y="409" type="curve" smooth="yes"/>
      <point x="452" y="553"/>
      <point x="483" y="617"/>
      <point x="483" y="688" type="curve" smooth="yes"/>
      <point x="483" y="781"/>
      <point x="417" y="827"/>
      <point x="338" y="827" type="curve" smooth="yes"/>
      <point x="246" y="827"/>
      <point x="214" y="779"/>
      <point x="214" y="747" type="curve" smooth="yes"/>
      <point x="214" y="739"/>
      <point x="216" y="728"/>
      <point x="218" y="722" type="curve"/>
      <point x="236" y="728"/>
      <point x="254" y="731"/>
      <point x="275" y="731" type="curve" smooth="yes"/>
      <point x="325" y="731"/>
      <point x="357" y="701"/>
      <point x="357" y="647" type="curve" smooth="yes"/>
      <point x="357" y="588"/>
      <point x="345" y="544"/>
      <point x="302" y="448" type="curve" smooth="yes"/>
      <point x="224" y="273"/>
      <point x="204" y="224"/>
      <point x="204" y="161" type="curve" smooth="yes"/>
      <point x="204" y="60"/>
      <point x="264" y="-8"/>
    </contour>
  </outline>
</glyph>
<glyph name="aulengthmarkmlym" format="2">
  <advance width="811"/>
  <unicode hex="0D57"/>
  <outline>
    <contour>
      <point x="435" y="-8" type="curve" smooth="yes"/>
      <point x="687" y="-8"/>
      <point x="779" y="109"/>
      <point x="779" y="308" type="curve" smooth="yes"/>
      <point x="779" y="477"/>
      <point x="698" y="575"/>
      <point x="546" y="575" type="curve" smooth="yes"/>
      <point x="437" y="575"/>
      <point x="385" y="509"/>
      <point x="348" y="437" type="curve"/>
      <point x="420" y="445" type="line"/>
      <point x="370" y="546"/>
      <point x="294" y="575"/>
      <point x="216" y="575" type="curve" smooth="yes"/>
      <point x="91" y="575"/>
      <point x="25" y="491"/>
      <point x="25" y="394" type="curve" smooth="yes"/>
      <point x="25" y="289"/>
      <point x="75" y="228"/>
      <point x="125" y="228" type="curve" smooth="yes"/>
      <point x="139" y="228"/>
      <point x="152" y="230"/>
      <point x="167" y="237" type="curve"/>
      <point x="125" y="282"/>
      <point x="102" y="329"/>
      <point x="102" y="390" type="curve" smooth="yes"/>
      <point x="102" y="445"/>
      <point x="131" y="495"/>
      <point x="180" y="495" type="curve" smooth="yes"/>
      <point x="221" y="495"/>
      <point x="238" y="462"/>
      <point x="238" y="390" type="curve" smooth="yes"/>
      <point x="238" y="233" type="line"/>
      <point x="443" y="233" type="line"/>
      <point x="443" y="401" type="line" smooth="yes"/>
      <point x="443" y="464"/>
      <point x="463" y="495"/>
      <point x="496" y="495" type="curve" smooth="yes"/>
      <point x="543" y="495"/>
      <point x="562" y="433"/>
      <point x="562" y="313" type="curve" smooth="yes"/>
      <point x="562" y="141"/>
      <point x="512" y="72"/>
      <point x="401" y="72" type="curve" smooth="yes"/>
      <point x="327" y="72"/>
      <point x="288" y="84"/>
      <point x="231" y="115" type="curve"/>
      <point x="225" y="105"/>
      <point x="221" y="94"/>
      <point x="221" y="80" type="curve" smooth="yes"/>
      <point x="221" y="41"/>
      <point x="278" y="-8"/>
    </contour>
  </outline>
</glyph>
<glyph name="uni0D58" format="2">
  <advance width="1416"/>
  <unicode hex="0D58"/>
  <outline>
    <contour>
      <point x="670" y="196" type="line"/>
      <point x="670" y="567" type="line"/>
      <point x="467" y="567" type="line"/>
      <point x="467" y="186" type="line" smooth="yes"/>
      <point x="467" y="127"/>
      <point x="440" y="74"/>
      <point x="373" y="74" type="curve" smooth="yes"/>
      <point x="297" y="74"/>
      <point x="260" y="166"/>
      <point x="260" y="295" type="curve" smooth="yes"/>
      <point x="260" y="355"/>
      <point x="272" y="476"/>
      <point x="358" y="557" type="curve"/>
      <point x="342" y="568"/>
      <point x="325" y="575"/>
      <point x="291" y="575" type="curve" smooth="yes"/>
      <point x="123" y="575"/>
      <point x="38" y="445"/>
      <point x="38" y="287" type="curve" smooth="yes"/>
      <point x="38" y="133"/>
      <point x="121" y="-8"/>
      <point x="326" y="-8" type="curve" smooth="yes"/>
      <point x="452" y="-8"/>
      <point x="523" y="68"/>
      <point x="570" y="150" type="curve"/>
    </contour>
    <contour>
      <point x="477" y="186" type="line"/>
      <point x="516" y="124" type="line"/>
      <point x="550" y="38"/>
      <point x="616" y="-8"/>
      <point x="733" y="-8" type="curve" smooth="yes"/>
      <point x="853" y="-8"/>
      <point x="912" y="52"/>
      <point x="953" y="120" type="curve"/>
      <point x="1062" y="196" type="line"/>
      <point x="1062" y="567" type="line"/>
      <point x="858" y="567" type="line"/>
      <point x="858" y="194" type="line" smooth="yes"/>
      <point x="858" y="105"/>
      <point x="817" y="73"/>
      <point x="764" y="73" type="curve" smooth="yes"/>
      <point x="703" y="73"/>
      <point x="680" y="113"/>
      <point x="680" y="196" type="curve" smooth="yes"/>
      <point x="680" y="567" type="line"/>
      <point x="477" y="567" type="line"/>
    </contour>
    <contour>
      <point x="931" y="199" type="line"/>
      <point x="902" y="124" type="line"/>
      <point x="936" y="38"/>
      <point x="1017" y="-8"/>
      <point x="1116" y="-8" type="curve" smooth="yes"/>
      <point x="1274" y="-8"/>
      <point x="1377" y="102"/>
      <point x="1377" y="311" type="curve" smooth="yes"/>
      <point x="1377" y="591"/>
      <point x="1239" y="808"/>
      <point x="834" y="808" type="curve" smooth="yes"/>
      <point x="679" y="808"/>
      <point x="505" y="770"/>
      <point x="505" y="697" type="curve" smooth="yes"/>
      <point x="505" y="689"/>
      <point x="505" y="677"/>
      <point x="507" y="672" type="curve"/>
      <point x="598" y="703"/>
      <point x="686" y="724"/>
      <point x="833" y="724" type="curve" smooth="yes"/>
      <point x="1191" y="724"/>
      <point x="1299" y="543"/>
      <point x="1299" y="306" type="curve" smooth="yes"/>
      <point x="1299" y="159"/>
      <point x="1237" y="74"/>
      <point x="1158" y="74" type="curve" smooth="yes"/>
      <point x="1094" y="74"/>
      <point x="1071" y="112"/>
      <point x="1071" y="197" type="curve" smooth="yes"/>
      <point x="1071" y="567" type="line"/>
      <point x="931" y="567" type="line"/>
    </contour>
  </outline>
</glyph>
<glyph name="uni0D59" format="2">
  <advance width="1109"/>
  <unicode hex="0D59"/>
  <outline>
    <contour>
      <point x="203" y="-9" type="curve" smooth="yes"/>
      <point x="231" y="-9"/>
      <point x="241" y="3"/>
      <point x="251" y="16" type="curve"/>
      <point x="166" y="68"/>
      <point x="116" y="150"/>
      <point x="116" y="264" type="curve" smooth="yes"/>
      <point x="116" y="409"/>
      <point x="203" y="495"/>
      <point x="315" y="495" type="curve" smooth="yes"/>
      <point x="437" y="495"/>
      <point x="491" y="370"/>
      <point x="491" y="229" type="curve" smooth="yes"/>
      <point x="491" y="126"/>
      <point x="460" y="74"/>
      <point x="398" y="74" type="curve" smooth="yes"/>
      <point x="357" y="74"/>
      <point x="325" y="100"/>
      <point x="325" y="152" type="curve" smooth="yes"/>
      <point x="325" y="222"/>
      <point x="385" y="270"/>
      <point x="509" y="270" type="curve" smooth="yes"/>
      <point x="868" y="270" type="line" smooth="yes"/>
      <point x="1024" y="270"/>
      <point x="1089" y="341"/>
      <point x="1089" y="430" type="curve" smooth="yes"/>
      <point x="1089" y="513"/>
      <point x="1028" y="572"/>
      <point x="916" y="572" type="curve" smooth="yes"/>
      <point x="796" y="572"/>
      <point x="746" y="501"/>
      <point x="746" y="432" type="curve" smooth="yes"/>
      <point x="746" y="380"/>
      <point x="764" y="343"/>
      <point x="794" y="301" type="curve"/>
      <point x="886" y="299" type="line"/>
      <point x="843" y="344"/>
      <point x="824" y="378"/>
      <point x="824" y="423" type="curve" smooth="yes"/>
      <point x="824" y="456"/>
      <point x="843" y="493"/>
      <point x="886" y="493" type="curve" smooth="yes"/>
      <point x="922" y="493"/>
      <point x="937" y="463"/>
      <point x="937" y="426" type="curve" smooth="yes"/>
      <point x="937" y="370"/>
      <point x="905" y="340"/>
      <point x="849" y="340" type="curve" smooth="yes"/>
      <point x="516" y="340" type="line" smooth="yes"/>
      <point x="340" y="340"/>
      <point x="247" y="273"/>
      <point x="247" y="152" type="curve" smooth="yes"/>
      <point x="247" y="74"/>
      <point x="294" y="-8"/>
      <point x="440" y="-8" type="curve" smooth="yes"/>
      <point x="595" y="-8"/>
      <point x="710" y="80"/>
      <point x="710" y="246" type="curve" smooth="yes"/>
      <point x="710" y="432"/>
      <point x="570" y="575"/>
      <point x="358" y="575" type="curve" smooth="yes"/>
      <point x="172" y="575"/>
      <point x="38" y="455"/>
      <point x="38" y="263" type="curve" smooth="yes"/>
      <point x="38" y="96"/>
      <point x="129" y="-9"/>
    </contour>
  </outline>
</glyph>
<glyph name="uni0D5A" format="2">
  <advance width="1174"/>
  <unicode hex="0D5A"/>
  <outline>
    <contour>
      <point x="293" y="575" type="curve" smooth="yes"/>
      <point x="135" y="575"/>
      <point x="38" y="457"/>
      <point x="38" y="285" type="curve" smooth="yes"/>
      <point x="38" y="116"/>
      <point x="132" y="-10"/>
      <point x="193" y="-10" type="curve" smooth="yes"/>
      <point x="223" y="-10"/>
      <point x="232" y="2"/>
      <point x="242" y="15" type="curve"/>
      <point x="162" y="88"/>
      <point x="116" y="159"/>
      <point x="116" y="288" type="curve" smooth="yes"/>
      <point x="116" y="405"/>
      <point x="172" y="493"/>
      <point x="251" y="493" type="curve" smooth="yes"/>
      <point x="315" y="493"/>
      <point x="338" y="455"/>
      <point x="338" y="373" type="curve" smooth="yes"/>
      <point x="338" y="224" type="line"/>
      <point x="531" y="224" type="line"/>
      <point x="531" y="353" type="line"/>
      <point x="515" y="427" type="line"/>
      <point x="481" y="513"/>
      <point x="414" y="575"/>
    </contour>
    <contour>
      <point x="545" y="0" type="line"/>
      <point x="1118" y="0" type="line"/>
      <point x="1118" y="287" type="line" smooth="yes"/>
      <point x="1118" y="483"/>
      <point x="966" y="575"/>
      <point x="802" y="575" type="curve" smooth="yes"/>
      <point x="624" y="575"/>
      <point x="475" y="483"/>
      <point x="475" y="289" type="curve" smooth="yes"/>
      <point x="475" y="224" type="line"/>
      <point x="549" y="224" type="line"/>
      <point x="549" y="287" type="line" smooth="yes"/>
      <point x="549" y="398"/>
      <point x="593" y="451"/>
      <point x="651" y="451" type="curve" smooth="yes"/>
      <point x="700" y="451"/>
      <point x="731" y="421"/>
      <point x="731" y="359" type="curve" smooth="yes"/>
      <point x="731" y="241"/>
      <point x="639" y="143"/>
      <point x="545" y="72" type="curve"/>
      <point x="671" y="38" type="line"/>
      <point x="875" y="116"/>
      <point x="944" y="227"/>
      <point x="944" y="331" type="curve" smooth="yes"/>
      <point x="944" y="441"/>
      <point x="854" y="507"/>
      <point x="744" y="507" type="curve" smooth="yes"/>
      <point x="670" y="507"/>
      <point x="635" y="495"/>
      <point x="604" y="479" type="curve"/>
      <point x="615" y="461" type="line"/>
      <point x="645" y="486"/>
      <point x="694" y="508"/>
      <point x="783" y="508" type="curve" smooth="yes"/>
      <point x="904" y="508"/>
      <point x="1007" y="456"/>
      <point x="1007" y="280" type="curve" smooth="yes"/>
      <point x="1007" y="72" type="line"/>
      <point x="545" y="72" type="line"/>
    </contour>
  </outline>
</glyph>
<glyph name="uni0D5B" format="2">
  <advance width="1070"/>
  <unicode hex="0D5B"/>
  <outline>
    <contour>
      <point x="867" y="576" type="curve" smooth="yes"/>
      <point x="839" y="576"/>
      <point x="828" y="565"/>
      <point x="818" y="552" type="curve"/>
      <point x="899" y="505"/>
      <point x="954" y="410"/>
      <point x="954" y="302" type="curve" smooth="yes"/>
      <point x="954" y="141"/>
      <point x="861" y="75"/>
      <point x="782" y="75" type="curve" smooth="yes"/>
      <point x="660" y="75"/>
      <point x="622" y="185"/>
      <point x="622" y="302" type="curve" smooth="yes"/>
      <point x="622" y="385"/>
      <point x="645" y="467"/>
      <point x="709" y="542" type="curve"/>
      <point x="697" y="567" type="line"/>
      <point x="62" y="567" type="line"/>
      <point x="62" y="0" type="line"/>
      <point x="277" y="0" type="line"/>
      <point x="277" y="494" type="line"/>
      <point x="561" y="494" type="line"/>
      <point x="505" y="515" type="line"/>
      <point x="451" y="474"/>
      <point x="403" y="401"/>
      <point x="403" y="278" type="curve" smooth="yes"/>
      <point x="403" y="123"/>
      <point x="521" y="-8"/>
      <point x="728" y="-8" type="curve" smooth="yes"/>
      <point x="905" y="-8"/>
      <point x="1032" y="111"/>
      <point x="1032" y="302" type="curve" smooth="yes"/>
      <point x="1032" y="458"/>
      <point x="941" y="576"/>
    </contour>
  </outline>
</glyph>
<glyph name="uni0D5C" format="2">
  <advance width="1606"/>
  <unicode hex="0D5C"/>
  <outline>
    <contour>
      <point x="621" y="-8" type="curve" smooth="yes"/>
      <point x="790" y="-8"/>
      <point x="912" y="62"/>
      <point x="912" y="253" type="curve" smooth="yes"/>
      <point x="912" y="378" type="line" smooth="yes"/>
      <point x="912" y="475"/>
      <point x="942" y="502"/>
      <point x="986" y="502" type="curve" smooth="yes"/>
      <point x="1031" y="502"/>
      <point x="1060" y="475"/>
      <point x="1060" y="378" type="curve" smooth="yes"/>
      <point x="1060" y="243" type="line" smooth="yes"/>
      <point x="1060" y="70"/>
      <point x="1168" y="-8"/>
      <point x="1321" y="-8" type="curve" smooth="yes"/>
      <point x="1482" y="-8"/>
      <point x="1568" y="96"/>
      <point x="1568" y="281" type="curve" smooth="yes"/>
      <point x="1568" y="449"/>
      <point x="1474" y="575"/>
      <point x="1411" y="575" type="curve" smooth="yes"/>
      <point x="1384" y="575"/>
      <point x="1374" y="563"/>
      <point x="1364" y="550" type="curve"/>
      <point x="1444" y="477"/>
      <point x="1490" y="408"/>
      <point x="1490" y="280" type="curve" smooth="yes"/>
      <point x="1490" y="145"/>
      <point x="1437" y="74"/>
      <point x="1369" y="74" type="curve" smooth="yes"/>
      <point x="1313" y="74"/>
      <point x="1278" y="109"/>
      <point x="1278" y="199" type="curve" smooth="yes"/>
      <point x="1278" y="314" type="line" smooth="yes"/>
      <point x="1278" y="505"/>
      <point x="1162" y="575"/>
      <point x="989" y="575" type="curve" smooth="yes"/>
      <point x="816" y="575"/>
      <point x="694" y="505"/>
      <point x="694" y="314" type="curve" smooth="yes"/>
      <point x="694" y="189" type="line" smooth="yes"/>
      <point x="694" y="92"/>
      <point x="664" y="65"/>
      <point x="620" y="65" type="curve" smooth="yes"/>
      <point x="576" y="65"/>
      <point x="546" y="92"/>
      <point x="546" y="189" type="curve" smooth="yes"/>
      <point x="546" y="324" type="line" smooth="yes"/>
      <point x="546" y="497"/>
      <point x="442" y="575"/>
      <point x="289" y="575" type="curve" smooth="yes"/>
      <point x="128" y="575"/>
      <point x="38" y="471"/>
      <point x="38" y="286" type="curve" smooth="yes"/>
      <point x="38" y="118"/>
      <point x="132" y="-8"/>
      <point x="195" y="-8" type="curve" smooth="yes"/>
      <point x="222" y="-8"/>
      <point x="232" y="4"/>
      <point x="242" y="17" type="curve"/>
      <point x="162" y="90"/>
      <point x="116" y="159"/>
      <point x="116" y="287" type="curve" smooth="yes"/>
      <point x="116" y="422"/>
      <point x="169" y="493"/>
      <point x="237" y="493" type="curve" smooth="yes"/>
      <point x="293" y="493"/>
      <point x="328" y="458"/>
      <point x="328" y="368" type="curve" smooth="yes"/>
      <point x="328" y="253" type="line" smooth="yes"/>
      <point x="328" y="62"/>
      <point x="444" y="-8"/>
    </contour>
  </outline>
</glyph>
